<svg xmlns="http://www.w3.org/2000/svg" xmlns:xlink="http://www.w3.org/1999/xlink" viewBox="0 0 1228 1702"><defs><style>.cls-1{fill:none;}.cls-2{fill:url(#linear-gradient);}.cls-3{fill:url(#linear-gradient-2);}.cls-4{isolation:isolate;}.cls-5{clip-path:url(#clip-path);}.cls-6{fill:url(#Degradado_sin_nombre_37);}.cls-69,.cls-7{fill:#f4f7fa;}.cls-7{opacity:0.17;}.cls-8{fill:#113f61;}.cls-9{fill:#f4f4f4;}.cls-10{fill:url(#radial-gradient);}.cls-11{fill:url(#radial-gradient-2);}.cls-12{fill:url(#radial-gradient-3);}.cls-13,.cls-15{fill:#eaeaea;}.cls-13,.cls-14{opacity:0.1;}.cls-13,.cls-14,.cls-16,.cls-54{mix-blend-mode:screen;}.cls-16{opacity:0.05;}.cls-17{fill:url(#Degradado_sin_nombre_37-2);}.cls-18{fill:#d4d4d4;}.cls-19{fill:#aeaeae;}.cls-20{fill:#878787;}.cls-21{fill:#58595b;}.cls-22{fill:url(#Degradado_sin_nombre_37-3);}.cls-23{fill:url(#Degradado_sin_nombre_37-4);}.cls-24{fill:url(#Degradado_sin_nombre_37-5);}.cls-25{fill:#fafeff;}.cls-26{fill:#282828;}.cls-27{fill:url(#Degradado_sin_nombre_37-6);}.cls-28{fill:url(#Degradado_sin_nombre_37-7);}.cls-29{fill:url(#Degradado_sin_nombre_37-8);}.cls-30{fill:url(#Degradado_sin_nombre_37-9);}.cls-31{fill:url(#Degradado_sin_nombre_37-10);}.cls-32{fill:url(#Degradado_sin_nombre_37-11);}.cls-33{fill:url(#Degradado_sin_nombre_37-12);}.cls-34{fill:url(#Degradado_sin_nombre_37-13);}.cls-35{fill:url(#Degradado_sin_nombre_37-14);}.cls-36{fill:url(#Degradado_sin_nombre_37-15);}.cls-37{fill:url(#Degradado_sin_nombre_37-16);}.cls-38{fill:url(#Degradado_sin_nombre_37-17);}.cls-39{fill:url(#Degradado_sin_nombre_37-18);}.cls-40{fill:url(#Degradado_sin_nombre_37-19);}.cls-41{fill:url(#Degradado_sin_nombre_37-20);}.cls-42{fill:#282829;}.cls-43{fill:#575756;}.cls-44,.cls-45{fill:#ffb68f;}.cls-101,.cls-45,.cls-52,.cls-59,.cls-72,.cls-79,.cls-99{opacity:0.3;}.cls-101,.cls-45,.cls-52,.cls-57,.cls-59,.cls-72,.cls-79,.cls-99{mix-blend-mode:multiply;}.cls-46{fill:#c97142;}.cls-47{fill:#828282;}.cls-48{fill:#323232;}.cls-49{fill:#5e5e5e;}.cls-50{fill:#808285;}.cls-51{fill:#bcbec0;}.cls-53{fill:#e2ab98;}.cls-54{opacity:0.4;}.cls-55{fill:#e8ac8c;}.cls-56,.cls-57{fill:#eef5f7;}.cls-58,.cls-59{fill:#414042;}.cls-60{fill:#f0ebf7;}.cls-61{fill:#cbc0e0;}.cls-62,.cls-77{fill:#fff;}.cls-63{clip-path:url(#clip-path-2);}.cls-64{opacity:0.7;}.cls-64,.cls-67,.cls-77{mix-blend-mode:soft-light;}.cls-65{fill:#fcfdfe;}.cls-66{clip-path:url(#clip-path-3);}.cls-67{opacity:0.5;}.cls-68{fill:url(#linear-gradient-5);}.cls-69{opacity:0.67;}.cls-70{fill:url(#linear-gradient-6);}.cls-71{fill:url(#linear-gradient-7);}.cls-72{fill:url(#linear-gradient-8);}.cls-73{fill:url(#linear-gradient-9);}.cls-74{fill:url(#linear-gradient-10);}.cls-75{fill:url(#linear-gradient-11);}.cls-76{fill:url(#linear-gradient-12);}.cls-77{opacity:0.48;}.cls-78{fill:url(#linear-gradient-13);}.cls-79{fill:url(#linear-gradient-14);}.cls-80{fill:url(#linear-gradient-15);}.cls-81{fill:url(#linear-gradient-16);}.cls-82{fill:#fbd163;}.cls-83{fill:#edbf47;}.cls-84{fill:#f6a49d;}.cls-85{opacity:0.51;}.cls-86{fill:#d6ece0;}.cls-87{fill:#93deb4;}.cls-88{fill:#24292f;}.cls-89{fill:#5868a3;}.cls-90{fill:#242e6c;}.cls-91{fill:#7dd0e2;}.cls-92{fill:#a7adbf;}.cls-93{fill:#c2e7f0;}.cls-94{fill:#3a3e49;}.cls-95{fill:#959bab;}.cls-96{fill:#e5e7e6;}.cls-97{fill:#82858e;}.cls-98{fill:url(#linear-gradient-17);}.cls-99{fill:url(#linear-gradient-18);}.cls-100,.cls-101{fill:url(#linear-gradient-19);}.cls-102{fill:url(#linear-gradient-21);}</style><linearGradient id="linear-gradient" x1="309.23" y1="1156.66" x2="12.17" y2="642.99" gradientTransform="matrix(-1, 0, 0, 1, 962.41, 0)" gradientUnits="userSpaceOnUse"><stop offset="0" stop-color="#aa80f9"/><stop offset="1" stop-color="#6165d7"/></linearGradient><linearGradient id="linear-gradient-2" x1="79" y1="899.95" x2="255.36" y2="1190.29" gradientTransform="matrix(-1, 0, 0, 1, 962.41, 0)" gradientUnits="userSpaceOnUse"><stop offset="0" stop-color="#e38ddd"/><stop offset="1" stop-color="#9571f6"/></linearGradient><clipPath id="clip-path"><rect class="cls-1" y="1" width="1228" height="1702"/></clipPath><linearGradient id="Degradado_sin_nombre_37" x1="-9844.9" y1="842.5" x2="-8585.53" y2="842.5" gradientTransform="matrix(1, 0, 0, -1, 9835.43, 1685)" gradientUnits="userSpaceOnUse"><stop offset="0" stop-color="#20639b"/><stop offset="0.39" stop-color="#206299"/><stop offset="0.6" stop-color="#1e5d91"/><stop offset="0.77" stop-color="#1b5483"/><stop offset="0.92" stop-color="#174870"/><stop offset="1" stop-color="#143f61"/></linearGradient><radialGradient id="radial-gradient" cx="491.64" cy="243.54" r="4.62" gradientTransform="translate(70.45 792.55) rotate(-35.15)" gradientUnits="userSpaceOnUse"><stop offset="0" stop-color="#767674"/><stop offset="1" stop-color="#212120"/></radialGradient><radialGradient id="radial-gradient-2" cx="491.64" cy="243.54" r="2.41" gradientTransform="translate(70.45 792.55) rotate(-35.15)" gradientUnits="userSpaceOnUse"><stop offset="0" stop-color="#5390c2"/><stop offset="1" stop-color="#2a2f54"/></radialGradient><radialGradient id="radial-gradient-3" cx="491.63" cy="243.55" r="1.3" xlink:href="#radial-gradient-2"/><linearGradient id="Degradado_sin_nombre_37-2" x1="508.2" y1="117.85" x2="931.95" y2="117.85" gradientTransform="translate(6.97 356.45)" xlink:href="#Degradado_sin_nombre_37"/><linearGradient id="Degradado_sin_nombre_37-3" x1="629.97" y1="201.79" x2="681.94" y2="201.79" gradientTransform="translate(70.45 792.55) rotate(-35.15)" xlink:href="#Degradado_sin_nombre_37"/><linearGradient id="Degradado_sin_nombre_37-4" x1="629.97" y1="182.83" x2="730.52" y2="182.83" gradientTransform="translate(70.45 792.55) rotate(-35.15)" xlink:href="#Degradado_sin_nombre_37"/><linearGradient id="Degradado_sin_nombre_37-5" x1="755.56" y1="239.7" x2="917.91" y2="239.7" gradientTransform="translate(55.85 267.05)" xlink:href="#Degradado_sin_nombre_37"/><linearGradient id="Degradado_sin_nombre_37-6" x1="818.18" y1="340.47" x2="855.38" y2="340.47" gradientTransform="translate(70.45 792.55) rotate(-35.15)" xlink:href="#Degradado_sin_nombre_37"/><linearGradient id="Degradado_sin_nombre_37-7" x1="817.45" y1="346.41" x2="856.05" y2="346.41" gradientTransform="translate(70.45 792.55) rotate(-35.15)" xlink:href="#Degradado_sin_nombre_37"/><linearGradient id="Degradado_sin_nombre_37-8" x1="818.15" y1="350.98" x2="844.12" y2="350.98" gradientTransform="translate(70.45 792.55) rotate(-35.15)" xlink:href="#Degradado_sin_nombre_37"/><linearGradient id="Degradado_sin_nombre_37-9" x1="817.91" y1="352.04" x2="838.89" y2="352.04" gradientTransform="translate(70.45 792.55) rotate(-35.15)" xlink:href="#Degradado_sin_nombre_37"/><linearGradient id="Degradado_sin_nombre_37-10" x1="821.58" y1="366.63" x2="854.16" y2="366.63" gradientTransform="translate(70.45 792.55) rotate(-35.15)" xlink:href="#Degradado_sin_nombre_37"/><linearGradient id="Degradado_sin_nombre_37-11" x1="826.65" y1="372.67" x2="850.69" y2="372.67" gradientTransform="translate(70.45 792.55) rotate(-35.15)" xlink:href="#Degradado_sin_nombre_37"/><linearGradient id="Degradado_sin_nombre_37-12" x1="836.25" y1="376.74" x2="846.53" y2="376.74" gradientTransform="translate(70.45 792.55) rotate(-35.15)" xlink:href="#Degradado_sin_nombre_37"/><linearGradient id="Degradado_sin_nombre_37-13" x1="809.46" y1="325.47" x2="818.58" y2="325.47" gradientTransform="translate(70.45 792.55) rotate(-35.15)" xlink:href="#Degradado_sin_nombre_37"/><linearGradient id="Degradado_sin_nombre_37-14" x1="854.37" y1="325.1" x2="863.59" y2="325.1" gradientTransform="translate(70.45 792.55) rotate(-35.15)" xlink:href="#Degradado_sin_nombre_37"/><linearGradient id="Degradado_sin_nombre_37-15" x1="854.86" y1="377.52" x2="863.97" y2="377.52" gradientTransform="translate(70.45 792.55) rotate(-35.15)" xlink:href="#Degradado_sin_nombre_37"/><linearGradient id="Degradado_sin_nombre_37-16" x1="809.84" y1="377.89" x2="819.06" y2="377.89" gradientTransform="translate(70.45 792.55) rotate(-35.15)" xlink:href="#Degradado_sin_nombre_37"/><linearGradient id="Degradado_sin_nombre_37-17" x1="536.46" y1="157.47" x2="546.98" y2="157.47" gradientTransform="translate(70.45 792.55) rotate(-35.15)" xlink:href="#Degradado_sin_nombre_37"/><linearGradient id="Degradado_sin_nombre_37-18" x1="588.33" y1="157.04" x2="598.97" y2="157.04" gradientTransform="translate(70.45 792.55) rotate(-35.15)" xlink:href="#Degradado_sin_nombre_37"/><linearGradient id="Degradado_sin_nombre_37-19" x1="588.88" y1="217.58" x2="599.41" y2="217.58" gradientTransform="translate(70.45 792.55) rotate(-35.15)" xlink:href="#Degradado_sin_nombre_37"/><linearGradient id="Degradado_sin_nombre_37-20" x1="536.89" y1="218.01" x2="547.54" y2="218.01" gradientTransform="translate(70.45 792.55) rotate(-35.15)" xlink:href="#Degradado_sin_nombre_37"/><clipPath id="clip-path-2"><path class="cls-2" d="M761,1079.25c.12,8.62,1.18,15.7,1.68,24.13-33.83-13.28-68.89-19.88-103.22-33.27,35.14-32,62-42.32,64.77-97.34,1.32-25.81-3.63-77.09,13.44-97.12,19.44-22.82,36.13-10,38.78-35.24,4.15-39.46,34.64-72.7,79.86-41,44.63,31.28-.91,165.21-41.06,192.74C785.75,1022.41,760.36,1034.2,761,1079.25Z"/></clipPath><clipPath id="clip-path-3"><path class="cls-3" d="M819.37,953.71c-18.14,40.38-40.51,25.76-69.89,8.34-3.55,41.07-8.52,80.94-13.7,121.38,19.83,11.37,34.25,19.14,51.7-2.44,19.73-24.41,30.31-39.15,64.87-38.44s65.09-17.92,61.24-52.26c-4.05-36.15,34.79-73.22,12.22-104C886.5,832.73,838.25,911.66,819.37,953.71Z"/></clipPath><linearGradient id="linear-gradient-5" x1="439.18" y1="831.95" x2="360.13" y2="905.3" gradientTransform="matrix(-1, 0, 0, 1, 962.41, 0)" gradientUnits="userSpaceOnUse"><stop offset="0" stop-color="#ffc444"/><stop offset="1" stop-color="#f36f56"/></linearGradient><linearGradient id="linear-gradient-6" x1="436.04" y1="828.79" x2="357.14" y2="902.01" gradientTransform="matrix(1, 0, 0, -1, 170.18, 1734.36)" xlink:href="#linear-gradient-5"/><linearGradient id="linear-gradient-7" x1="349.34" y1="909.59" x2="85.05" y2="1170.58" xlink:href="#linear-gradient-5"/><linearGradient id="linear-gradient-8" x1="338.46" y1="898.57" x2="74.17" y2="1159.56" xlink:href="#linear-gradient-5"/><linearGradient id="linear-gradient-9" x1="181.01" y1="1167.56" x2="156.31" y2="1177.94" gradientTransform="matrix(-1, 0, 0, 1, 962.41, 0)" gradientUnits="userSpaceOnUse"><stop offset="0" stop-color="#40447e"/><stop offset="1" stop-color="#3c3b6b"/></linearGradient><linearGradient id="linear-gradient-10" x1="148.02" y1="1058.68" x2="121.21" y2="1069.94" xlink:href="#linear-gradient-9"/><linearGradient id="linear-gradient-11" x1="32.46" y1="1064.78" x2="280.93" y2="1064.78" xlink:href="#linear-gradient-9"/><linearGradient id="linear-gradient-12" x1="189.43" y1="1004.55" x2="-1" y2="1315.86" gradientTransform="matrix(-1, 0, 0, 1, 962.41, 0)" gradientUnits="userSpaceOnUse"><stop offset="0.49" stop-color="#ebeff2"/><stop offset="1" stop-color="#fff"/></linearGradient><linearGradient id="linear-gradient-13" x1="32.46" y1="1156.66" x2="384.15" y2="1156.66" xlink:href="#linear-gradient-9"/><linearGradient id="linear-gradient-14" x1="66.95" y1="1153.78" x2="324.63" y2="1153.78" xlink:href="#linear-gradient-9"/><linearGradient id="linear-gradient-15" x1="2854.26" y1="1255.91" x2="2883.21" y2="840.47" gradientTransform="translate(-2065.59)" xlink:href="#linear-gradient-5"/><linearGradient id="linear-gradient-16" x1="2878.12" y1="1116.37" x2="2877.22" y2="1281.96" gradientTransform="translate(-2065.59)" xlink:href="#linear-gradient-5"/><linearGradient id="linear-gradient-17" x1="-13539.29" y1="16430.16" x2="-13554.44" y2="16647.65" gradientTransform="matrix(0.44, 0.9, 0.9, -0.44, -8135.55, 20456.7)" xlink:href="#linear-gradient-2"/><linearGradient id="linear-gradient-18" x1="-13551.68" y1="16444.3" x2="-13564.46" y2="16627.69" gradientTransform="matrix(0.44, 0.9, 0.9, -0.44, -8135.55, 20456.7)" xlink:href="#linear-gradient-2"/><linearGradient id="linear-gradient-19" x1="-13445.19" y1="16436.57" x2="-13460.45" y2="16655.54" gradientTransform="matrix(0.44, 0.9, 0.9, -0.44, -8135.55, 20456.7)" xlink:href="#linear-gradient-2"/><linearGradient id="linear-gradient-21" x1="-13441.64" y1="16436.95" x2="-13456.89" y2="16655.66" gradientTransform="matrix(0.44, 0.9, 0.9, -0.44, -8135.55, 20456.7)" xlink:href="#linear-gradient-2"/></defs><g class="cls-4"><g id="Capa_5" data-name="Capa 5"><g class="cls-5"><rect class="cls-6" x="-9.47" y="-33" width="1259.37" height="1751" transform="translate(1240.43 1685) rotate(-180)"/><path class="cls-7" d="M-184,705.92C-147.76,469,.66,177.87,293.88,147.4c0,0,222.63-27.07,442.09,14,130.25,24.35,244.46,96.86,316.72,201.07s96.41,231.29,67.11,352.44c-19,78.68-31.88,160.12-28.35,241,6.14,140.72,2.6,272.07-134,356-121.94,74.93-275.4,141-421.8,152.6-99.5,7.86-211.08-4.87-307-30.77C-260,1301.67-220.16,942.87-184,705.92Z"/><rect class="cls-8" x="551.13" y="406.56" width="494.44" height="345" rx="20.6" transform="translate(-187.8 565.29) rotate(-35.15)"/><rect class="cls-9" x="588.33" y="416.78" width="423.76" height="322.85" rx="3.38" transform="translate(-186.96 566.21) rotate(-35.15)"/><path class="cls-10" d="M610,704.81h0a4.62,4.62,0,0,0,5.33,7.54,4.62,4.62,0,0,0-5.31-7.55Z"/><path class="cls-11" d="M611.26,706.6a2.42,2.42,0,1,0,2.78,3.95,2.42,2.42,0,0,0-2.78-3.95Z"/><path class="cls-12" d="M611.89,707.53a1.31,1.31,0,0,0-.32,1.82,1.31,1.31,0,0,0,2.13-1.51A1.28,1.28,0,0,0,611.89,707.53Z"/><path class="cls-13" d="M611.44,708.56a1.1,1.1,0,0,0-.26,1.52,1.08,1.08,0,0,0,1.5.26,1.08,1.08,0,1,0-1.24-1.78Z"/><g class="cls-14"><path class="cls-15" d="M614,708.77c0,.37.24.64.48.61s.36-.33.32-.68-.24-.63-.46-.62S614,708.42,614,708.77Z"/></g><g class="cls-14"><path class="cls-15" d="M610.38,708.65c0,.38.07.69.17.69s.2-.29.19-.67-.06-.7-.17-.7S610.4,708.28,610.38,708.65Z"/></g><g class="cls-16"><path class="cls-15" d="M612.23,706.49c-.74.12-1.31.56-1.23,1s.74.61,1.5.48,1.31-.57,1.23-1S613,706.35,612.23,706.49Z"/></g><rect class="cls-17" x="515.16" y="449.88" width="423.76" height="48.83" transform="translate(-140.48 505.12) rotate(-35.15)"/><rect class="cls-18" x="514.5" y="469.88" width="423.76" height="6.97" transform="translate(-140.06 504.57) rotate(-35.15)"/><path class="cls-19" d="M678,700.18h423.82a0,0,0,0,1,0,0v9.68a1.36,1.36,0,0,1-1.36,1.36H679.41a1.36,1.36,0,0,1-1.36-1.36v-9.68A0,0,0,0,1,678,700.18Z" transform="translate(-244 641.13) rotate(-35.15)"/><path class="cls-20" d="M741.74,676l-9.4,6.62a3.36,3.36,0,0,1-4.68-.82l-6.63-9.4a3.37,3.37,0,0,1,.82-4.69l9.4-6.62a3.35,3.35,0,0,1,4.68.82l6.63,9.4A3.37,3.37,0,0,1,741.74,676Zm-10.51,4.91,9.28-6.54a1.41,1.41,0,0,0,.34-1.95l-6.53-9.28a1.42,1.42,0,0,0-2-.34l-9.28,6.54a1.41,1.41,0,0,0-.34,1.95l6.53,9.28A1.42,1.42,0,0,0,731.23,680.93Z"/><path class="cls-20" d="M806.91,630.12l-9.4,6.62a3.35,3.35,0,0,1-4.68-.81l-6.63-9.4a3.37,3.37,0,0,1,.82-4.69l9.4-6.62a3.35,3.35,0,0,1,4.68.81l6.63,9.41A3.36,3.36,0,0,1,806.91,630.12ZM796.4,635l9.28-6.53a1.42,1.42,0,0,0,.34-2l-6.53-9.27a1.41,1.41,0,0,0-2-.34l-9.28,6.53a1.42,1.42,0,0,0-.34,2l6.53,9.27A1.4,1.4,0,0,0,796.4,635Z"/><path class="cls-21" d="M801.81,562.34l-3.41,2.41-2.34-3.33,3.41-2.41ZM795,567.15l-3.41,2.41-2.35-3.33,3.42-2.4ZM788.15,572l-3.42,2.41L782.39,571l3.42-2.4Zm-6.83,4.82-3.42,2.4-2.34-3.33,3.42-2.4Zm-6.84,4.81-3.41,2.4-2.34-3.33,3.41-2.4Zm-6.83,4.81-3.41,2.4-2.34-3.33,3.41-2.4Zm-6.83,4.81-3.41,2.41-2.35-3.33,3.42-2.41ZM754,596l-3.42,2.41-2.34-3.33,3.42-2.41Zm-6.83,4.81-3.42,2.41-2.34-3.33,3.41-2.4Zm-6.83,4.81-3.42,2.41-2.34-3.33,3.41-2.4Zm-6.84,4.82-3.41,2.4-2.35-3.33,3.42-2.4Zm-6.83,4.81-3.41,2.4-2.35-3.33,3.42-2.4Zm-6.83,4.81-3.42,2.4-2.34-3.32,3.41-2.41ZM713,624.89l-3.42,2.41L707.24,624l3.41-2.41Zm-6.83,4.81-3.42,2.41-2.34-3.33,3.41-2.41Zm-6.84,4.81-3.41,2.41-2.35-3.33,3.42-2.41Zm-6.83,4.81-3.41,2.41-2.35-3.33,3.42-2.4Zm-6.83,4.81-3.42,2.41-2.34-3.33,3.42-2.4ZM678.84,649l-3.42,2.4L673.08,648l3.41-2.4ZM672,653.76l-3.42,2.4-2.35-3.32,3.42-2.41Zm-6.84,4.81-3.41,2.4-2.35-3.32,3.42-2.41Zm-6.83,4.81-3.42,2.41-2.34-3.33,3.42-2.41Zm-6.83,4.81-3.42,2.41-2.34-3.33,3.41-2.41ZM644.68,673l-3.42,2.41-2.34-3.33,3.41-2.41Zm-6.84,4.81-3.41,2.41-2.35-3.33,3.42-2.4Z"/><path class="cls-21" d="M809.08,572.67l-3.41,2.4-2.34-3.33,3.41-2.4Zm-6.83,4.81-3.41,2.4-2.34-3.33,3.41-2.4Zm-6.83,4.81L792,584.7l-2.34-3.33,3.42-2.41Zm-6.83,4.81-3.42,2.41-2.34-3.33,3.42-2.41Zm-6.83,4.81-3.42,2.41L776,591l3.41-2.41Zm-6.84,4.81-3.41,2.41-2.34-3.33,3.41-2.4Zm-6.83,4.81-3.41,2.41-2.35-3.33,3.42-2.4Zm-6.83,4.82-3.42,2.4-2.34-3.33,3.42-2.4Zm-6.83,4.81-3.42,2.4-2.34-3.33,3.41-2.4ZM747.6,616l-3.42,2.4-2.34-3.32,3.41-2.41Zm-6.83,4.81-3.42,2.41L735,619.86l3.42-2.41Zm-6.84,4.81L730.52,628l-2.35-3.33,3.42-2.41Zm-6.83,4.81-3.41,2.41-2.35-3.33,3.41-2.4Zm-6.83,4.81-3.42,2.41-2.34-3.33,3.42-2.4ZM713.44,640l-3.42,2.4-2.34-3.33,3.41-2.4Zm-6.83,4.81-3.42,2.4-2.35-3.33,3.42-2.4Zm-6.84,4.81-3.41,2.4L694,648.73l3.42-2.41Zm-6.83,4.81-3.42,2.41-2.34-3.33,3.42-2.41Zm-6.83,4.81-3.42,2.41-2.34-3.33,3.41-2.41Zm-6.83,4.81-3.42,2.41-2.34-3.33,3.41-2.41Zm-6.84,4.81L669,671.3,666.68,668l3.42-2.4Zm-6.83,4.81-3.42,2.41-2.34-3.33,3.42-2.4Zm-6.83,4.82-3.42,2.4L653,677.59l3.42-2.4ZM652,683.33l-3.42,2.4-2.34-3.32L649.6,680Zm-6.84,4.81-3.41,2.4-2.34-3.32,3.41-2.41Z"/><path class="cls-18" d="M787.56,692.83l-93.62,65.92a4.06,4.06,0,0,1-5.67-1h0a4.07,4.07,0,0,1,1-5.68l93.62-65.93a4.08,4.08,0,0,1,5.68,1h0A4.08,4.08,0,0,1,787.56,692.83Z"/><path class="cls-18" d="M813.39,729.5l-93.62,65.93a4.07,4.07,0,0,1-5.68-1h0a4.08,4.08,0,0,1,1-5.68l93.62-65.93a4.06,4.06,0,0,1,5.67,1h0A4.06,4.06,0,0,1,813.39,729.5Z"/><path class="cls-18" d="M709.72,692.4l-41.78,29.43a4.08,4.08,0,0,1-5.68-1h0a4.08,4.08,0,0,1,1-5.68L705,685.74a4.08,4.08,0,0,1,5.68,1h0A4.06,4.06,0,0,1,709.72,692.4Z"/><path class="cls-18" d="M775.26,646.25l-17.32,12.2a4.08,4.08,0,0,1-5.68-1h0a4.08,4.08,0,0,1,1-5.68l17.31-12.19a4.07,4.07,0,0,1,5.68,1h0A4.07,4.07,0,0,1,775.26,646.25Z"/><path class="cls-18" d="M842.2,626.91,681,740.42a4.08,4.08,0,0,1-5.68-1h0a4.08,4.08,0,0,1,1-5.68l161.17-113.5a4.07,4.07,0,0,1,5.67,1h0A4.06,4.06,0,0,1,842.2,626.91Z"/><path class="cls-22" d="M744.69,569.52l-38.8,27.32c-1,.72-2.89-.19-4.19-2h0c-1.3-1.84-1.52-3.92-.5-4.63L740,562.85c1-.72,2.9.19,4.19,2h0C745.49,566.73,745.71,568.8,744.69,569.52Z"/><path class="cls-23" d="M773.49,526.05,695,581.34c-1,.72-2.9-.19-4.19-2h0c-1.3-1.84-1.52-3.91-.51-4.63l78.52-55.3c1-.71,2.9.2,4.19,2h0C774.29,523.26,774.51,525.33,773.49,526.05Z"/><path class="cls-18" d="M822.61,695.58,706.86,777.09a4.07,4.07,0,0,1-5.68-1h0a4.08,4.08,0,0,1,1-5.68l115.75-81.52a4.07,4.07,0,0,1,5.67,1h0A4.07,4.07,0,0,1,822.61,695.58Z"/><rect class="cls-24" x="811.41" y="445.81" width="162.34" height="121.89" rx="4.62" transform="translate(-128.98 606.36) rotate(-35.15)"/><rect class="cls-25" x="819.41" y="464.65" width="156.12" height="98.61" rx="0.86" transform="translate(-132.23 610.49) rotate(-35.15)"/><polygon class="cls-25" points="813.07 497.68 809.29 497.02 808.5 501.63 803.89 500.83 803.23 504.6 807.84 505.4 807.04 510.01 810.81 510.66 811.61 506.06 816.22 506.85 816.87 503.08 812.26 502.29 813.07 497.68"/><polygon class="cls-25" points="917.04 420.79 916.38 429.85 911.3 428.39 910.35 431.9 919.6 434.41 920.67 421.03 917.04 420.79"/><path class="cls-26" d="M962.14,475.85a83.08,83.08,0,0,1-30.54,49.31,84,84,0,0,1-28,14c-4.08,1.19-8.42,2.11-12-.79-3.81-3.09-3.37-9.43-2.79-13.72.14-1.06.35-2.12.59-3.17a14.56,14.56,0,0,0,6.38-.72,13.32,13.32,0,0,0,6.54-5.06,13.92,13.92,0,0,0,1.8-4c.48-1.71.11-5.5,2.18-6.16,2.77-.9,6.11,1,9,.5s5.16-3.53,6.79-5.71c1.29-1.72,2.44-3.7,4.84-3.79,1.69-.07,3.19,1.22,4.73,1.74,3.18,1.08,6-.31,8.15-2.71,2.51-2.82,4.09-6.23,5.61-9.64s2.86-7.43,2.46-11.27c-.87-8.22-7.84-11.8-15.52-10.66-8.77,1.31-15.36,9.84-20.63,16.18a184.43,184.43,0,0,0-17.05,24.27,89.92,89.92,0,0,0-6.57,13.18c-4.12-1.46-7.88-4.58-10.9-7.39-1-.89-2.73,2.07-2.66,2.85.77,7.74,1.47,15.61-.81,23.16-2.35,7.75-8.63,13.16-16.9,12.47-12.94-1.07-11.94-16.2-11-26.52,1.28-.83,2.53-1.66,3.7-2.51,4.44-3.2,9.25-7.09,10.63-12.65,1.59-6.37-4.66-11.24-10.31-7.79s-5.55,11.12-6.12,16.87c-.17,1.77-.41,3.78-.64,5.92-4.86,3.24-9.65,6.56-13.15,11.33-1.6,2.18.88,1.54,1.87.18,2.76-3.77,6.91-6.69,11.06-9.42-1.16,11.93-1.2,26.72,12.74,27.87,7.24.6,13.35-4.15,17.27-9.77,5-7.12,5.57-16.16,5.08-24.55,0-.55-.09-1.11-.13-1.66a25.77,25.77,0,0,0,9.12,5c-1.88,6.15-2.41,12.5.23,17.94,2.43,5,8.06,5,12.75,3.88A82.25,82.25,0,0,0,920,535c23.24-12.49,39.71-35.49,44.93-61.21C965.23,472.4,962.35,474.82,962.14,475.85ZM846.25,518.74c.33-4.1,0-17,5.33-17.53a5.92,5.92,0,0,1,5.94,4.48c.91,3.29-1.14,6.07-3.37,8.2a61.54,61.54,0,0,1-8,6.23C846.18,519.64,846.22,519.18,846.25,518.74Zm54.73-21c5.77-8.91,12.32-17.94,20.09-25.22,6.88-6.44,20.71-8.73,23.83,2.77,1.33,4.86-1,10-3.06,14.24-1.3,2.72-2.79,6.11-6.33,6.05-1.86,0-3.74-1.54-5.53-2.07-4.45-1.3-7.86,4.39-10,7.2-3.93,5-10-.54-14.68,3.2a9.41,9.41,0,0,0-2.92,4.85,36.48,36.48,0,0,0-.72,3.89c-.5,2.92-2.45,4.38-5.06,5.28a11.67,11.67,0,0,1-6.23.36C892.63,510.92,896.86,504.08,901,497.72Z"/><path class="cls-27" d="M939.37,598.73a14.64,14.64,0,0,1,17.23-22.17c4.21,1.56,6.54,5.06,9,8.52l5.86,8.18c1.44,2,4.57-.23,3.13-2.25-5.61-7.82-10.53-17.65-21-19.15a18.53,18.53,0,0,0-18.21,8.9,18.81,18.81,0,0,0,.86,20.22c1.4,2,4.53-.2,3.13-2.25Z"/><path class="cls-28" d="M942.47,607.83a7.87,7.87,0,0,0,3.13-7.71c-.39-2.36-1.79-4-2.75-6.11-2.05-4.46,0-10.43,4.38-12.53a9.05,9.05,0,0,1,11.06,3.06q4.22,5.87,8.4,11.74c3,4.24,7.4,5.36,11.95,2.34,2.07-1.38-.18-4.51-2.24-3.13-4.94,3.27-7.28-2.44-9.71-5.84-2.65-3.73-5.28-8.94-9.44-11.16-8.09-4.32-17,.51-18.77,9.22A13.8,13.8,0,0,0,940.72,598c1.43,2.2,1.71,4.93-.49,6.7-1.93,1.55.3,4.69,2.24,3.13Z"/><path class="cls-29" d="M946.7,612.63a11.62,11.62,0,0,0,5.35-11.71,16.13,16.13,0,0,0-2.33-5.6q-.42-.66-.9-1.29c.44.61.13.23,0,0a13.56,13.56,0,0,1-.73-2c-1.26-4.1,2.55-8.26,5.83-4.26a30.4,30.4,0,0,1,5.91,10.36c2.45,8-2.26,14.83-8.54,19.43-2,1.47.24,4.6,2.24,3.13C960.64,615.57,965.77,608,964,599c-1-5-3.72-9-6.66-13-2.74-3.74-7-4.94-10.79-1.9-3.31,2.65-2.95,7.32-1.54,10.85s4.46,6.28,3,10.43a8.42,8.42,0,0,1-3.52,4.2c-2.13,1.28.13,4.4,2.25,3.13Z"/><path class="cls-30" d="M950.57,592.21a18.09,18.09,0,0,1,3.61,6.92c1.75,6.2-1.89,11.5-6.71,15-2,1.47.24,4.6,2.24,3.13,5.79-4.26,9.8-10.43,8.47-17.83A20.33,20.33,0,0,0,953.7,590c-1.62-1.85-4.76.37-3.13,2.24Z"/><path class="cls-31" d="M958.51,623.45a23.13,23.13,0,0,0,8.81-10.12,17.5,17.5,0,0,0,1.28-4.83c.11-.91.23-1.8.42-2.7.31-1.44,1-.77,2-.39,3.2,1.23,6.82,1.66,9.67-.58,1.95-1.52-.29-4.66-2.24-3.13-3.22,2.52-6.38-1-9.74-.74s-3.71,5.23-4,7.69c-.62,4.78-4.39,9.22-8.43,11.66-2.12,1.29.14,4.42,2.25,3.14Z"/><path class="cls-32" d="M978.42,606.85c-2.9,1.28-6.25-1.1-8.18,2.46s-2.31,9.87-7,11.25c-2.39.7-1,4.31,1.34,3.62,4-1.19,6.5-5.8,7.71-9.43.54-1.62.62-4,2.66-3.85a10.19,10.19,0,0,0,4.81-.43c2.26-1,.94-4.62-1.34-3.62Z"/><path class="cls-33" d="M974.33,620.44a16.88,16.88,0,0,0,4.8-6.25c.92-2.3-2.59-3.89-3.52-1.57A11.77,11.77,0,0,1,973.4,616a12.48,12.48,0,0,1-1.31,1.32c-1.87,1.61.36,4.75,2.24,3.13Z"/><path class="cls-34" d="M924.23,595.13l-1.82,1.3-2.19-3.06a5.63,5.63,0,0,1,1.3-7.84l2.86-2,1.3,1.82-2.86,2.05a3.38,3.38,0,0,0-.78,4.72Z"/><path class="cls-35" d="M964.57,566.23l1.82-1.31-2.19-3.06a5.62,5.62,0,0,0-7.84-1.29l-2.87,2,1.31,1.82,2.86-2.05a3.38,3.38,0,0,1,4.72.78Z"/><path class="cls-36" d="M989.63,601.21l1.82-1.3,2.2,3.06a5.63,5.63,0,0,1-1.3,7.84l-2.86,2.05-1.3-1.82,2.86-2a3.4,3.4,0,0,0,.78-4.72Z"/><path class="cls-37" d="M949.3,630.11l-1.82,1.3,2.19,3.07a5.63,5.63,0,0,0,7.84,1.29l2.86-2-1.3-1.82L956.21,634a3.38,3.38,0,0,1-4.72-.78Z"/><path class="cls-38" d="M605,615.35l-2.1,1.51-2.54-3.54a6.49,6.49,0,0,1,1.5-9.05l3.3-2.37,1.51,2.1-3.31,2.37a3.91,3.91,0,0,0-.9,5.45Z"/><path class="cls-39" d="M651.59,582l2.1-1.51-2.54-3.54a6.49,6.49,0,0,0-9-1.49l-3.31,2.37,1.51,2.1,3.3-2.37a3.91,3.91,0,0,1,5.45.9Z"/><path class="cls-40" d="M680.53,622.38l2.1-1.51,2.54,3.54a6.51,6.51,0,0,1-1.5,9.06l-3.31,2.36-1.5-2.1,3.3-2.37a3.9,3.9,0,0,0,.9-5.45Z"/><path class="cls-41" d="M633.94,655.76l-2.1,1.5,2.53,3.54a6.5,6.5,0,0,0,9.06,1.49l3.31-2.37-1.51-2.1-3.3,2.37a3.9,3.9,0,0,1-5.45-.9Z"/><path class="cls-18" d="M672,631l-28.17,19.84-9.44-13.4c-2.43-3.45-.94-8.68,3.33-11.69l12.72-9c4.27-3,9.69-2.64,12.12.81Z"/><circle class="cls-18" cx="635.16" cy="608.43" r="14.21" transform="translate(-202.14 339.09) rotate(-25.94)"/><rect class="cls-18" x="641.24" y="618.55" width="6.61" height="6.85" transform="translate(-240.56 484.56) rotate(-35.15)"/><path class="cls-42" d="M1009.47,485.12a7.85,7.85,0,0,0-4.92,9.95l8.29,24.58a7.85,7.85,0,0,0,14.88-5l-8.29-24.58A7.86,7.86,0,0,0,1009.47,485.12Z"/><path class="cls-43" d="M1023,525.22a8.54,8.54,0,0,1-10.8-5.35l-8.29-24.59a8.52,8.52,0,1,1,16.15-5.45l8.3,24.59A8.53,8.53,0,0,1,1023,525.22Zm-13.31-39.46a7.18,7.18,0,0,0-4.51,9.09l8.3,24.59a7.18,7.18,0,1,0,13.6-4.59l-8.29-24.59A7.19,7.19,0,0,0,1009.69,485.76Z"/><path class="cls-44" d="M1000.41,475c5.78,5.58,10.88,11.37,16.18,17.37,4.75,5.38,38.68,38.74,49.25,50.07,15.14,16.23,52.32,22.52,58.39,25.72,19.93,10.5,71.08,54,82.78,57.06,10.28-10.9,49.57-48.31,44.61-56.64-4-6.66-68.18-55.71-71.11-61.21-11.65-21.87-38.31-83-45.91-87-15-7.83-66.87-27.8-77-27.28-12,.62-37.64,36.83-52.92,54.06C995.15,457.93,990.11,466.22,1000.41,475Z"/><path class="cls-45" d="M1074.06,437.15c-12.55-11.74-25.81,1.11-45.45,13.83-7.48,4.84-14.83,11.58-22.43,16.27v0c3.16-2.2,7-2.3,13-1.63,10,1.1,17.3,4.11,25.66,10.46,7.09,5.38,12.5,11.58,21.7,18.14,3.08,2.19,25.19,11.86,29.45,1.37C1107.82,466.4,1078,440.86,1074.06,437.15Z"/><path class="cls-46" d="M1061.94,445.11c-10.19-6.69-24.34,4.25-44.45,15.95-2.41,1.4-4.84,3-7.27,4.61a29.21,29.21,0,0,1,8.93,0c10,1.1,17.3,4.11,25.66,10.46,4.19,3.18,7.87,6.67,12,10.33,6.83-1.13,15.21-3.77,18.43-8.57C1090.29,455.44,1065.15,447.23,1061.94,445.11Z"/><path class="cls-47" d="M960.42,496.18c-7.82,3.62-14.44,5.93-14.78,5.18s5.68-4.32,13.49-7.94,14.42-5.94,14.77-5.17S968.21,492.56,960.42,496.18Z"/><path class="cls-48" d="M1131.66,423.22a1.1,1.1,0,0,1-1.46-.54L1125,411.42a1.09,1.09,0,0,1,.54-1.46l49.58-23.09a1.09,1.09,0,0,1,1.44.53l5.23,11.28a1.1,1.1,0,0,1-.53,1.45Z"/><path class="cls-48" d="M1178.19,402.94a.78.78,0,0,0,.37-1L1172,387.67a.76.76,0,0,0-1-.36s-200.31,93-200.39,93.13v0c-7.56,3.51-17.54,13-20.27,17l1.4,2.85c4.85.5,18.52-.88,26.05-4.37v0C977.83,495.86,1178.19,402.94,1178.19,402.94Z"/><path class="cls-49" d="M1172.76,391.23s-200.33,93-200.42,93.08v0a121.07,121.07,0,0,0-21.71,13.91l.75,1.43c2.88-1.89,15.23-8,22.76-11.46.11,0,200.44-93,200.44-93,.4-.17.62-.48.54-.67l-1.5-3.27C1173.51,391.06,1173.15,391.05,1172.76,391.23Z"/><path class="cls-50" d="M1160.28,392.24a1,1,0,0,1,.49-1.33l10.25-4.75a1,1,0,0,1,1.33.49l7.28,15.7a1,1,0,0,1-.49,1.31l-10.26,4.75a1,1,0,0,1-1.32-.48Z"/><path class="cls-51" d="M1161.41,394.67a1,1,0,0,1,.49-1.33l10.25-4.76a1,1,0,0,1,1.33.49l1,2.26c.23.48-.27.49-.76.71l-10.26,4.76c-.5.23-.82.59-1,.11Z"/><path class="cls-44" d="M1014.15,489.61c-5.91-6.25-18.56-19.16-6.76-26.94s25.8,3.84,34.38,11.24C1052.46,483.12,1014.15,489.61,1014.15,489.61Z"/><g class="cls-52"><path class="cls-53" d="M1001.59,471.88l.06-.38a.36.36,0,0,0,0-.09,3.39,3.39,0,0,0-.15.52Z"/></g><g class="cls-54"><path class="cls-55" d="M1010.66,484.27l1.35.66a22.43,22.43,0,0,0,3.58,1.37c1.42.43,3.39.62,4.23-.3.21-.2.4-.41.62-.66.11-.07.28-.35.32-.32l.37-.71a5.6,5.6,0,0,0,.57-2.43,10.43,10.43,0,0,0-1.79-5.28,40.34,40.34,0,0,0-3.2-4.39c-1-1.25-1.92-2.28-2.55-3l-1-1.14.22-.24s1.82,1.22,4.37,3.35a31.06,31.06,0,0,1,4,4.12,12.1,12.1,0,0,1,2.85,6.45,8.64,8.64,0,0,1-.65,3.89l-.32.73a6.11,6.11,0,0,1-.55,1,4.3,4.3,0,0,1-1.67,1.4,6.25,6.25,0,0,1-3.81.29,11.19,11.19,0,0,1-2.74-1.06,17.88,17.88,0,0,1-3.32-2.42c-.72-.66-1.09-1.07-1.09-1.07Z"/></g><polygon class="cls-56" points="1130.96 588.85 1183.25 493.64 1239.63 532.85 1181.96 634.76 1130.96 588.85"/><polygon class="cls-57" points="1195.38 604.28 1146.59 560.36 1130.96 588.85 1181.96 634.76 1239.63 532.85 1236.96 530.99 1195.38 604.28"/><polygon class="cls-58" points="1155.12 626.42 1233.28 695.25 1390.82 642.1 1383.6 620.68 1219.67 511.04 1155.12 626.42"/><polygon class="cls-59" points="1155.12 626.42 1233.28 695.25 1282.01 678.81 1171.32 597.47 1155.12 626.42"/><rect class="cls-60" x="62.31" y="57.82" width="188.71" height="120.97"/><rect class="cls-61" x="84.56" y="95.55" width="144.22" height="68.98"/><rect class="cls-61" x="84.56" y="70.89" width="72.11" height="11.18"/><rect class="cls-62" x="92.63" y="109.04" width="72.71" height="7.32"/><rect class="cls-62" x="92.63" y="126.38" width="72.71" height="7.32"/><rect class="cls-62" x="92.63" y="143.72" width="41.88" height="7.32"/><rect class="cls-62" x="173.8" y="143.72" width="41.88" height="7.32"/><circle class="cls-62" cx="194.74" cy="121.37" r="12.33" transform="translate(43.74 294.16) rotate(-80.78)"/><path d="M42.53,173.57H41V154.84h1.54Zm0-37.47H41V117.37h1.54Zm0-37.46H41V79.91h1.54Zm0-37.46H41V42.44h1.54Zm0-37.47H41V5h1.54Z"/><rect x="40.99" y="192.3" width="1.54" height="9.25"/><path d="M182.32,34.29H163.59V32.75h18.73Zm-37.46,0H126.12V32.75h18.74Zm-37.47,0H88.66V32.75h18.73Zm-37.46,0H51.2V32.75H69.93Zm-37.47,0H13.73V32.75H32.46Z"/><rect x="201.05" y="32.75" width="9.25" height="1.54"/><rect class="cls-60" x="241.83" y="222.64" width="211.11" height="135.33"/><rect class="cls-61" x="266.71" y="264.85" width="161.34" height="77.17"/><rect class="cls-61" x="266.71" y="237.26" width="80.67" height="12.5"/><rect class="cls-62" x="275.74" y="279.94" width="81.34" height="8.19"/><rect class="cls-62" x="275.74" y="299.34" width="81.34" height="8.19"/><rect class="cls-62" x="275.74" y="318.74" width="46.85" height="8.19"/><rect x="475.57" y="435.09" width="1.54" height="9.25"/><path d="M477.11,417.19h-1.54v-17.9h1.54Zm0-35.8h-1.54v-17.9h1.54Zm0-35.8h-1.54v-17.9h1.54Zm0-35.8h-1.54v-17.9h1.54Zm0-35.8h-1.54v-17.9h1.54Zm0-35.8h-1.54v-17.9h1.54Z"/><rect x="475.57" y="193.14" width="1.54" height="9.25"/><rect x="529.75" y="380.34" width="9.25" height="1.54"/><path d="M511.85,381.88H494v-1.54h17.9Zm-35.8,0h-17.9v-1.54h17.9Zm-35.8,0h-17.9v-1.54h17.9Zm-35.8,0h-17.9v-1.54h17.9Zm-35.8,0h-17.9v-1.54h17.9Zm-35.8,0H315v-1.54h17.9Z"/><rect x="287.8" y="380.34" width="9.25" height="1.54"/><path class="cls-2" d="M761,1079.25c.12,8.62,1.18,15.7,1.68,24.13-33.83-13.28-68.89-19.88-103.22-33.27,35.14-32,62-42.32,64.77-97.34,1.32-25.81-3.63-77.09,13.44-97.12,19.44-22.82,36.13-10,38.78-35.24,4.15-39.46,34.64-72.7,79.86-41,44.63,31.28-.91,165.21-41.06,192.74C785.75,1022.41,760.36,1034.2,761,1079.25Z"/><g class="cls-63"><g class="cls-64"><path class="cls-65" d="M709.92,1081.72l.68.39c6.63-11.65,14.26-22.92,21.64-33.82l2.8-4.14c5.93-8.77,11.07-16.73,15.61-23.74,2.54-3.93,5-7.67,7.32-11.26,7.24-11,12.32-18.67,14.85-22.48l1.66-2.52c19.83-30.14,35.69-78.39,44.21-104.32.92-2.8,1.75-5.31,2.47-7.46a551.72,551.72,0,0,1,51.45-109.89l-.67-.4a553,553,0,0,0-51.53,110c-.72,2.15-1.54,4.66-2.46,7.47-8.51,25.89-24.35,74.07-44.12,104.13l-1.67,2.51c-2.52,3.82-7.61,11.5-14.84,22.49-2.37,3.59-4.79,7.33-7.33,11.26-4.54,7-9.68,15-15.6,23.73l-2.8,4.14C724.2,1058.76,716.56,1070,709.92,1081.72Z"/><path class="cls-65" d="M747,1026.29l.67.4c12.16-20.54,18.16-49.57,17.37-83.94-.67-28.63-6.15-60-15-86.16l-.75.25C766.51,907.49,773.16,982.12,747,1026.29Z"/><path class="cls-65" d="M816.58,883.94l.78.06c1.35-20.6.11-41.48-1.1-61.67-.82-13.82-1.67-28.12-1.68-42.2h-.79c0,14.11.87,28.41,1.69,42.24C816.68,842.54,817.92,863.4,816.58,883.94Z"/><path class="cls-65" d="M794.05,946.76c18.7-21.76,53.61-42.41,74.7-44.19l-.07-.78c-21.26,1.8-56.41,22.57-75.23,44.46Z"/></g></g><path class="cls-3" d="M819.37,953.71c-18.14,40.38-40.51,25.76-69.89,8.34-3.55,41.07-8.52,80.94-13.7,121.38,19.83,11.37,34.25,19.14,51.7-2.44,19.73-24.41,30.31-39.15,64.87-38.44s65.09-17.92,61.24-52.26c-4.05-36.15,34.79-73.22,12.22-104C886.5,832.73,838.25,911.66,819.37,953.71Z"/><g class="cls-66"><g class="cls-67"><path class="cls-65" d="M750.11,1033.35c36.35-8.52,66.39-16.62,94.65-36.66,27.06-19.17,43.47-42.7,54.9-78.66,5.91-18.64,12.26-31.32,21.27-48.54l-.69-.36c-9,17.26-15.39,30-21.33,48.66-11.37,35.79-27.7,59.2-54.6,78.26-28.15,20-58.12,28-94.37,36.53Z"/><path class="cls-65" d="M779.69,1095.21l.7-.35a118.8,118.8,0,0,0-19.77-28.7A76.6,76.6,0,0,0,747,1055.08l-.44.65a76,76,0,0,1,13.51,11A118,118,0,0,1,779.69,1095.21Z"/><path class="cls-65" d="M826.84,1007.89c27.43-6.49,58.79-2.48,88.3,11.27l.33-.71c-29.67-13.83-61.21-17.85-88.81-11.33Z"/><path class="cls-65" d="M882.69,955.2l.74.26c1.39-4,3.58-43.91,4.22-56.06,1.32-25.14,2.4-52.23,1.94-54l-.76.2c.39,1.5-.51,26.14-2,53.8C885.56,924.34,883.77,952.13,882.69,955.2Z"/></g></g><path class="cls-68" d="M762.4,816.9v313.74L577,1116.36a8,8,0,0,1-7.48-8v-280a8,8,0,0,1,7.81-8Z"/><path class="cls-69" d="M771.81,826.18v295.19l-186.28-13.54a7.56,7.56,0,0,1-7-7.55V836.83a7.55,7.55,0,0,1,7.35-7.55Z"/><path class="cls-70" d="M555.69,837.49h16.47a4.75,4.75,0,0,1,4.75,4.75v49.88a4.75,4.75,0,0,1-4.75,4.75H555.69a0,0,0,0,1,0,0V837.49A0,0,0,0,1,555.69,837.49Z" transform="translate(1132.6 1734.36) rotate(-180)"/><path class="cls-71" d="M773.94,825.8v297a9.19,9.19,0,0,1-7.8,9.09l-149.78,23.23a7.85,7.85,0,0,1-8.86-7.79V819.38a7.86,7.86,0,0,1,8.06-7.85L765,816.6A9.21,9.21,0,0,1,773.94,825.8Z"/><path class="cls-72" d="M704.33,1063.54c2.16-34.67-19.31-42.95-15.69-83.41,5.24-58.6,53.56-78.15,49.55-126.37-1.25-15-7.2-28-14.32-38.55L765,816.6a9.21,9.21,0,0,1,8.9,9.2v297a9.19,9.19,0,0,1-7.8,9.09l-115.4,17.9C691,1116.47,702.87,1087,704.33,1063.54Z"/><path class="cls-73" d="M578.26,1154.05,930,1151v9.07a4.81,4.81,0,0,1-3.61,4.92l-99.45,17.85a13.78,13.78,0,0,1-3.57.16l-241.23-20.34a4.58,4.58,0,0,1-3.83-4.81Z"/><path class="cls-74" d="M691.48,1139.36l234.6,16.57a7,7,0,0,0,7.61-7V981.18a7.59,7.59,0,0,0-7.61-7.58H691.48c-3.46,0-6.26,3.07-6.26,6.85v151.61C685.22,1135.85,688,1139.11,691.48,1139.36Z"/><path class="cls-75" d="M687.74,1139.36l234.6,16.57a7,7,0,0,0,7.61-7V981.18a7.59,7.59,0,0,0-7.61-7.58H687.74c-3.46,0-6.26,3.07-6.26,6.85v151.61C681.48,1135.85,684.28,1139.11,687.74,1139.36Z"/><path class="cls-76" d="M695,1128.67l218.51,14.4a5.72,5.72,0,0,0,6.19-5.78V990.46a6.23,6.23,0,0,0-6.19-6.22L695,983.34a5.39,5.39,0,0,0-5.16,5.61v133.74A5.87,5.87,0,0,0,695,1128.67Z"/><path class="cls-62" d="M796.75,978.19a2.7,2.7,0,1,0,2.7-2.82A2.78,2.78,0,0,0,796.75,978.19Z"/><path class="cls-77" d="M744.26,1093.36c18.08-9.73,32.31,2.6,46-9.57,8.32-7.37,4.23-12.87,14.47-23.9,11.34-12.2,18.72-8.1,30.12-19.09,14.41-13.89,7.2-24.7,19.62-34.67,15-12.1,31.29-.9,45.62-12.51,6.19-5,9.58-12.28,11.35-20h14a4.45,4.45,0,0,1,4.45,4.45V1151.9a4.09,4.09,0,0,1-4.45,4.13l-239.1-17a3.82,3.82,0,0,1-2.88-1.76c17.5-.64,28.25-6.51,35.12-12.57C732.09,1112.86,729.76,1101.16,744.26,1093.36Z"/><path class="cls-78" d="M693.59,1138.6,930,1156.05l-103.06,18.5a13.79,13.79,0,0,1-3.57.17l-245.06-20.67,111.57-15.33A18.2,18.2,0,0,1,693.59,1138.6Z"/><polygon class="cls-79" points="895.46 1156.49 698.68 1141.75 637.78 1150.05 832.86 1165.81 895.46 1156.49"/><path class="cls-80" d="M838.4,1033.66,803,1035a7.24,7.24,0,0,1-5.26-1.83l-5.17-4.66a7.36,7.36,0,0,0-5.32-1.81l-20.93.73a6.85,6.85,0,0,0-6.76,6.71v57.64a6.34,6.34,0,0,0,6.77,6.33l72.1-3.38a7,7,0,0,0,6.57-6.87v-47.64A6.44,6.44,0,0,0,838.4,1033.66Z"/><path class="cls-81" d="M864.31,1045.43a5.28,5.28,0,0,0-4.41-2l-70.47,2.67a10.07,10.07,0,0,0-8.71,5.36l-19.92,41.14a4,4,0,0,0,.44,4.33,5.3,5.3,0,0,0,4.42,1.86l71.29-3.28a10,10,0,0,0,8.56-5.36l19.24-40.37A4.16,4.16,0,0,0,864.31,1045.43Z"/><path class="cls-82" d="M354.26,934.37l-35.78-6s-20.76-23.5-78.13,57.63-81.94,161.17-51.62,176.47,116.36,4.64,116.36,4.64Z"/><path class="cls-83" d="M291.16,1000.88c-19.67,22-39.33,25.33-68.83,72.83S265,1103.18,265,1103.18s44.23-33.86,44.23-40.7S291.16,1000.88,291.16,1000.88Z"/><path class="cls-84" d="M522.17,811.26s-.59,3.17-1.72,8.27c-3.73,16.94-13.33,55.29-26.55,70.4-10.09,11.53-22.86,13.63-31.69,13.39a14.16,14.16,0,0,0-13.94,10.24l-11.73,40.29-66.78-20.26,21.55-47.78,7.94-17.59,30.32-81.54h74.57Z"/><path class="cls-84" d="M750.07,1133.91s37.7,2.46,55.32,9.42,34.42,19.13,28.68,19.13H757.45Z"/><g class="cls-85"><path class="cls-60" d="M125.33,1684.37s18.38-93.4-44.36-164-122.29-86.12-129.73-98.13-16.08,31.68-19.13,48.83-18.38,74.09,5,137.56,134.11,89.65,134.11,89.65Z"/><path class="cls-61" d="M91.49,1628.7a1.28,1.28,0,0,0,.72-.06,1.26,1.26,0,0,0,.7-1.64c-.21-.52-21.4-52.83-56.8-99.18-17.94-23.47-36.35-42.07-51.14-57-14.58-14.73-25.12-25.37-27.46-32.84a1.26,1.26,0,0,0-1.57-.82,1.26,1.26,0,0,0-.83,1.58c2.53,8,13.24,18.87,28.08,33.85s33.08,33.42,50.92,56.77c35.19,46.06,56.26,98.07,56.47,98.59A1.25,1.25,0,0,0,91.49,1628.7Z"/><path class="cls-61" d="M-.7,1558.25A331.41,331.41,0,0,0,59,1564.92a1.26,1.26,0,0,0,0-2.51c-.61,0-62.25-.23-106.48-22.14a1.25,1.25,0,0,0-1.68.57,1.26,1.26,0,0,0,.56,1.69C-33.63,1550-16.66,1554.93-.7,1558.25Z"/><path class="cls-61" d="M-22.25,1497.39a281.59,281.59,0,0,0,34.09,4.67,1.26,1.26,0,0,0,.17-2.51c-.38,0-38.37-2.69-56.69-11.76a1.25,1.25,0,0,0-1.68.57,1.24,1.24,0,0,0,.57,1.68C-39.39,1493.22-30.82,1495.61-22.25,1497.39Z"/><path class="cls-61" d="M7.26,1612.67c27.84,5.79,77.28,5.25,79.79,5.22a1.26,1.26,0,1,0,0-2.51c-.74,0-73.47.79-92.34-9.33a1.27,1.27,0,0,0-1.71.51,1.26,1.26,0,0,0,.52,1.7C-3.21,1610,1.57,1611.48,7.26,1612.67Z"/><path class="cls-61" d="M77.13,1597.9a1.26,1.26,0,0,0,1.39-.68c.13-.29,13.68-28.77,11.94-57.46a1.26,1.26,0,0,0-2.51.15c1.7,28-11.56,55.94-11.7,56.22a1.25,1.25,0,0,0,.59,1.67A1,1,0,0,0,77.13,1597.9Z"/><path class="cls-61" d="M40.67,1537.66h0a1.26,1.26,0,0,0,1.47-1c.21-1.13,5.28-28,2.18-46.72a1.24,1.24,0,0,0-1.44-1,1.25,1.25,0,0,0-1,1.44c3,18.26-2.12,45.56-2.17,45.84A1.26,1.26,0,0,0,40.67,1537.66Z"/><path class="cls-86" d="M1250,1707.69s-32.82-95-129.18-65.77c0,0-.3-78.9-84.08-90.86-93-13.28-121.13,73.31-121.13,73.31s-119-13.93-119,83.32Z"/><path class="cls-86" d="M-85.63,1711.7s-.23-135.32,148-69.49c0,0,32.56-116.49,117.89-111S273.81,1647,273.81,1647s116.86-59.41,179.55,61.07Z"/><path class="cls-87" d="M182.83,1708.67l3-.42c-9.89-70.61,28.15-121.26,28.54-121.76l-2.39-1.83C211.57,1585.17,172.77,1636.83,182.83,1708.67Z"/><path class="cls-87" d="M181.44,1665.28l2.42-1.77c-.35-.48-35-48.2-41-78.23l-2.94.58C146,1616.55,180,1663.31,181.44,1665.28Z"/><path class="cls-87" d="M182.79,1690.12c26.91-1.69,50.75-33.59,51.75-34.95l-2.41-1.78c-.24.32-24,32.13-49.52,33.73Z"/><path class="cls-87" d="M94.92,1707.86l-4-2.9c-.47-.33-47.3-33.52-97.43-35.85l-.13,3c40.44,1.88,78.8,24.28,91.45,32.39l-50-1.74-.1,3Z"/><path class="cls-87" d="M57.74,1689.1l2.84-1c-7.69-22.43-24.46-44.33-24.63-44.55l-2.38,1.83C33.74,1645.63,50.21,1667.15,57.74,1689.1Z"/><path class="cls-87" d="M293,1707.33c.36-.31,36.8-30.9,77.45-45.16l-1-2.84c-41.18,14.45-78,45.4-78.39,45.71Z"/><path class="cls-87" d="M388,1696.59l1.37-2.67c-1.06-.55-26.59-13.34-73.66-6.79l.42,3C362.11,1683.7,387.7,1696.46,388,1696.59Z"/><path class="cls-87" d="M992.57,1713.46l1.28-2.09c-49.63-30.5-61.75-80.82-61.87-81.32l-2.39.55C929.71,1631.11,942.07,1682.43,992.57,1713.46Z"/><path class="cls-87" d="M964.51,1691.77l.14-2.45c-.48,0-48.59-3-70.6-14.88l-1.16,2.16C915.37,1688.74,962.51,1691.65,964.51,1691.77Z"/><path class="cls-87" d="M980.86,1703.83c12.93-17.83,5.24-49.44,4.9-50.78l-2.38.59c.08.32,7.75,31.85-4.51,48.75Z"/><path class="cls-87" d="M1023.92,1714l4-2.9c.47-.33,47.29-33.52,97.42-35.85l.14,3c-40.45,1.88-78.81,24.28-91.45,32.39l50-1.74.1,3Z"/><path class="cls-87" d="M1061.1,1695.26l-2.84-1c7.69-22.43,24.46-44.33,24.63-44.55l2.38,1.83C1085.1,1651.78,1068.63,1673.3,1061.1,1695.26Z"/></g><path class="cls-88" d="M682.88,1601.15s20.76,32.17,19.66,52.24-8.63,34.08-4.86,54.3H865.89s-16-25.31-44.93-33-52.31,3.44-88.37-94.35C704.45,1504.06,682.88,1601.15,682.88,1601.15Z"/><path class="cls-89" d="M751.71,1582.14l-72.11,30.58s-3.39-6.59-9.23-17.06c-15.16-27.26-46.84-80.85-78.18-113.06C548.81,1438,507,1322,507,1322l83.21-5.31,19.48-1.24,6.49,12.17,45.93,86.23Z"/><path class="cls-90" d="M616.15,1327.6l-26-10.93L507,1322s41.84,116,85.22,160.62c31.34,32.21,63,85.8,78.18,113.06a126.37,126.37,0,0,1,3.77-15.82c13.11-42.61-31.7-55.72-17.49-115.76,4.74-20,6-36.42,5.43-50.25Z"/><rect class="cls-91" x="96.12" y="1162.46" width="901.43" height="32.78"/><rect class="cls-92" x="96.12" y="1195.42" width="901.43" height="8.37"/><rect class="cls-93" x="712.38" y="1162.46" width="285.18" height="32.78"/><path class="cls-88" d="M498.22,1599.51s-.6,37.48-13.25,65c-9.29,20.21-13,43.16-13,43.16H640.26s-10.92-21.86-39.42-28c-39.2-8.42-61.1-36.5-51.81-72.56S498.22,1599.51,498.22,1599.51Z"/><path class="cls-89" d="M659.93,1361.31l-106,260.06h-71s24-65.56,29.51-121.28,41.51-156.8,41.51-156.8-25.44-1.27-61-2.91c-66.25-3.08-167.57-7.47-204.56-7.47-18.08,0-28.75-10.83-34.9-25.62-13.16-31.68-5.54-81.47-5.54-81.47H448.54s128.35,35,181.89,57.92S659.93,1361.31,659.93,1361.31Z"/><path class="cls-90" d="M493,1340.38c-66.25-3.08-167.57-7.47-204.56-7.47-18.08,0-28.75-10.83-34.9-25.62,23.67,16.12,40,23.28,55.66,6.16,18-19.74,18.61-1.7,57.56,9.9,19.25,5.73,53.58,6.85,92.8,7C482.11,1330.5,491.91,1334.29,493,1340.38Z"/><polygon class="cls-88" points="450.56 1238.94 246.62 1238.94 248 1225.83 450.56 1225.83 450.56 1238.94"/><path class="cls-83" d="M361.64,927.54s4.91-28.41,24.58-29.5,61.19,21.3,66.11,41S361.64,927.54,361.64,927.54Z"/><path class="cls-82" d="M757.45,1129.4v33.06H602.57s-20.15,4.2-59.4-42.61a.06.06,0,0,0,0,0,420.72,420.72,0,0,1-28-37.87,6,6,0,0,0-11,2.18c-4.36,22.09-13.37,63.52-23.72,86.59a303.8,303.8,0,0,1-31.92,55.11H248s-10.36-14.81-11.74-51.25a246.8,246.8,0,0,1,.81-29.6c4.91-58.18,27-135.21,31.14-159,1.65-9.63,4.54-21.14,7.36-31.43a43.32,43.32,0,0,1,38.13-31.78c38.09-3.13,110-2.28,200.19,30.65a57.88,57.88,0,0,1,22.4,14.73c10.66,11.36,27.77,31.44,40.86,55.53,20.49,37.7,46.71,82.77,59,87.68S757.45,1129.4,757.45,1129.4Z"/><path class="cls-83" d="M543.15,1119.81a420.72,420.72,0,0,1-28-37.87,6,6,0,0,0-11,2.18c-4.36,22.09-13.37,63.52-23.72,86.59a303.8,303.8,0,0,1-31.92,55.11H248s-10.36-14.81-11.74-51.25c19.16-21.73,68.5,2.31,105.16-21.94,38.78-25.69,78.11-15.85,87.95-71.58s28.42-91.24,47.26-65,43.44,12,46.71,37.68C526.58,1079,542.66,1118.59,543.15,1119.81Z"/><path class="cls-94" d="M537.51,802.31A146.24,146.24,0,0,1,520.8,818s-22.39-6.71-34.28-1.79c-3.77,1.56-6.72,5.92-8.73,11.32v0c-4.38,11.62-4.49,28,.54,31.68,7.38,5.33,27.86,9.84,29.5,16.8s-16.22,38.35-34,37.7c-33.47-1.23-15.57-33.6-12.7-47.12s7-27.05,2.05-37.7-25.4-7.78-25.81,11.47,10.24,13.94,4.5,27c0,0-18.32,25.76-50.54,18.4,0,0,3.8-18.23,2.6-29.06-1.92-17.36-12-31.16.28-57.38s38.65-29.48,49.71-24.15c0,0,16.8-40.57,44.25-38.93s17.62,22.54,17.62,22.54,29.91-15.57,44.25,4.91C558.05,775.19,548,790.79,537.51,802.31Z"/><polygon class="cls-92" points="229.42 1353.66 225.55 1375.25 166.06 1707.68 160.59 1707.68 200.59 1375.25 203.2 1353.66 229.42 1353.66"/><polygon class="cls-92" points="477.37 1353.66 473.5 1375.25 413.99 1707.68 408.53 1707.68 448.54 1375.25 451.14 1353.66 477.37 1353.66"/><polygon class="cls-92" points="581.26 1707.68 575.8 1707.68 516.29 1375.25 512.42 1353.66 538.65 1353.66 541.25 1375.25 581.26 1707.68"/><polygon class="cls-95" points="203.2 1353.66 229.42 1353.66 225.55 1375.25 200.59 1375.25 203.2 1353.66"/><polygon class="cls-95" points="451.14 1353.66 477.37 1353.66 473.5 1375.25 448.54 1375.25 451.14 1353.66"/><polygon class="cls-95" points="541.25 1375.25 516.29 1375.25 512.42 1353.66 538.65 1353.66 541.25 1375.25"/><rect class="cls-92" x="191.18" y="1332.91" width="362.76" height="20.76" rx="10.38"/><polygon class="cls-92" points="229.42 1339.47 203.2 1339.47 186.3 1190.39 172.76 1070.97 171.8 1062.48 177.25 1062.48 178.81 1070.74 201.35 1190.39 229.42 1339.47"/><polygon class="cls-92" points="477.37 1339.47 451.14 1339.47 434.23 1190.39 420.66 1070.74 419.72 1062.48 425.18 1062.48 426.74 1070.74 449.27 1190.39 477.37 1339.47"/><path class="cls-96" d="M460.75,1179.67H184.11a9.57,9.57,0,0,1-9.51-8.54l-11-100.49A9.58,9.58,0,0,1,173.1,1060H442.86a9.57,9.57,0,0,1,9.42,7.9l17.9,100.49A9.58,9.58,0,0,1,460.75,1179.67Z"/><path class="cls-95" d="M201.35,1190.39h-15L172.76,1071a10.1,10.1,0,0,1,2.07-.23h4Z"/><polygon class="cls-95" points="449.27 1190.39 434.23 1190.39 420.66 1070.74 426.74 1070.74 449.27 1190.39"/><rect class="cls-97" x="975.55" y="1195.24" width="22" height="512.45"/><rect class="cls-97" x="96.12" y="1195.24" width="22" height="512.45"/><path class="cls-92" d="M454.21,1182.12H177.57a9.58,9.58,0,0,1-9.52-8.53L157,1073.1a9.58,9.58,0,0,1,9.52-10.62H436.31a9.57,9.57,0,0,1,9.43,7.9l17.9,100.49A9.58,9.58,0,0,1,454.21,1182.12Z"/><path class="cls-98" d="M718,1093.81l-6.5-24.22-1-3.67-2.57.07c-.84,0-1.87,0-3.09,0s-2.62,0-4.19-.12a104.32,104.32,0,0,1-25.78-4.47,110.68,110.68,0,0,1-16.43-6.55c-2.8-1.45-5.68-3-8.49-4.75l-1.07-.65-1.05-.69-2.12-1.4c-1.38-1-2.81-2-4.17-3a107.9,107.9,0,0,1-15.74-14.64c-2.43-2.77-4.72-5.71-6.92-8.75l-1.59-2.32c-.26-.39-.54-.78-.78-1.16l-.73-1.16-.74-1.15c-.24-.38-.48-.75-.74-1.21l-1.52-2.63-.19-.33-.24-.09-.17,0,0,0-.18-.66-.6-1.29c-.44-.83-.87-1.68-1.27-2.54l-1.24-2.56c-.38-.87-.76-1.74-1.15-2.6a107.5,107.5,0,0,1-4-10.59l-.44-1.35-.39-1.35c-.25-.9-.52-1.8-.76-2.7-.45-1.81-.93-3.61-1.29-5.43s-.7-3.62-1-5.43c-.14-.91-.26-1.81-.39-2.71-.06-.45-.12-.91-.19-1.36s-.09-.9-.14-1.35c-.43-3.59-.59-7.15-.67-10.65,0-1.76,0-3.49,0-5.2s.16-3.4.27-5.08a115.78,115.78,0,0,1,3-18.68,112.8,112.8,0,0,1,5-15.35A119,119,0,0,1,612,902.7c.83-1.52,1.57-2.9,2.27-4s1.25-2.14,1.78-2.94c.27-.42.51-.78.71-1.1a1.69,1.69,0,0,0-.21-2.08l-.24-.21-.11-.08a1.7,1.7,0,0,0-2.31.34l-.8,1c-.59.73-1.3,1.71-2.12,2.85s-1.74,2.48-2.76,4a125.39,125.39,0,0,0-6.62,11.24,120.42,120.42,0,0,0-6.73,15.63,123.72,123.72,0,0,0-5.1,19.62c-.28,1.79-.6,3.59-.8,5.44s-.42,3.72-.59,5.62c-.28,3.8-.46,7.7-.37,11.68,0,.49,0,1,0,1.49s0,1,.07,1.5c0,1,.08,2,.14,3,.17,2,.3,4.06.57,6.1s.54,4.09.85,6.15c.18,1,.38,2.05.57,3.08l.3,1.55.34,1.54a121.13,121.13,0,0,0,3.37,12.29c.35,1,.69,2,1,3l1.14,3c.37,1,.79,2,1.21,3l.62,1.49.31.74.39.82,1.27,2.76c.19.45.45,1,.7,1.45l.76,1.5.76,1.49c.25.5.52,1,.78,1.43l1.56,2.83c2.19,3.73,4.52,7.37,7,10.85a126.4,126.4,0,0,0,16.79,18.88c1.49,1.43,3.08,2.73,4.61,4.06l2.35,1.91,1.18.94c.39.3.8.59,1.19.9,3.16,2.44,6.42,4.59,9.62,6.64a133.85,133.85,0,0,0,19.14,9.82,128.57,128.57,0,0,0,17.36,5.78,130.06,130.06,0,0,0,13.92,2.77c1.95.27,3.7.51,5.23.64s2.83.29,3.89.35C709.18,1093.63,718,1093.81,718,1093.81Z"/><path class="cls-99" d="M710.5,1070.12a6.36,6.36,0,0,0,1-.53l-1-3.67-2.57.07c-.84,0-1.87,0-3.09,0s-2.62,0-4.19-.12a104.32,104.32,0,0,1-25.78-4.47,110.68,110.68,0,0,1-16.43-6.55c-2.8-1.45-5.68-3-8.49-4.75l-1.07-.65-1.05-.69-2.12-1.4c-1.38-1-2.81-2-4.17-3a107.9,107.9,0,0,1-15.74-14.64c-2.43-2.77-4.72-5.71-6.92-8.75l-1.59-2.32c-.26-.39-.54-.78-.78-1.16l-.73-1.16-.74-1.15c-.24-.38-.48-.75-.74-1.21l-1.52-2.63-.19-.33-.24-.09-.17,0,0,0-.18-.66-.6-1.29c-.44-.83-.87-1.68-1.27-2.54l-1.24-2.56c-.38-.87-.76-1.74-1.15-2.6a107.5,107.5,0,0,1-4-10.59l-.44-1.35-.39-1.35c-.25-.9-.52-1.8-.76-2.7-.45-1.81-.93-3.61-1.29-5.43s-.7-3.62-1-5.43c-.14-.91-.26-1.81-.39-2.71-.06-.45-.12-.91-.19-1.36s-.09-.9-.14-1.35c-.43-3.59-.59-7.15-.67-10.65,0-1.76,0-3.49,0-5.2s.16-3.4.27-5.08a115.78,115.78,0,0,1,3-18.68,112.8,112.8,0,0,1,5-15.35A119,119,0,0,1,612,902.7c.83-1.52,1.57-2.9,2.27-4s1.25-2.14,1.78-2.94c.27-.42.51-.78.71-1.1a1.69,1.69,0,0,0-.21-2.08c-6.63,10.6-33.78,58.51-14.51,105.62C623.85,1051.54,681.73,1083.05,710.5,1070.12Z"/><polygon class="cls-100" points="722.46 1103 761.7 1062.95 692.63 1053.1 722.46 1103"/><polygon class="cls-101" points="722.46 1103 761.7 1062.95 692.63 1053.1 722.46 1103"/><polygon class="cls-102" points="724.04 1106.19 761.86 1063.3 694.46 1056.16 724.04 1106.19"/><path class="cls-88" d="M537.51,802.31A146.24,146.24,0,0,1,520.8,818s-22.39-6.71-34.28-1.79c-3.77,1.56-6.72,5.92-8.73,11.32-.15-.72-3.61-20.71,38.51-24.25C523.17,802.67,530.33,802.4,537.51,802.31Z"/><path class="cls-62" d="M735.94,997.47a1.85,1.85,0,1,1-1.85-1.85A1.85,1.85,0,0,1,735.94,997.47Z"/><path class="cls-62" d="M744.75,997.47a1.85,1.85,0,1,1-1.85-1.85A1.85,1.85,0,0,1,744.75,997.47Z"/><path class="cls-62" d="M754.1,997.47a1.85,1.85,0,1,1-1.85-1.85A1.85,1.85,0,0,1,754.1,997.47Z"/></g></g></g></svg>