<svg xmlns="http://www.w3.org/2000/svg" viewBox="0 0 1366 768"><defs><style>.cls-1{fill:#fff;}.cls-2{fill:#e7e9ea;}.cls-3{fill:#79d6f7;opacity:0.24;}.cls-4{opacity:0.35;}.cls-5{opacity:0.2;}.cls-16,.cls-6{fill:#226298;}.cls-7{opacity:0.17;}.cls-12,.cls-8{fill:#ea553a;}.cls-8{opacity:0.21;}.cls-9{fill:#20639b;opacity:0.13;}.cls-10,.cls-14,.cls-15{fill:#f4d35c;}.cls-10{opacity:0.57;}.cls-11{opacity:0.29;}.cls-13{opacity:0.27;}.cls-15{opacity:0.38;}.cls-16{opacity:0.11;}</style></defs><g id="Fondo"><rect class="cls-1" x="300.72" y="-297.28" width="764.56" height="1366" transform="translate(297.28 1068.72) rotate(-90)"/><path class="cls-2" d="M0,881H1366V594.5c-70-19.25-162.38-27.62-249.16-25-105.14,3.12-204.42,21.68-299.73,41.4s-190.44,41.07-293.65,50.42C338.14,678.06,136.17,652.07,0,594.57Z"/><path class="cls-3" d="M0,670.94c188.34,41.75,433,49.6,637.74,19,96.85-14.46,184.37-36.71,284.11-48.33C1069,624.53,1237,640.46,1366,671V876H0Z"/><path class="cls-2" d="M1365.88-227.29H-.12V145.13c70,25,162.38,35.9,249.16,32.56,105.14-4.05,204.42-28.18,299.73-53.81S739.21,70.49,842.42,58.34c185.32-21.83,387.29,12,523.46,86.7Z"/><path class="cls-3" d="M1366,71C1177.65,12.25,932.93-8.55,728.21,34.45c-96.86,20.35-184.39,51.65-284.14,68C296.92,126.56,128.91,114.25-.12,71.28V-227.29H1366Z"/></g><g id="Mracas_de_agua" data-name="Mracas de agua"><g class="cls-4"><path class="cls-1" d="M1249.82,641.34a41.75,41.75,0,0,0,12.88-46.4c-6.21-17.57-24.3-28-42.49-26.59-12.57,1-21.51,8.68-30.85,16.15l-22,17.6c-5.44,4.35-12.18-4.09-6.74-8.43,21.08-16.85,41.85-39.64,71.32-35.72,20,2.67,37.35,18.43,42.37,37.92,5.19,20.09-1.88,40.67-17.7,53.91-5.35,4.47-12.08-4-6.75-8.44Z"/><path class="cls-1" d="M1234.54,663.54c-5.1-7.15-6.35-15.13-2.58-23.2,2.84-6.08,7.9-9.48,12.08-14.4,8.91-10.5,8-28.13-2.31-37.16-9.14-8-23-7.54-32.18-.17q-15.81,12.63-31.6,25.3c-11.39,9.15-24,8.84-34-2.79-4.55-5.29,3.91-12,8.43-6.75,10.83,12.61,21.51-1,30.64-8.35,10-8,21.07-20.11,34-22.94,25.12-5.5,45.52,14.34,43.63,39.16-.78,10.38-6.17,19.39-13.86,26.09-5.56,4.85-8.39,12-3.78,18.46,4,5.66-4.39,12.43-8.43,6.75Z"/><path class="cls-1" d="M1219.47,673.27a32.5,32.5,0,0,1-5.53-35.68c2.48-5.21,6.35-9.46,10.53-13.34q1.65-1.47,3.41-2.82c-1.65,1.31-.51.53-.08,0a40.9,40.9,0,0,0,3.47-4.72c6.53-10.12-.59-24.24-12.5-16-9.24,6.44-17.73,13.93-23.85,23.46-12.72,19.79-5.19,41.77,8.26,59,4.29,5.48-4.15,12.23-8.44,6.74-15.16-19.38-23.27-43.63-11.57-66.77,6.47-12.79,16.9-21.51,27.92-30.14,10.24-8,22.59-8,30.56,3.11,6.93,9.65,2.4,22-4.12,30.44s-16.82,13.56-15.93,25.91a23.68,23.68,0,0,0,6.31,14c4.78,5.07-3.7,11.78-8.44,6.74Z"/><path class="cls-1" d="M1224.55,615.21a50.33,50.33,0,0,0-15,15.94c-9.47,15.39-3.65,32.46,6.66,45.72,4.27,5.49-4.16,12.24-8.44,6.74-12.38-15.92-18.52-35.63-9.28-54.59a57,57,0,0,1,19.32-22.25c5.78-3.77,12.58,4.63,6.74,8.44Z"/><path class="cls-1" d="M1179.35,693.48a65,65,0,0,1-16.09-34,48.44,48.44,0,0,1,.23-14c.38-2.55.73-5,.9-7.6.29-4.14-2.13-2.86-5.13-2.59-9.59.87-19.68-.74-25.67-8.93-4.1-5.61,4.32-12.38,8.44-6.75,6.75,9.24,18,2,26.84,5.42,9,3.46,6.05,16.93,5,23.83-2,13.38,4.84,28.23,13.88,37.9,4.76,5.1-3.71,11.81-8.44,6.75Z"/><path class="cls-1" d="M1138.22,633.51c6.86,5.67,17.73,1.79,20.22,12.88s-1.29,28.39,10.32,35.69c5.91,3.72-.49,12.43-6.35,8.75-9.94-6.25-13.15-20.59-13.65-31.33-.23-4.77,1.38-11.31-4.25-12.42-4.31-.86-9.15-1.94-12.64-4.82-5.36-4.43,1-13.19,6.35-8.75Z"/><path class="cls-1" d="M1138.91,673.32c-4-6.11-7.39-13.2-8.18-20.54-.75-6.9,9.94-8.51,10.69-1.56a32.92,32.92,0,0,0,3.41,10.79,36.41,36.41,0,0,0,2.52,4.56c3.82,5.77-4.59,12.56-8.44,6.75Z"/></g><g class="cls-5"><path class="cls-6" d="M134,81.19,91.79,58.36A34.47,34.47,0,0,0,67,55.3,32.34,32.34,0,0,0,47.08,69.59L22.73,109.14c-9,14.65-3.65,33.45,12,41.91l42.18,22.83A34.17,34.17,0,0,0,93.2,178a34.88,34.88,0,0,0,8.52-1.06,32.34,32.34,0,0,0,19.87-14.29l24.35-39.55a28.75,28.75,0,0,0,3.27-23.28A30.83,30.83,0,0,0,134,81.19Zm3.94,37.56L113.55,158.3c-6.46,10.49-20.83,14.1-32,8L39.35,143.51c-11.2-6.06-15-19.53-8.58-30L55.12,73.94A23.8,23.8,0,0,1,75.46,63,24.58,24.58,0,0,1,87.15,65.9l42.17,22.83a22,22,0,0,1,10.93,13.35A20.63,20.63,0,0,1,137.91,118.75Z"/></g><g class="cls-7"><path class="cls-6" d="M854.37,684.43a38,38,0,0,0,2.57,75.91c.89,0,1.79,0,2.69-.09a38,38,0,1,0-5.26-75.82Zm24.37,56.83A28.82,28.82,0,1,1,855,693.59c.68-.05,1.35-.07,2-.07a28.82,28.82,0,0,1,21.72,47.74Z"/></g><rect class="cls-8" x="268" y="540" width="105" height="105" rx="12" transform="matrix(0.81, -0.58, 0.58, 0.81, -285.46, 298.24)"/><path class="cls-9" d="M981.79,240.48c.09-.07.2-.13.29-.21l5-5a1.89,1.89,0,0,0,.2-.2c.19-.2.2-.26,0-.45a18.64,18.64,0,0,1-4.59-10.05,20.51,20.51,0,0,1,16.42-23.21,19.11,19.11,0,0,1,5.17-.33,20.36,20.36,0,0,1,11.55,4.48l.27.21,3.21-3.21a19.46,19.46,0,0,0-4-2.9,24.83,24.83,0,0,0-11.35-3.19,25.08,25.08,0,0,0-25.26,18.74,24.78,24.78,0,0,0,3.14,19.94c-.09.1-.17.2-.26.29L973.94,243a1.9,1.9,0,0,1-.39.31.61.61,0,0,1-.8-.08c-.47-.45-.92-.91-1.38-1.37a.67.67,0,0,1-.14-.7,1.6,1.6,0,0,1,.45-.69l3.6-3.59,2.09-2.09c.25-.26.25-.26.09-.58a28.52,28.52,0,0,1,20.48-40.77,26.67,26.67,0,0,1,5.92-.43,28.33,28.33,0,0,1,16.56,5.93,27.8,27.8,0,0,1,3.53,3.24l.26.3c-.08.09-.15.19-.23.27l-7,7c-.25.26-.53.49-.81.74a17,17,0,0,0-13.95-6.09,16.58,16.58,0,0,0-11.93,5.64,17,17,0,0,0,.19,23.1,16.59,16.59,0,0,0,12.49,5.46,16.92,16.92,0,0,0,12.54-5.38l2.42,2.37a20.63,20.63,0,0,1-28.14,1.61l-3.2,3.21a19.16,19.16,0,0,0,4,2.91,25.15,25.15,0,0,0,37.54-22.14,25.2,25.2,0,0,0-3.93-13.18c.1-.11.18-.21.28-.3l8-8a1.64,1.64,0,0,1,.36-.29.62.62,0,0,1,.8.08c.46.44.91.9,1.35,1.35a.64.64,0,0,1,.14.77,2.15,2.15,0,0,1-.44.64l-5.84,5.84a1.25,1.25,0,0,1-.23.23c-.17.14-.15.28-.07.47.45,1,.92,2,1.31,3.09a26.7,26.7,0,0,1,1.51,6.66,29.4,29.4,0,0,1,0,6.15,28.5,28.5,0,0,1-22.22,24.62,24.44,24.44,0,0,1-3.63.54c-1,.05-1.94.14-2.91.12a28.5,28.5,0,0,1-15.95-5.19,27.9,27.9,0,0,1-4.52-4l-.19-.21s0,0,0-.06Z"/><circle class="cls-10" cx="388.74" cy="607.26" r="32.61" transform="translate(-76.98 56.81) rotate(-7.61)"/><g class="cls-11"><path class="cls-12" d="M906.93,76.82,888.71,65.73A13.41,13.41,0,0,0,878,64.24a14.15,14.15,0,0,0-8.58,6.94L858.89,90.39a15.37,15.37,0,0,0,5.17,20.36l18.22,11.09a13.46,13.46,0,0,0,7,2,13.24,13.24,0,0,0,3.68-.52,14.15,14.15,0,0,0,8.58-6.94L912.1,97.18a15.49,15.49,0,0,0,1.41-11.31A14.68,14.68,0,0,0,906.93,76.82Zm1.7,18.25-10.52,19.2a9.85,9.85,0,0,1-13.83,3.91l-18.21-11.09a11,11,0,0,1-3.71-14.58L872.88,73.3A10,10,0,0,1,881.66,68a9.66,9.66,0,0,1,5.05,1.43l18.21,11.09A10.54,10.54,0,0,1,909.64,87,11.14,11.14,0,0,1,908.63,95.07Z"/></g><g class="cls-13"><path class="cls-14" d="M101.6,325.44a24.38,24.38,0,0,0-26.94-8.1C64.32,320.75,58,331.19,58.6,341.83c.44,7.36,4.8,12.68,9.05,18.23l10,13.09c2.47,3.23-2.54,7.06-5,3.83-9.58-12.52-22.64-24.94-20-42.1a30.39,30.39,0,0,1,22.67-24.29,30.8,30.8,0,0,1,31.28,11c2.54,3.18-2.47,7-5,3.84Z"/><path class="cls-14" d="M114.38,334.64c-4.24,2.89-8.91,3.52-13.58,1.22-3.52-1.74-5.44-4.73-8.27-7.23-6-5.34-16.33-5-21.73.88-4.77,5.24-4.69,13.32-.5,18.8q7.19,9.39,14.4,18.77c5.2,6.77,4.86,14.16-2.06,19.86-3.14,2.58-7-2.44-3.83-5,7.5-6.16-.34-12.57-4.51-18-4.57-5.94-11.48-12.55-13-20.14-2.91-14.74,8.93-26.41,23.41-25a22.63,22.63,0,0,1,15.07,8.42c2.76,3.31,6.9,5.05,10.74,2.44,3.35-2.28,7.2,2.72,3.83,5Z"/><path class="cls-14" d="M119.88,343.56A19,19,0,0,1,99,346.35,26.24,26.24,0,0,1,91.3,340c-.55-.65-1.09-1.33-1.59-2,.74,1,.3.31,0,0A23.75,23.75,0,0,0,87,336c-5.83-3.94-14.17,0-9.47,7.11,3.65,5.47,7.92,10.53,13.41,14.22,11.4,7.67,24.34,3.55,34.55-4.1,3.25-2.44,7.09,2.57,3.83,5-11.51,8.62-25.77,13.06-39.15,5.94-7.39-3.94-12.35-10.14-17.26-16.68-4.56-6.08-4.4-13.3,2.19-17.82,5.73-3.92,12.88-1.13,17.74,2.78s7.71,10,14.94,9.63a13.86,13.86,0,0,0,8.26-3.51c3-2.73,6.84,2.3,3.83,5Z"/><path class="cls-14" d="M86,339.88a29.65,29.65,0,0,0,9.12,9c8.88,5.72,18.92,2.53,26.79-3.33,3.27-2.43,7.11,2.58,3.84,5-9.45,7-21,10.38-32,4.75A33.47,33.47,0,0,1,81,343.71c-2.13-3.42,2.87-7.29,5-3.83Z"/><path class="cls-14" d="M131.19,367.25a38,38,0,0,1-20.06,9,28.47,28.47,0,0,1-8.19-.31c-1.48-.25-2.93-.49-4.43-.62-2.41-.22-1.7,1.21-1.57,3,.39,5.61-.68,11.48-5.54,14.88-3.33,2.33-7.18-2.68-3.84-5,5.48-3.83,1.42-10.5,3.5-15.61s10-3.33,14-2.66c7.79,1.32,16.55-2.48,22.32-7.64,3-2.71,6.85,2.32,3.83,5Z"/><path class="cls-14" d="M95.65,390.54c3.4-3.94,1.27-10.34,7.78-11.66s16.57,1.11,21-5.59c2.25-3.41,7.26.44,5,3.82-3.77,5.73-12.19,7.43-18.46,7.59-2.79.07-6.6-.95-7.31,2.33-.56,2.5-1.25,5.32-3,7.32-2.65,3.08-7.68-.73-5-3.81Z"/><path class="cls-14" d="M118.92,390.62a27.75,27.75,0,0,1-12.1,4.53c-4,.35-4.85-5.91-.78-6.27a19.06,19.06,0,0,0,6.34-1.86,20.92,20.92,0,0,0,2.7-1.41c3.41-2.16,7.28,2.83,3.84,5Z"/></g><circle class="cls-15" cx="1276.41" cy="87.27" r="23.59" transform="translate(-0.32 169.76) rotate(-7.61)"/><path class="cls-16" d="M1311.78,459.64c3.25-7,19.24-39,35.73-29.85a15.26,15.26,0,0,1,7.71,14.17c-.66,12-3.39,37.6-14.78,48.77-.65.64-25.12,27-35.31,7.6-8.81-16.73,2.13-33.95,5.26-38.32A14.42,14.42,0,0,0,1311.78,459.64Z"/></g></svg>