<svg xmlns="http://www.w3.org/2000/svg" viewBox="0 0 280 211"><defs><style>.cls-1{fill:#226298;}</style></defs><g id="Capa_1" data-name="Capa 1"><rect class="cls-1" x="113.58" y="146.66" width="53.39" height="43.17" rx="3.31"/><rect class="cls-1" x="50.99" y="182.36" width="179.79" height="15.14" rx="5.22"/><path class="cls-1" d="M242.88,28.09a12.23,12.23,0,0,0-12-12.44H51.68a12.23,12.23,0,0,0-12,12.44V142.9a12.24,12.24,0,0,0,12,12.45H230.87a12.24,12.24,0,0,0,12-12.45ZM233.3,133.68a12.24,12.24,0,0,1-12,12.45h-158a12.24,12.24,0,0,1-12-12.45v-95a12.24,12.24,0,0,1,12-12.45h158a12.24,12.24,0,0,1,12,12.45Z"/><path class="cls-1" d="M65.79,54.48,111,89.16a4.22,4.22,0,0,0,5,0l45.23-34.55Z"/><path class="cls-1" d="M96.56,83.55,65.1,114a6,6,0,0,1-.85-3V58.83Z"/><path class="cls-1" d="M126.12,86.65l31.68,30.67a6.56,6.56,0,0,1-3,.69H72.13a6.32,6.32,0,0,1-2.72-.58L101,86.8l12.44,9.55Z"/><path class="cls-1" d="M162.27,58.83V111a6.08,6.08,0,0,1-.78,2.76L130.21,83.4Z"/><path class="cls-1" d="M205.51,87.11a1,1,0,0,1-.38-.08,1,1,0,0,1-.6-.93V78.78H192.25a1,1,0,0,1,0-2h13.26a1,1,0,0,1,1,1v5.94l13.87-13.94L206.49,56.5v5.22a1,1,0,0,1-1,1H167.1a1,1,0,0,1,0-2h37.43V54.19a1,1,0,0,1,.59-.92,1,1,0,0,1,1.06.19L222.44,69a1,1,0,0,1,.31.72,1,1,0,0,1-.29.73L206.2,86.82A1,1,0,0,1,205.51,87.11Z"/><path class="cls-1" d="M192.52,78.78h-25.2a1,1,0,1,1,0-2h25.2a1,1,0,1,1,0,2Z"/><path class="cls-1" d="M221.58,110.88H191.32a1,1,0,1,1,0-2h30.26a1,1,0,1,1,0,2Z"/><path class="cls-1" d="M183.37,118.41a.94.94,0,0,1-.67-.27l-16.27-15.55a1,1,0,0,1-.31-.72,1,1,0,0,1,.29-.73l16.27-16.36a1,1,0,0,1,1.07-.2,1,1,0,0,1,.6.92v7.33h37.43a1,1,0,0,1,0,2H183.37a1,1,0,0,1-1-1V87.89l-13.87,14,13.87,13.26v-5.22a1,1,0,0,1,1-1h7.83a1,1,0,0,1,0,2h-6.85v6.52a1,1,0,0,1-.59.92A.91.91,0,0,1,183.37,118.41Z"/></g></svg>