<svg xmlns="http://www.w3.org/2000/svg" viewBox="0 0 280 211"><defs><style>.cls-1{fill:#226298;}.cls-2{fill:#fff;}</style></defs><g id="Capa_1" data-name="Capa 1"><rect class="cls-1" x="75.17" y="14.25" width="98.93" height="183.25" rx="21.45"/><rect class="cls-2" x="81.59" y="41.52" width="85.78" height="128.04"/><rect class="cls-2" x="113.6" y="179.36" width="22.4" height="7.98" rx="2.99"/><rect class="cls-2" x="113.6" y="23.73" width="22.4" height="7.98" rx="2.99"/><path class="cls-2" d="M188.78,53.58c-33.07,0-61.8,16.08-61.1,35.23.22,6.13,9.45,17.06,9.45,17.06l-.44,29.54,32.84-13.69S179.7,123,185.23,123c33.07,0,63.42-15.53,63.42-34.69s-26.8-34.69-59.87-34.69"/><path class="cls-1" d="M134.85,138.12l.47-31.61c-2-2.47-9.22-11.66-9.44-17.64-.23-6.29,2.48-12.54,7.83-18.09,11.13-11.54,32.75-19,55.07-19,16.3,0,31.66,3.7,43.24,10.41,11.88,6.88,18.43,16.15,18.43,26.08,0,19.78-29.87,36.49-65.22,36.49-4.95,0-13.35-1-15.45-1.21Zm53.93-82.75c-21.4,0-42,7-52.49,17.91-4.65,4.82-7,10.17-6.82,15.46.16,4.52,6.57,13.06,9,16l.43.52-.41,27.47,30.76-12.82.47.05c.1,0,10.13,1.24,15.48,1.24,32.83,0,61.63-15.37,61.63-32.9C246.86,70.13,220.8,55.37,188.78,55.37Z"/><path class="cls-1" d="M155.14,95.58a14.28,14.28,0,0,0,6.24,1.55c2.58,0,4-1.07,4-2.7s-1.18-2.43-4.17-3.51c-4.14-1.44-6.84-3.73-6.84-7.35,0-4.24,3.55-7.5,9.42-7.5a15.36,15.36,0,0,1,6.36,1.26l-1.26,4.54a11.85,11.85,0,0,0-5.21-1.18c-2.44,0-3.62,1.11-3.62,2.4,0,1.59,1.41,2.29,4.62,3.51,4.4,1.63,6.46,3.92,6.46,7.43,0,4.17-3.21,7.72-10,7.72a16.21,16.21,0,0,1-7.06-1.52Z"/><path class="cls-1" d="M196,91.85c-.11-3-.22-6.61-.22-10.23h-.11c-.78,3.17-1.82,6.72-2.78,9.64l-3,9.71h-4.39l-2.66-9.64c-.81-2.92-1.66-6.46-2.25-9.71h-.08c-.15,3.36-.26,7.2-.44,10.3l-.44,9.46h-5.21L176,76.48h7.49l2.44,8.31c.78,2.89,1.55,6,2.11,8.9h.11c.7-2.87,1.55-6.16,2.36-8.94l2.66-8.27h7.35l1.37,24.9h-5.5Z"/><path class="cls-1" d="M206.37,95.58a14.28,14.28,0,0,0,6.24,1.55c2.58,0,3.95-1.07,3.95-2.7s-1.18-2.43-4.17-3.51c-4.14-1.44-6.84-3.73-6.84-7.35,0-4.24,3.55-7.5,9.42-7.5a15.36,15.36,0,0,1,6.36,1.26l-1.26,4.54a11.85,11.85,0,0,0-5.21-1.18c-2.44,0-3.62,1.11-3.62,2.4,0,1.59,1.41,2.29,4.62,3.51,4.39,1.63,6.46,3.92,6.46,7.43,0,4.17-3.21,7.72-10,7.72a16.21,16.21,0,0,1-7.06-1.52Z"/></g></svg>