<svg id="Capa_1" data-name="Capa 1" xmlns="http://www.w3.org/2000/svg" viewBox="0 0 280 280"><defs><style>.cls-1,.cls-2{fill:#ea553a;}.cls-1{stroke:#ea553a;stroke-miterlimit:10;stroke-width:3px;}.cls-2{font-size:37.2px;font-family:Raleway-Medium, Raleway;font-weight:500;}.cls-3{letter-spacing:-0.01em;}</style></defs><path class="cls-1" d="M138.35,91.67A21.69,21.69,0,1,1,160,70,21.71,21.71,0,0,1,138.35,91.67Zm0-37.3A15.61,15.61,0,1,0,154,70,15.62,15.62,0,0,0,138.35,54.37Z"/><path class="cls-1" d="M167.49,157.52H109.22a14.47,14.47,0,0,1-14.46-14.46V111.81A12.71,12.71,0,0,1,102.83,100l16.32-6.32A3.06,3.06,0,0,1,122.89,95l15.46,26.84L153.82,95a3.07,3.07,0,0,1,3.74-1.32L173.88,100A12.71,12.71,0,0,1,182,111.81v31.25A14.47,14.47,0,0,1,167.49,157.52Zm-48.57-57.19L105,105.71a6.58,6.58,0,0,0-4.18,6.1v31.25a8.39,8.39,0,0,0,8.38,8.38h58.27a8.39,8.39,0,0,0,8.38-8.38V111.81a6.49,6.49,0,0,0-4.18-6.1l-13.9-5.38L141,129.48a3,3,0,0,1-5.27,0Z"/><path class="cls-1" d="M214.14,65a3,3,0,0,1-3-3V32.59H181.71a3,3,0,0,1,0-6.08h32.43a3,3,0,0,1,3,3V62A3,3,0,0,1,214.14,65Z"/><path class="cls-1" d="M214.14,184.17H181.71a3,3,0,0,1,0-6.08H211.1V148.7a3,3,0,1,1,6.08,0v32.43A3,3,0,0,1,214.14,184.17Z"/><path class="cls-1" d="M62.57,65a3,3,0,0,1-3-3V29.55a3,3,0,0,1,3-3H95a3,3,0,1,1,0,6.08H65.61V62A3,3,0,0,1,62.57,65Z"/><path class="cls-1" d="M95,184.17H62.57a3,3,0,0,1-3-3V148.7a3,3,0,1,1,6.08,0v29.39H95a3,3,0,1,1,0,6.08Z"/><path class="cls-1" d="M59.51,108.38H48.75a3,3,0,0,1,0-6.08H59.51a3,3,0,1,1,0,6.08Z"/><path class="cls-1" d="M138.35,29.54a3,3,0,0,1-3-3V15.74a3,3,0,1,1,6.09,0V26.5A3,3,0,0,1,138.35,29.54Z"/><path class="cls-1" d="M228,108.38H217.2a3,3,0,1,1,0-6.08H228a3,3,0,0,1,0,6.08Z"/><path class="cls-1" d="M138.35,198a3,3,0,0,1-3-3V184.18a3,3,0,0,1,6.09,0V195A3,3,0,0,1,138.35,198Z"/><text class="cls-2" transform="translate(15.18 266.27)">1) In<tspan class="cls-3" x="67.84" y="0">f</tspan><tspan x="80.86" y="0">ormación</tspan></text></svg>