<svg id="Capa_1" data-name="Capa 1" xmlns="http://www.w3.org/2000/svg" viewBox="0 0 280 280"><defs><style>.cls-1,.cls-3{fill:#e09b26;}.cls-2{fill:#fff;}.cls-3{font-size:37.2px;font-family:Raleway-Medium, Raleway;font-weight:500;}.cls-4{letter-spacing:-0.03em;}.cls-5{letter-spacing:-0.01em;}</style></defs><circle class="cls-1" cx="141.21" cy="116.58" r="110.72"/><rect class="cls-2" x="98.97" y="51.11" width="74.02" height="137.11" rx="21.45"/><rect class="cls-1" x="103.77" y="71.52" width="64.18" height="95.8"/><rect class="cls-1" x="127.72" y="174.65" width="16.76" height="5.97" rx="2.99"/><rect class="cls-1" x="127.72" y="58.21" width="16.76" height="5.97" rx="2.99"/><path class="cls-2" d="M184,80.54c-24.74,0-46.24,12-45.72,26.36.17,4.59,7.08,12.77,7.08,12.77l-.34,22.1,24.58-10.25s7.61.93,11.75.93c24.74,0,47.45-11.62,47.45-25.95s-20.06-26-44.8-26"/><path class="cls-1" d="M143.62,143.8l.36-23.66c-1.52-1.84-6.91-8.72-7.07-13.19-.17-4.71,1.86-9.39,5.86-13.54,8.33-8.63,24.5-14.21,41.2-14.21,12.2,0,23.69,2.76,32.35,7.78,8.9,5.15,13.79,12.09,13.79,19.52,0,14.8-22.34,27.3-48.79,27.3-3.71,0-10-.72-11.56-.9ZM184,81.88c-16,0-31.42,5.26-39.27,13.4-3.48,3.61-5.25,7.61-5.11,11.57.13,3.38,4.92,9.77,6.76,12l.33.38-.31,20.56,23-9.6.35.05c.08,0,7.58.92,11.59.92,24.56,0,46.11-11.5,46.11-24.61C227.43,92.93,207.93,81.88,184,81.88Z"/><path class="cls-1" d="M158.8,112a10.72,10.72,0,0,0,4.67,1.16c1.94,0,3-.81,3-2s-.89-1.82-3.12-2.63c-3.1-1.08-5.12-2.79-5.12-5.5,0-3.18,2.66-5.61,7.05-5.61a11.33,11.33,0,0,1,4.75.94l-.94,3.4a8.81,8.81,0,0,0-3.89-.88c-1.83,0-2.71.83-2.71,1.79,0,1.19,1.05,1.72,3.45,2.63,3.29,1.22,4.84,2.93,4.84,5.56,0,3.12-2.4,5.77-7.52,5.77a12.2,12.2,0,0,1-5.28-1.13Z"/><path class="cls-1" d="M189.35,109.17c-.08-2.23-.17-4.94-.17-7.65h-.08c-.58,2.38-1.35,5-2.07,7.21L184.76,116h-3.29l-2-7.21c-.6-2.19-1.24-4.84-1.68-7.27h-.06c-.11,2.51-.19,5.39-.33,7.71l-.33,7.08h-3.9l1.19-18.64H180l1.82,6.23c.59,2.15,1.17,4.47,1.58,6.66h.08c.53-2.16,1.16-4.62,1.77-6.69l2-6.2h5.5l1,18.64h-4.12Z"/><path class="cls-1" d="M197.13,112a10.72,10.72,0,0,0,4.67,1.16c1.94,0,3-.81,3-2s-.89-1.82-3.12-2.63c-3.1-1.08-5.12-2.79-5.12-5.5,0-3.18,2.66-5.61,7-5.61a11.42,11.42,0,0,1,4.76.94l-.94,3.4a8.9,8.9,0,0,0-3.9-.88c-1.83,0-2.71.83-2.71,1.79,0,1.19,1.05,1.72,3.45,2.63,3.29,1.22,4.84,2.93,4.84,5.56,0,3.12-2.4,5.77-7.52,5.77a12.24,12.24,0,0,1-5.28-1.13Z"/><text class="cls-3" transform="translate(44.65 274.58)">2)<tspan class="cls-4" x="30.65" y="0"> </tspan><tspan x="38.98" y="0">Telé</tspan><tspan class="cls-5" x="116.27" y="0">f</tspan><tspan x="129.29" y="0">ono</tspan></text></svg>