<svg id="Capa_1" data-name="Capa 1" xmlns="http://www.w3.org/2000/svg" viewBox="0 0 280 280"><defs><style>.cls-1,.cls-3{fill:#143f61;}.cls-2{fill:#fff;}.cls-3{font-size:37.2px;font-family:Raleway-Medium, Raleway;font-weight:500;}.cls-4{letter-spacing:0em;}</style></defs><circle class="cls-1" cx="141.76" cy="116.81" r="110.97"/><rect class="cls-2" x="122.62" y="148.91" width="38.18" height="20.85" rx="3.31"/><rect class="cls-2" x="77.87" y="169" width="128.57" height="10.45" rx="5.22"/><path class="cls-2" d="M215.09,67.1a8.6,8.6,0,0,0-8.59-8.59H78.36a8.59,8.59,0,0,0-8.59,8.59v79.21a8.58,8.58,0,0,0,8.59,8.59H206.5a8.59,8.59,0,0,0,8.59-8.59ZM208.24,140a8.59,8.59,0,0,1-8.59,8.59h-113A8.58,8.58,0,0,1,78.09,140V74.44a8.59,8.59,0,0,1,8.59-8.59h113a8.6,8.6,0,0,1,8.59,8.59Z"/><path class="cls-2" d="M88.45,85.31l32.33,23.92a3.12,3.12,0,0,0,3.54,0L156.66,85.4Z"/><path class="cls-2" d="M110.45,105.36l-22.5,21a4,4,0,0,1-.61-2.06v-36Z"/><path class="cls-2" d="M131.59,107.51l22.65,21.15a4.64,4.64,0,0,1-2.11.48H93a4.71,4.71,0,0,1-2-.4l22.63-21.14,8.9,6.59Z"/><path class="cls-2" d="M157.45,88.31v36a4,4,0,0,1-.56,1.91l-22.37-20.94Z"/><path class="cls-2" d="M188.37,107.82a.67.67,0,0,1-.28-.06.69.69,0,0,1-.43-.64v-5.05h-8.78a.69.69,0,1,1,0-1.38h9.49a.7.7,0,0,1,.7.69v4.09L199,95.85l-9.91-9.15v3.6a.7.7,0,0,1-.7.69H160.9a.69.69,0,1,1,0-1.38h26.76v-4.5a.7.7,0,0,1,1.18-.51l11.64,10.73a.72.72,0,0,1,.22.5.71.71,0,0,1-.21.5l-11.63,11.29A.71.71,0,0,1,188.37,107.82Z"/><path class="cls-2" d="M179.08,102.07h-18a.71.71,0,1,1,0-1.38h18a.71.71,0,1,1,0,1.38Z"/><path class="cls-2" d="M199.86,124.22H178.22a.7.7,0,1,1,0-1.38h21.64a.7.7,0,1,1,0,1.38Z"/><path class="cls-2" d="M172.53,129.42a.73.73,0,0,1-.48-.19L160.42,118.5a.68.68,0,0,1-.22-.5.67.67,0,0,1,.21-.5L172,106.22a.7.7,0,0,1,1.19.49v5.05H200a.7.7,0,1,1,0,1.39H172.53a.69.69,0,0,1-.7-.69v-4.1L161.91,118l9.92,9.15v-3.6a.69.69,0,0,1,.7-.69h5.61a.7.7,0,1,1,0,1.39h-4.91v4.5a.7.7,0,0,1-.7.69Z"/><text class="cls-3" transform="translate(5.21 273.81)">3) <tspan class="cls-4" x="39.95" y="0">C</tspan><tspan x="65.24" y="0">onfirmación</tspan></text></svg>