<svg id="Capa_1" data-name="Capa 1" xmlns="http://www.w3.org/2000/svg" viewBox="0 0 280 280"><defs><style>.cls-1,.cls-3{fill:#226298;}.cls-2{fill:#fff;}.cls-3{font-size:37.2px;font-family:Raleway-Medium, Raleway;font-weight:500;}.cls-4{letter-spacing:-0.01em;}</style></defs><circle class="cls-1" cx="140.23" cy="114.83" r="111.33"/><path class="cls-2" d="M140.1,104.3A18.33,18.33,0,1,1,158.43,86,18.35,18.35,0,0,1,140.1,104.3Zm0-31.52A13.19,13.19,0,1,0,153.29,86,13.21,13.21,0,0,0,140.1,72.78Z"/><path class="cls-2" d="M164.72,160H115.48a12.23,12.23,0,0,1-12.22-12.22V121.31a10.72,10.72,0,0,1,6.82-9.94L123.87,106a2.58,2.58,0,0,1,3.16,1.11l13.07,22.68,13.07-22.68a2.59,2.59,0,0,1,3.16-1.11l13.79,5.34a10.72,10.72,0,0,1,6.82,9.94v26.42A12.23,12.23,0,0,1,164.72,160Zm-41-48.34-11.75,4.55a5.57,5.57,0,0,0-3.53,5.15v26.42a7.09,7.09,0,0,0,7.08,7.08h49.24a7.09,7.09,0,0,0,7.08-7.08V121.31a5.49,5.49,0,0,0-3.53-5.15l-11.74-4.55-14.2,24.64a2.57,2.57,0,0,1-4.46,0Z"/><path class="cls-2" d="M204.15,81.78a2.57,2.57,0,0,1-2.57-2.57V54.38H176.74a2.58,2.58,0,0,1,0-5.15h27.41a2.58,2.58,0,0,1,2.57,2.58v27.4A2.57,2.57,0,0,1,204.15,81.78Z"/><path class="cls-2" d="M204.15,182.47H176.74a2.57,2.57,0,0,1,0-5.14h24.84V152.49a2.57,2.57,0,1,1,5.14,0V179.9A2.57,2.57,0,0,1,204.15,182.47Z"/><path class="cls-2" d="M76.06,81.78a2.57,2.57,0,0,1-2.57-2.57V51.81a2.58,2.58,0,0,1,2.57-2.58h27.4a2.58,2.58,0,0,1,0,5.15H78.63V79.21A2.57,2.57,0,0,1,76.06,81.78Z"/><path class="cls-2" d="M103.46,182.47H76.06a2.57,2.57,0,0,1-2.57-2.57V152.49a2.57,2.57,0,1,1,5.14,0v24.84h24.83a2.57,2.57,0,1,1,0,5.14Z"/><path class="cls-2" d="M73.47,118.42H64.38a2.57,2.57,0,1,1,0-5.14h9.09a2.57,2.57,0,1,1,0,5.14Z"/><path class="cls-2" d="M140.1,51.8a2.58,2.58,0,0,1-2.57-2.58V40.13a2.57,2.57,0,1,1,5.14,0v9.09A2.58,2.58,0,0,1,140.1,51.8Z"/><path class="cls-2" d="M215.82,118.42h-9.09a2.57,2.57,0,1,1,0-5.14h9.09a2.57,2.57,0,0,1,0,5.14Z"/><path class="cls-2" d="M140.1,194.14a2.57,2.57,0,0,1-2.57-2.57v-9.09a2.57,2.57,0,0,1,5.14,0v9.09A2.57,2.57,0,0,1,140.1,194.14Z"/><text class="cls-3" transform="translate(17.28 274.13)">1) In<tspan class="cls-4" x="67.84" y="0">f</tspan><tspan x="80.86" y="0">ormación</tspan></text></svg>