<svg xmlns="http://www.w3.org/2000/svg" xmlns:xlink="http://www.w3.org/1999/xlink" viewBox="0 0 1159.92 660.96"><defs><style>.cls-1{isolation:isolate;}.cls-2{fill:#ecf4fb;}.cls-3{fill:#c75548;}.cls-4{fill:#ced6ec;mix-blend-mode:multiply;}.cls-5{fill:#144061;}.cls-6{fill:#fff;}.cls-7{fill:#dee6e9;}.cls-8{fill:#276399;}.cls-9{fill:#ed9393;}.cls-10{fill:#202553;}.cls-11{fill:#e97979;}.cls-12{fill:#242e6d;}.cls-13{fill:#5a338c;}.cls-14{fill:#e5573d;}.cls-15{fill:#1b2251;}.cls-16{fill:#931c18;}.cls-17{opacity:0.5;}.cls-18{fill:#e44c49;}.cls-19{fill:#e03969;}.cls-20{fill:#6b398e;}.cls-21{fill:#7991c5;}.cls-22{fill:url(#linear-gradient);}.cls-23{fill:url(#linear-gradient-2);}.cls-24{fill:url(#linear-gradient-3);}.cls-25{fill:url(#linear-gradient-4);}.cls-26{fill:url(#linear-gradient-5);}.cls-27{fill:url(#linear-gradient-6);}.cls-28{fill:url(#linear-gradient-7);}.cls-29{fill:url(#linear-gradient-8);}.cls-30{fill:url(#linear-gradient-9);}.cls-31{fill:url(#linear-gradient-10);}.cls-32{fill:url(#linear-gradient-11);}.cls-33{fill:url(#linear-gradient-12);}.cls-34{fill:url(#linear-gradient-13);}.cls-35{fill:url(#linear-gradient-14);}.cls-36{fill:url(#linear-gradient-15);}.cls-37{fill:url(#linear-gradient-16);}.cls-38{fill:url(#linear-gradient-17);}.cls-39{fill:url(#linear-gradient-18);}.cls-40{fill:url(#linear-gradient-19);}.cls-41{fill:url(#linear-gradient-20);}.cls-42{fill:url(#linear-gradient-21);}.cls-43{fill:url(#linear-gradient-22);}.cls-44{fill:url(#linear-gradient-23);}.cls-45{fill:url(#linear-gradient-24);}.cls-46{fill:url(#linear-gradient-25);}.cls-47{fill:url(#linear-gradient-26);}.cls-48{fill:url(#linear-gradient-27);}.cls-49{fill:url(#linear-gradient-28);}.cls-50{fill:url(#linear-gradient-29);}.cls-51{fill:url(#linear-gradient-30);}.cls-52{fill:url(#linear-gradient-31);}.cls-53{fill:url(#linear-gradient-32);}.cls-54{fill:url(#linear-gradient-33);}.cls-55{fill:url(#linear-gradient-34);}.cls-56{fill:url(#linear-gradient-35);}.cls-57{fill:url(#linear-gradient-36);}.cls-58{fill:url(#linear-gradient-37);}.cls-59{fill:url(#linear-gradient-38);}.cls-60{fill:url(#linear-gradient-39);}.cls-61{fill:url(#linear-gradient-40);}.cls-62{fill:url(#linear-gradient-41);}.cls-63{fill:url(#linear-gradient-42);}.cls-64{fill:url(#linear-gradient-43);}.cls-65{fill:url(#linear-gradient-44);}.cls-66{fill:url(#linear-gradient-45);}.cls-67{fill:url(#linear-gradient-46);}.cls-68{fill:url(#linear-gradient-47);}.cls-69{fill:url(#linear-gradient-48);}.cls-70{fill:url(#linear-gradient-49);}.cls-71{fill:url(#linear-gradient-50);}.cls-72{fill:url(#linear-gradient-51);}.cls-73{fill:url(#linear-gradient-52);}.cls-74{fill:url(#linear-gradient-53);}.cls-75{fill:url(#linear-gradient-54);}.cls-76{fill:url(#linear-gradient-55);}.cls-77{fill:url(#linear-gradient-56);}.cls-78{fill:url(#linear-gradient-57);}.cls-79{fill:url(#linear-gradient-58);}.cls-80{fill:url(#linear-gradient-59);}.cls-81{fill:url(#linear-gradient-60);}.cls-82{fill:url(#linear-gradient-61);}.cls-83{fill:url(#linear-gradient-62);}.cls-84{fill:url(#linear-gradient-63);}.cls-85{fill:url(#linear-gradient-64);}.cls-86{fill:url(#linear-gradient-65);}.cls-87{fill:url(#linear-gradient-66);}.cls-88{fill:url(#linear-gradient-67);}</style><linearGradient id="linear-gradient" x1="722.38" y1="265.43" x2="905.63" y2="265.43" gradientUnits="userSpaceOnUse"><stop offset="0" stop-color="#6fc5eb"/><stop offset="0.21" stop-color="#61b1e1"/><stop offset="1" stop-color="#3f4d9a"/></linearGradient><linearGradient id="linear-gradient-2" x1="722.38" y1="326.56" x2="905.63" y2="326.56" xlink:href="#linear-gradient"/><linearGradient id="linear-gradient-3" x1="722.38" y1="337.87" x2="905.63" y2="337.87" xlink:href="#linear-gradient"/><linearGradient id="linear-gradient-4" x1="722.38" y1="349.18" x2="905.63" y2="349.18" xlink:href="#linear-gradient"/><linearGradient id="linear-gradient-5" x1="722.38" y1="360.5" x2="905.63" y2="360.5" xlink:href="#linear-gradient"/><linearGradient id="linear-gradient-6" x1="722.38" y1="371.81" x2="905.63" y2="371.81" xlink:href="#linear-gradient"/><linearGradient id="linear-gradient-7" x1="722.38" y1="383.12" x2="905.63" y2="383.12" xlink:href="#linear-gradient"/><linearGradient id="linear-gradient-8" x1="745.39" y1="362.87" x2="759.02" y2="362.87" gradientTransform="translate(1131.31 -266.61) rotate(92.63)" xlink:href="#linear-gradient"/><linearGradient id="linear-gradient-9" x1="765.87" y1="356.6" x2="767.82" y2="356.6" gradientTransform="translate(1140.64 -287.09) rotate(92.63)" xlink:href="#linear-gradient"/><linearGradient id="linear-gradient-10" x1="771.46" y1="356.34" x2="773.4" y2="356.34" gradientTransform="matrix(-0.05, 1, -1, -0.05, 1146.23, -292.67)" xlink:href="#linear-gradient"/><linearGradient id="linear-gradient-11" x1="778.9" y1="361.33" x2="792.54" y2="361.33" gradientTransform="translate(1164.86 -300.11) rotate(92.63)" xlink:href="#linear-gradient"/><linearGradient id="linear-gradient-12" x1="760.37" y1="363.33" x2="764.52" y2="363.33" gradientTransform="translate(0.21 69.77) rotate(2.73)" xlink:href="#linear-gradient"/><linearGradient id="linear-gradient-13" x1="769.68" y1="358.29" x2="771.63" y2="358.29" gradientTransform="translate(1146.23 -288.95) rotate(92.63)" xlink:href="#linear-gradient"/><linearGradient id="linear-gradient-14" x1="775.27" y1="360.83" x2="777.47" y2="360.83" gradientTransform="translate(1154.61 -291.74) rotate(92.63)" xlink:href="#linear-gradient"/><linearGradient id="linear-gradient-15" x1="749.28" y1="362.87" x2="755.13" y2="362.87" gradientTransform="translate(1131.31 -266.61) rotate(92.63)" xlink:href="#linear-gradient"/><linearGradient id="linear-gradient-16" x1="767.9" y1="360.24" x2="769.85" y2="360.24" gradientTransform="translate(1146.22 -285.22) rotate(92.63)" xlink:href="#linear-gradient"/><linearGradient id="linear-gradient-17" x1="782.8" y1="361.33" x2="788.64" y2="361.33" gradientTransform="translate(1164.86 -300.11) rotate(92.63)" xlink:href="#linear-gradient"/><linearGradient id="linear-gradient-18" x1="764.27" y1="362.27" x2="766.21" y2="362.27" gradientTransform="translate(1144.36 -279.64) rotate(92.63)" xlink:href="#linear-gradient"/><linearGradient id="linear-gradient-19" x1="768.08" y1="364.77" x2="773.92" y2="364.77" gradientTransform="translate(0.21 69.77) rotate(2.73)" xlink:href="#linear-gradient"/><linearGradient id="linear-gradient-20" x1="766.3" y1="365.91" x2="768.25" y2="365.91" gradientTransform="translate(1149.94 -277.77) rotate(92.63)" xlink:href="#linear-gradient"/><linearGradient id="linear-gradient-21" x1="763" y1="373.36" x2="776.12" y2="373.36" gradientTransform="translate(0.21 69.77) rotate(2.73)" xlink:href="#linear-gradient"/><linearGradient id="linear-gradient-22" x1="775.7" y1="367.35" x2="777.64" y2="367.35" gradientTransform="translate(1161.12 -285.21) rotate(92.63)" xlink:href="#linear-gradient"/><linearGradient id="linear-gradient-23" x1="749.8" y1="372.27" x2="751.74" y2="372.27" gradientTransform="translate(1138.75 -255.43) rotate(92.63)" xlink:href="#linear-gradient"/><linearGradient id="linear-gradient-24" x1="755.38" y1="372.64" x2="764.78" y2="372.64" gradientTransform="translate(0.21 69.77) rotate(2.73)" xlink:href="#linear-gradient"/><linearGradient id="linear-gradient-25" x1="770.97" y1="385.75" x2="793.91" y2="385.75" gradientTransform="translate(0.21 69.77) rotate(2.73)" xlink:href="#linear-gradient"/><linearGradient id="linear-gradient-26" x1="746.16" y1="375.99" x2="755.64" y2="375.99" gradientTransform="translate(0.21 69.77) rotate(2.73)" xlink:href="#linear-gradient"/><linearGradient id="linear-gradient-27" x1="790.85" y1="373.18" x2="792.88" y2="373.18" gradientTransform="translate(1182.55 -293.57) rotate(92.63)" xlink:href="#linear-gradient"/><linearGradient id="linear-gradient-28" x1="757.42" y1="375.65" x2="759.36" y2="375.65" gradientTransform="translate(1149.93 -259.15) rotate(92.63)" xlink:href="#linear-gradient"/><linearGradient id="linear-gradient-29" x1="789.16" y1="376.06" x2="791.11" y2="376.06" gradientTransform="translate(1183.48 -288.92) rotate(92.63)" xlink:href="#linear-gradient"/><linearGradient id="linear-gradient-30" x1="752" y1="379.63" x2="753.95" y2="379.63" gradientTransform="translate(1148.06 -249.84) rotate(92.63)" xlink:href="#linear-gradient"/><linearGradient id="linear-gradient-31" x1="755.73" y1="379.42" x2="759.54" y2="379.42" gradientTransform="translate(1152.72 -254.49) rotate(92.63)" xlink:href="#linear-gradient"/><linearGradient id="linear-gradient-32" x1="770.71" y1="379.66" x2="774.52" y2="379.66" gradientTransform="translate(0.21 69.77) rotate(2.73)" xlink:href="#linear-gradient"/><linearGradient id="linear-gradient-33" x1="791.11" y1="379.69" x2="793.22" y2="379.69" gradientTransform="translate(1189.06 -287.05) rotate(92.63)" xlink:href="#linear-gradient"/><linearGradient id="linear-gradient-34" x1="746.59" y1="382.64" x2="752.26" y2="382.64" gradientTransform="translate(0.21 69.77) rotate(2.73)" xlink:href="#linear-gradient"/><linearGradient id="linear-gradient-35" x1="753.95" y1="381.41" x2="755.9" y2="381.41" gradientTransform="translate(1151.78 -249.83) rotate(92.63)" xlink:href="#linear-gradient"/><linearGradient id="linear-gradient-36" x1="755.9" y1="382.17" x2="763.43" y2="382.17" gradientTransform="translate(0.21 69.77) rotate(2.73)" xlink:href="#linear-gradient"/><linearGradient id="linear-gradient-37" x1="765.21" y1="382.71" x2="769.02" y2="382.71" gradientTransform="translate(1165.76 -260.06) rotate(92.63)" xlink:href="#linear-gradient"/><linearGradient id="linear-gradient-38" x1="754.12" y1="385.13" x2="756.07" y2="385.13" gradientTransform="translate(1155.5 -246.1) rotate(92.63)" xlink:href="#linear-gradient"/><linearGradient id="linear-gradient-39" x1="756.07" y1="388.47" x2="765.64" y2="388.47" gradientTransform="translate(0.21 69.77) rotate(2.73)" xlink:href="#linear-gradient"/><linearGradient id="linear-gradient-40" x1="769.02" y1="384.45" x2="770.97" y2="384.45" gradientTransform="translate(1170.42 -260.99) rotate(92.63)" xlink:href="#linear-gradient"/><linearGradient id="linear-gradient-41" x1="746.76" y1="387.21" x2="754.29" y2="387.21" gradientTransform="translate(1152.7 -239.59) rotate(92.63)" xlink:href="#linear-gradient"/><linearGradient id="linear-gradient-42" x1="762.17" y1="392.96" x2="773.51" y2="392.96" gradientTransform="translate(0.21 69.77) rotate(2.73)" xlink:href="#linear-gradient"/><linearGradient id="linear-gradient-43" x1="789.59" y1="385.37" x2="791.53" y2="385.37" gradientTransform="translate(1192.78 -279.6) rotate(92.63)" xlink:href="#linear-gradient"/><linearGradient id="linear-gradient-44" x1="746.93" y1="396.39" x2="760.56" y2="396.39" gradientTransform="translate(1164.8 -233.06) rotate(92.63)" xlink:href="#linear-gradient"/><linearGradient id="linear-gradient-45" x1="780.45" y1="389.52" x2="782.39" y2="389.52" gradientTransform="translate(1187.18 -266.56) rotate(92.63)" xlink:href="#linear-gradient"/><linearGradient id="linear-gradient-46" x1="791.62" y1="389.01" x2="793.57" y2="389.01" gradientTransform="translate(1198.37 -277.73) rotate(92.63)" xlink:href="#linear-gradient"/><linearGradient id="linear-gradient-47" x1="789.84" y1="390.95" x2="791.79" y2="390.95" gradientTransform="translate(1198.36 -274) rotate(92.63)" xlink:href="#linear-gradient"/><linearGradient id="linear-gradient-48" x1="750.83" y1="396.39" x2="756.67" y2="396.39" gradientTransform="translate(1164.8 -233.06) rotate(92.63)" xlink:href="#linear-gradient"/><linearGradient id="linear-gradient-49" x1="764.2" y1="401.46" x2="766.15" y2="401.46" gradientTransform="translate(1181.57 -238.63) rotate(92.63)" xlink:href="#linear-gradient"/><linearGradient id="linear-gradient-50" x1="767.93" y1="401.29" x2="769.87" y2="401.29" gradientTransform="translate(1185.3 -242.35) rotate(92.63)" xlink:href="#linear-gradient"/><linearGradient id="linear-gradient-51" x1="792.13" y1="400.18" x2="794.08" y2="400.18" gradientTransform="translate(1209.53 -266.55) rotate(92.63)" xlink:href="#linear-gradient"/><linearGradient id="linear-gradient-52" x1="790.86" y1="464.94" x2="869.45" y2="464.94" xlink:href="#linear-gradient"/><linearGradient id="linear-gradient-53" x1="790.86" y1="475.3" x2="845.31" y2="475.3" xlink:href="#linear-gradient"/><linearGradient id="linear-gradient-54" x1="807.17" y1="480.43" x2="864.29" y2="480.43" xlink:href="#linear-gradient"/><linearGradient id="linear-gradient-55" x1="790.98" y1="486.62" x2="833.66" y2="486.62" xlink:href="#linear-gradient"/><linearGradient id="linear-gradient-56" x1="790.98" y1="469.79" x2="833.66" y2="469.79" xlink:href="#linear-gradient"/><linearGradient id="linear-gradient-57" x1="837.18" y1="469.79" x2="853.45" y2="469.79" xlink:href="#linear-gradient"/><linearGradient id="linear-gradient-58" x1="855.53" y1="469.79" x2="869.45" y2="469.79" xlink:href="#linear-gradient"/><linearGradient id="linear-gradient-59" x1="790.98" y1="480.5" x2="804.9" y2="480.5" xlink:href="#linear-gradient"/><linearGradient id="linear-gradient-60" x1="838.96" y1="486.56" x2="869.45" y2="486.56" xlink:href="#linear-gradient"/><linearGradient id="linear-gradient-61" x1="850.38" y1="475.3" x2="864.29" y2="475.3" xlink:href="#linear-gradient"/><linearGradient id="linear-gradient-62" x1="790.86" y1="498.96" x2="833.54" y2="498.96" xlink:href="#linear-gradient"/><linearGradient id="linear-gradient-63" x1="839.29" y1="498.96" x2="853.33" y2="498.96" xlink:href="#linear-gradient"/><linearGradient id="linear-gradient-64" x1="855.41" y1="498.96" x2="869.32" y2="498.96" xlink:href="#linear-gradient"/><linearGradient id="linear-gradient-65" x1="790.86" y1="492.41" x2="869.45" y2="492.41" xlink:href="#linear-gradient"/><linearGradient id="linear-gradient-66" x1="790.98" y1="506.02" x2="833.65" y2="506.02" xlink:href="#linear-gradient"/><linearGradient id="linear-gradient-67" x1="835.01" y1="505.96" x2="869.44" y2="505.96" xlink:href="#linear-gradient"/></defs><g class="cls-1"><g id="Capa_1" data-name="Capa 1"><path class="cls-2" d="M105.62,659.33S-29.64,516.53,26.84,348.68C77.53,198,306.74,100.53,428.53,175.14c58.92,36.09,106.52-109,302.06-162.09C875.19-26.22,1089,61.85,1034.7,331.58,993.41,536.65,1198.22,434.41,1153.49,661Z"/><path class="cls-3" d="M314.76,511.72a167.15,167.15,0,0,1-32,23.72c-9.62,5.31-16.82,6-19.49,3.15-2.43-2.59-1.24-8.16,3.42-16.12h0c-4.47,7.62-5.25,13.42-3.05,15.77,2.44,2.61,9.15,1.19,18.41-3.92,9.48-5.23,20.68-13.7,31.53-23.86s20-20.76,25.88-29.88c5.71-8.9,7.57-15.5,5.13-18.11-2.59-2.76-10.32-2-20.18,2.06-11.21,4.59-22.5,13-32.73,22.54-19.22,18-25,27.63-29.26,36.87h0c4.25-9.28,9.07-19.79,28.35-37.84,10.28-9.62,22.14-17.45,33.4-22.07,10.07-4.12,18-4.85,20.79-1.91s.88,9.53-5,18.77A163.19,163.19,0,0,1,314.76,511.72Z"/><path class="cls-4" d="M250.75,630.2l-12.94.16a27,27,0,0,1-27.3-26.62L207,324.26A27,27,0,0,1,233.59,297l12.94-.17A27,27,0,0,0,219.9,324.1l3.55,279.48A27,27,0,0,0,250.75,630.2Z"/><path class="cls-5" d="M384.76,322l3.54,279.48a27,27,0,0,1-26.62,27.3L250.75,630.2a27,27,0,0,1-27.3-26.62L219.9,324.1a27,27,0,0,1,26.63-27.31l110.92-1.4A27,27,0,0,1,384.76,322Z"/><path class="cls-5" d="M384.76,322l3.54,279.48a27,27,0,0,1-26.62,27.3l-12.94.17a27,27,0,0,0,26.62-27.31l-3.54-279.48a27,27,0,0,0-27.3-26.62l12.93-.16A27,27,0,0,1,384.76,322Z"/><rect class="cls-6" x="231.12" y="304.2" width="145.97" height="317.18" rx="15.41" transform="translate(-5.84 3.89) rotate(-0.73)"/><rect class="cls-7" x="277.71" y="606.53" width="51.2" height="2.01" rx="0.61" transform="translate(-7.68 3.89) rotate(-0.73)"/><polygon class="cls-5" points="230.01 552.07 385.89 553.15 382.35 612.35 375.43 619.06 361.52 625.55 240.01 622.9 232.46 615.8 228.95 606.75 230.01 552.07"/><circle class="cls-6" cx="303.03" cy="585.36" r="10.78"/><path class="cls-8" d="M274.64,409.46a29,29,0,0,1,19.78-27c12.26-4.19,25.78,1.17,32.83,11.73,4.87,7.3,4.54,15.48,4.49,23.8l-.12,19.62c0,4.84,7.49,4.89,7.52,0,.11-18.77,3.59-39.93-11.25-54.32-10.11-9.8-26.16-12.45-39-6.79a36.67,36.67,0,0,0-21.79,32.91c-.14,4.84,7.37,4.88,7.51,0Z"/><path class="cls-8" d="M269.12,427.37c6.09-.29,11-3.05,13.77-8.59,2.09-4.17,1.77-8.4,2.65-12.8,1.89-9.39,11.91-16.5,21.28-14.76,8.29,1.55,14,9.28,14,17.49q-.09,14.09-.19,28.16c-.09,10.16,5.54,16.94,16.2,17.38,4.84.2,4.87-7.32,0-7.52-11.55-.47-8.71-12.17-8.65-20.32.08-8.93,1.9-20.17-2.13-28.44-7.83-16.09-27.45-18.67-40.19-6.94-5.32,4.9-7.91,11.73-8.26,18.81-.25,5.12-2.93,9.75-8.45,10-4.82.24-4.89,7.76,0,7.51Z"/><path class="cls-8" d="M270.3,439.8a22.62,22.62,0,0,0,21.86-12.37,31.46,31.46,0,0,0,2.74-11.5c.06-1,.08-2.05.06-3.07,0,1.46-.06.51,0,.05a29.12,29.12,0,0,1,1.08-3.92c2.71-7.93,13.49-10.13,14.1-.05.46,7.81,0,15.68-2.52,23.13-5.32,15.47-20.57,20.84-35.76,20.91-4.84,0-4.88,7.54,0,7.51,17.12-.07,33.85-6.1,41.44-22.47,4.19-9,4.45-18.5,4.41-28.23,0-9-5.36-15.79-14.87-15.34-8.25.38-13,8.17-14.84,15.37s-.15,15-7.27,19.87a16.48,16.48,0,0,1-10.37,2.59c-4.83-.42-4.84,7.1,0,7.52Z"/><path class="cls-8" d="M299.8,412a35.15,35.15,0,0,1-2.23,15.06c-4.32,11.8-16.15,16-27.83,16.08-4.84,0-4.89,7.55,0,7.51,14-.1,27.43-5.25,33.8-18.47A39.63,39.63,0,0,0,307.31,412c-.43-4.78-7.95-4.87-7.51,0Z"/><path class="cls-8" d="M276.56,470.41a45.23,45.23,0,0,0,25.5-5.88,33.71,33.71,0,0,0,7.55-6.17c1.23-1.3,2.44-2.57,3.77-3.77,2.13-1.94,2.48-.07,3.62,1.69,3.66,5.6,8.89,10.42,15.95,10.16,4.82-.18,4.89-7.7,0-7.52-7.95.3-8.88-8.95-14.53-12.31s-11.85,4-15.18,7.52c-6.46,6.84-17.5,9.52-26.67,8.76-4.84-.4-4.85,7.12-.05,7.52Z"/><path class="cls-8" d="M327,467c-6.06-1.3-8.62-8.9-15.75-5.48s-14.94,12.94-23.93,9.75c-4.58-1.62-6.58,5.63-2,7.24,7.7,2.73,16.91-1.7,23-6.05,2.71-1.94,5.58-5.64,8.62-3,2.33,2,5,4.16,8.08,4.82,4.72,1,6.78-6.21,2-7.24Z"/><path class="cls-8" d="M305,483.79c5.08-.43,10.39-1.66,14.74-4.39,4.09-2.57.36-9.1-3.76-6.51a23.05,23.05,0,0,1-7.36,2.79,24.27,24.27,0,0,1-3.58.59c-4.79.4-4.87,7.92,0,7.52Z"/><path class="cls-8" d="M254.87,386.43l-4.37,0,0-7.35a11,11,0,0,1,11-10.9l6.87,0,0,4.37-6.87,0a6.6,6.6,0,0,0-6.63,6.56Z"/><path class="cls-8" d="M351.67,387l4.37,0,0-7.35a11,11,0,0,0-10.9-11l-6.87,0,0,4.36,6.87,0a6.59,6.59,0,0,1,6.55,6.64Z"/><path class="cls-8" d="M351.19,470.94l4.37,0-.05,7.35a11,11,0,0,1-11,10.9l-6.87,0,0-4.37,6.87,0a6.6,6.6,0,0,0,6.64-6.55Z"/><path class="cls-8" d="M254.38,470.38l-4.36,0L250,477.7a11,11,0,0,0,10.9,11l6.87,0,0-4.37-6.87,0a6.6,6.6,0,0,1-6.56-6.63Z"/><rect class="cls-7" x="277.78" y="612.51" width="51.2" height="2.01" rx="0.61"/><rect class="cls-5" x="659.01" y="156.49" width="304.98" height="468.36" rx="11"/><rect class="cls-2" x="679.43" y="186.45" width="261.41" height="400.28"/><circle class="cls-6" cx="811.49" cy="611.42" r="9.96"/><path class="cls-9" d="M608.19,615.49l11.3-.15s-17-18.86-22.21-28.46l-14.35-26.49L564.15,565,588,598.81Z"/><path class="cls-10" d="M502.18,99.89c-4.33-2.47-9.52-2.73-13.15-2.52a6.13,6.13,0,0,1,2.77-1.32c-2.25-.33-7.27,1.9-7.27,1.9-31.32-12.07-36.25,34.05-35.59,44.76s-10.52,14.21-26.82,22.66C391,181.47,388.3,203,388.3,203c.24.14.5.3.77.49,1.54-2.61,4.71-7.52,7.39-8.26a110.61,110.61,0,0,0-4.3,10.49c9.17,7,26.33,22.44,38.28,33.4-.05-2.14,0-5.19.82-6.79l1.48,8.89c6.39,5.89,10.81,10,10.81,10-.79-8.66,39.15-54.35,60-68,5.07-7.47,6.87-20.67,7-21.71-.88,10.47-2.67,16.33-4.27,19.64C523.94,165,513.67,106.41,502.18,99.89Z"/><path class="cls-9" d="M502.31,183.94c.11,0-10.06,5.32-17.71,3.23-7.19-2-11.89-11.29-11.79-11.31,3-.6,3.92-4.79,3.86-22.78l1.37.27,23.16,4.59s-.53,7.28-.54,14.15C500.64,177.85,501,183.32,502.31,183.94Z"/><path class="cls-11" d="M501.2,157.94s-.53,7.28-.54,14.15c-13-.37-19.81-12.19-22.62-18.74Z"/><path class="cls-10" d="M475.65,150.83s-6.79-10.73-8.42-19.9c-1.16-6.55,2.17-30.83,26.57-27.34a33.16,33.16,0,0,1,13.75,5.2c5.3,3.58,12.94,11.3,4.39,32.49l-2.22,7.16Z"/><path class="cls-12" d="M593.5,577.62l-12.28.38-13.28.4S537.25,544.23,520,489.46c-.4-1.27-.82-2.56-1.27-3.87-9.42-27.47-28.95-61.95-39.25-93.16-1.63-5-3.11-9.65-4.43-14.08-.42-1.42-.83-2.81-1.22-4.18-7.59-26.36-9.78-43.66-11.81-62.15l65.73.53S548.37,438.86,593.5,577.62Z"/><path class="cls-6" d="M526,269.91c.87,35.36,5.19,50.54,5.19,50.54s-31.82,16.17-69.64,4.27c-.45-.14,2.45-146.11,13.17-150.13,2.47,3.07,9.82,6.06,16.37,5.91,7.53-.16,10-3.39,9.58-6.91C508.67,178.06,524.72,219.29,526,269.91Z"/><path class="cls-9" d="M505.53,164.44s-30.66.5-30.68-18.59-4-31.9,15.58-33,23.39,6.15,24.94,12.53S513.5,163.81,505.53,164.44Z"/><path class="cls-10" d="M514.46,114.73c-4.73-5.74-8.31-4.49-10.32-2.77-6.62-9.9-27.56,4.42-27.56,4.42a40.4,40.4,0,0,0-11.93,21.55s5.58,3.45,18.47.14c10.14-2.61,17.49-17,20.17-23.07,1.82,1.63,5.67,5.37,6.82,9,1.53,4.86,2.22,14.87,5.13,14.53C515.24,138.57,521.57,123.34,514.46,114.73Z"/><path class="cls-9" d="M628.9,196.13s4.32-15.57,21.44-13.37c2,.61,7.71,2.9,4,9.05-2.7,4.53-3.88,2.19-8.13,8.28s-8.88,7.47-14.16,6.74Z"/><path class="cls-9" d="M482.56,614.4c-1.05-5.74-3-15.66-3-15.66l.46-35.21H458.61l8,33.7A34.35,34.35,0,0,1,465,611.3s-2,9.36,7.16,9.53S483.6,620.14,482.56,614.4Z"/><path class="cls-13" d="M465,611.3s-1.82,9.88-.78,14.57h19.36s.08-10.72-1.61-14.81C481.93,611.06,475.4,620.86,465,611.3Z"/><path class="cls-13" d="M619.67,615.43l-.18-.09c-4.53.14-9.08-1.52-13.21-6.17-12.55-14.14-19.6-15.72-22.07-15.71-2.11,4.36-4.45,9.27-1.44,14.8l4.49,17.61h4.85l0-16.62c3.19.84,6.3,2.37,7.69,5.14,3.39,6.78,5.75,11.48,8.9,11.48h21.78S630.11,620.13,619.67,615.43Z"/><path class="cls-14" d="M628.9,196.13s-20.13,11.26-27.32,14.5c-4.09,1.85-13.52,6.27-20.17,9.39a10.38,10.38,0,0,1-12.29-2.65c-10.91-12.75-39.18-40.39-68.35-43.78l0,.07-.17-.07s17.74,43.82,18.26,52.69,2.09,145,2.09,145-1,6.26,11,3.65,15.13-5.21,15.13-5.21-11.48-84-8.35-113.2a64.81,64.81,0,0,0-1.24-18.92c17.77,10.81,38.8,15.61,38.8,15.61s15.73-6.85,37.22-22.6c6.74-4.95,18.59-23.8,18.59-23.8Z"/><path class="cls-15" d="M581.22,578l-13.28.4S537.25,544.23,520,489.46c-.4-1.27-.82-2.56-1.27-3.87-9.42-27.47-28.95-61.95-39.25-93.16-1.63-5-3.11-9.65-4.43-14.08-.42-1.42-.83-2.81-1.22-4.18l10.94-8.31s32.86,53.21,43,103.29C536.67,512.64,572.06,565,581.22,578Z"/><path class="cls-10" d="M546.33,248.41l-.64,2-34.4-11.18a1.35,1.35,0,0,1-.22-1.23,1,1,0,0,1,.87-.76Z"/><path class="cls-12" d="M486,473.81c.18,24.35-1.05,80.34-4.22,103.51H470c-6.5,0-9.75-.09-9.75-.09-7.95-40.3-13.61-73.64-17.73-102.38-3.38-23.58-6.39-43.79-8.7-61.19s-3.94-32.18-4.52-44.57c-.09-1.95-.16-3.85-.2-5.69s0-3.65,0-5.4l64.22-6.26C492.44,394.41,485.84,459.66,486,473.81Z"/><path class="cls-15" d="M470,577.32c-6.5,0-9.75-.09-9.75-.09-7.95-40.3-13.61-73.64-17.73-102.38-3.38-23.58-6.39-43.79-8.7-61.19s-3.94-32.18-4.52-44.57L452.82,383s-15,5.31-9.3,45.47S462,571.64,470,577.32Z"/><path class="cls-14" d="M473,368.69S468.47,385,452.82,383s-37.9-11.48-37.9-11.48,6.69-21.13,15-48.89C440,289,452.45,245.64,458.33,218.31a171.68,171.68,0,0,0,3.19-18.63l13.17-25.09s19.17,43.34,20.21,54.3S473,368.69,473,368.69Z"/><path class="cls-16" d="M472.3,251.84c-.7,17.74-4.87,52.17-42.08,70.6l-.3.14C440,289,452.45,245.64,458.33,218.31,465.16,228.52,472.68,242.08,472.3,251.84Z"/><path class="cls-9" d="M539.63,242.14c0,2.13-6.15,16.95-17,25.8a11.74,11.74,0,0,1-5.11,2.78,224.53,224.53,0,0,1-45.25,10.67V261.76c15.31-1,34.17-2,41.94-2.42a23.1,23.1,0,0,0,3.27-7.83c.93-5.4,3.83-9.4,11.36-10.39S539.65,240,539.63,242.14Z"/><path class="cls-10" d="M643.64,177.72l34.79,22.62a2,2,0,0,1,.61,1.79L662.3,258.77a1,1,0,0,1-1.7.43l-33.75-25.27c-.39-.29-.68-.62-.55-1.09l15.37-54.22A1.46,1.46,0,0,1,643.64,177.72Z"/><path class="cls-16" d="M642.42,176.91l35.09,22.84a1.2,1.2,0,0,1,.49,1.33l-16.74,56.65a1.19,1.19,0,0,1-1.85.61l-33.72-25.27a1.19,1.19,0,0,1-.43-1.27l15.37-54.22A1.19,1.19,0,0,1,642.42,176.91Z"/><polygon class="cls-12" points="642.21 179.4 676.25 201.11 660.79 250.97 628.71 227.76 642.21 179.4"/><path class="cls-10" d="M639.58,240.28a1.39,1.39,0,1,1,1.39,1.39A1.39,1.39,0,0,1,639.58,240.28Z"/><polygon class="cls-6" points="653.74 243.21 637.32 231.74 648.64 185.91 665.06 197.38 653.74 243.21"/><g class="cls-17"><path class="cls-18" d="M657,216.53l-10.87-7.6a.7.7,0,0,1-.12-.68l0-.19c.07-.28.24-.44.38-.34l10.87,7.6c.14.09.19.4.12.68l0,.19C657.31,216.47,657.15,216.62,657,216.53Z"/><path class="cls-18" d="M659,208.47l-10.87-7.6a.7.7,0,0,1-.12-.68l0-.19c.06-.28.23-.44.37-.34l10.87,7.6c.14.09.19.4.12.68l0,.19C659.3,208.41,659.14,208.56,659,208.47Z"/><path class="cls-18" d="M658.31,211.27l-10.87-7.6a.7.7,0,0,1-.12-.68l0-.19c.07-.28.24-.44.37-.34l10.88,7.6a.72.72,0,0,1,.12.68l-.05.19C658.61,211.21,658.45,211.36,658.31,211.27Z"/><path class="cls-18" d="M657.66,213.9l-10.87-7.6a.7.7,0,0,1-.12-.68l0-.19c.07-.28.24-.44.37-.34l10.88,7.6c.14.09.19.4.12.68l-.05.19C658,213.84,657.8,214,657.66,213.9Z"/><path class="cls-18" d="M655.69,221.89l-10.88-7.6a.72.72,0,0,1-.12-.68l0-.19c.07-.28.24-.44.37-.34l10.88,7.6a.72.72,0,0,1,.12.68l-.05.19C656,221.83,655.82,222,655.69,221.89Z"/><path class="cls-18" d="M656.34,219.26l-10.88-7.6a.72.72,0,0,1-.12-.68l0-.19c.07-.28.24-.44.37-.34l10.88,7.6a.72.72,0,0,1,.12.68l0,.19C656.64,219.2,656.47,219.35,656.34,219.26Z"/><path class="cls-18" d="M653.6,230.12,651,228.27a.83.83,0,0,1-.14-.8h0c.08-.34.28-.52.44-.41l2.64,1.85a.85.85,0,0,1,.14.81h0C654,230.05,653.76,230.23,653.6,230.12Z"/><path class="cls-18" d="M645.51,224.46l-2.64-1.84a.83.83,0,0,1-.14-.81h0c.08-.33.28-.51.44-.4l2.64,1.85a.83.83,0,0,1,.14.8h0C645.87,224.4,645.67,224.58,645.51,224.46Z"/></g><path class="cls-19" d="M652.93,237.22a.27.27,0,0,1-.14-.05l-3.85-2.69a1.09,1.09,0,0,1-.19-1l.57-2.32c.08-.34.27-.57.46-.57a.24.24,0,0,1,.14.05l3.85,2.69a1.1,1.1,0,0,1,.19,1.06l-.57,2.31C653.31,237,653.12,237.22,652.93,237.22Zm-3.15-6.63c-.17,0-.33.22-.41.53l-.57,2.32a1,1,0,0,0,.17,1l3.85,2.69a.17.17,0,0,0,.11,0c.17,0,.34-.22.41-.53l.58-2.32a1,1,0,0,0-.18-1l-3.85-2.69A.15.15,0,0,0,649.78,230.59Z"/><path class="cls-19" d="M644.83,231.56a.24.24,0,0,1-.14-.05l-3.86-2.69a1.13,1.13,0,0,1-.19-1.06l.57-2.31c.09-.34.27-.58.46-.58a.24.24,0,0,1,.14,0l3.86,2.69a1.13,1.13,0,0,1,.19,1.06l-.58,2.31C645.2,231.33,645,231.56,644.83,231.56Zm-3.16-6.64c-.16,0-.33.22-.41.54l-.57,2.31a1.1,1.1,0,0,0,.17,1l3.85,2.69a.28.28,0,0,0,.12,0c.16,0,.33-.22.41-.54l.57-2.31a1.1,1.1,0,0,0-.17-1L641.79,225A.28.28,0,0,0,641.67,224.92Z"/><path class="cls-19" d="M649.84,192.23c.2-.82.67-1.29,1.1-1a1.19,1.19,0,0,1,.43.85l-.29.32a.86.86,0,0,0-.28-.58c-.24-.17-.51.12-.64.63s-.06,1,.18,1.2.29.05.46-.08l.09.57a.49.49,0,0,1-.7.1A2,2,0,0,1,649.84,192.23Z"/><path class="cls-19" d="M651.28,193.24c.2-.83.69-1.29,1.12-1a2,2,0,0,1,.37,2c-.2.83-.69,1.29-1.12,1A2.05,2.05,0,0,1,651.28,193.24Zm1.17.82a1.27,1.27,0,0,0-.2-1.22c-.25-.17-.52.12-.65.63s-.05,1,.2,1.21S652.32,194.57,652.45,194.06Z"/><path class="cls-19" d="M653.41,193l.28.2.22,2.25.44-1.79.3.21-.72,2.91-.26-.18-.22-2.33-.46,1.86-.3-.22Z"/><path class="cls-19" d="M655.17,195l-.43-.3.15-.59,1.16.81-.14.59-.43-.3-.57,2.32-.31-.21Z"/><path class="cls-19" d="M656.29,195l.64.45a.9.9,0,0,1,.34.58,1.84,1.84,0,0,1,0,.76c-.12.47-.31.68-.52.7l.08,1.28-.36-.26-.07-1.14-.24-.17-.23.93-.31-.21Zm.27,1.85c.15.11.28,0,.34-.25a.52.52,0,0,0-.14-.59l-.3-.21-.21.84Z"/><path class="cls-19" d="M658.23,196.36l.28.2-.12,3.36-.33-.23,0-.74-.6-.42-.29.57-.31-.22Zm-.1,1.94,0-1.07-.42.81Z"/><path class="cls-19" d="M658.81,198.5c.21-.82.67-1.29,1.11-1a1.22,1.22,0,0,1,.42.85l-.29.32a.86.86,0,0,0-.28-.58c-.24-.17-.51.12-.64.63s-.06,1,.18,1.2.3,0,.46-.08l.09.57a.49.49,0,0,1-.7.1A2.07,2.07,0,0,1,658.81,198.5Z"/><path class="cls-19" d="M660.89,198.94l-.42-.29.14-.6,1.17.82-.15.59-.43-.3-.57,2.32-.31-.21Z"/><path class="cls-20" d="M654.19,233.2a13.83,13.83,0,0,0-1.89.61c0-.13.07-.26.1-.4s0-.24-.09-.14l-.08.13c0-.1,0-.2-.08-.15h0c0-.13-.06-.22-.11-.1l-.07.17a.23.23,0,0,1-.19.14,1.93,1.93,0,0,1,0-.24c0-.06,0-.11,0-.13s0-.13-.06-.12a.38.38,0,0,0-.16.13c0-.14-.11-.12-.17,0v0c0-.1,0-.26-.07-.18a1.38,1.38,0,0,0-.27.57.83.83,0,0,1-.13.18s-.13.15-.15.12a1,1,0,0,1,0-.22v0c.1-.19.54-1.06.29-1.23,0,0-.06,0-.08.05a5.22,5.22,0,0,0-.28.87,1.19,1.19,0,0,0,0,.22l0,.05c-.12.24-.3.58-.47.61a6.54,6.54,0,0,1,.29-1.41c.05-.19.1-.38.16-.57,0,0,0,0,0,0a1.42,1.42,0,0,0,.27-1.07c0-.11-.1-.07-.12,0q-.27.81-.48,1.65a6.24,6.24,0,0,0-.29,1.56.11.11,0,0,0,.06.1c.19,0,.38-.23.54-.52a.47.47,0,0,0,0,.14c.08.12.22,0,.32-.15v.2c0,.07,0,.11.07.1a.44.44,0,0,0,.24-.18c.09,0,.18-.11.25-.25a.83.83,0,0,0,.13-.18.61.61,0,0,0,0,.15c0,.11.11.09.17.07a.36.36,0,0,0,.14-.11.12.12,0,0,0,.1,0s0,0,0,.06.07.08.11,0a.83.83,0,0,0,0,.15l-.28.12c-.06,0-.09.21,0,.25l.23.12s.07,0,.09-.08a1.8,1.8,0,0,0,.05-.19,13.87,13.87,0,0,1,2-.65C654.28,233.43,654.28,233.18,654.19,233.2Zm-2.84.17,0,.1a.14.14,0,0,0,0,.06A1,1,0,0,1,651.35,233.37Zm-.2.22a1.5,1.5,0,0,0,0,.2l-.06,0a1.94,1.94,0,0,1,0-.24,1,1,0,0,0,.1-.17A1,1,0,0,0,651.15,233.59Z"/><path class="cls-20" d="M643.56,224.9c-.28.74-.47,1.57-.71,2.35a8.07,8.07,0,0,1-.41,1.08c-.11.23-.35.72-.5.47a.34.34,0,0,1,0-.25.14.14,0,0,1,0-.06.05.05,0,0,0,.08,0,.37.37,0,0,0,.14-.22.44.44,0,0,0,0-.32c0-.07-.09-.07-.14,0a1,1,0,0,0-.11.28,1.24,1.24,0,0,0-.09.39c0,.21.08.35.17.37s.24-.14.33-.29.21-.39.31-.61c.18-.45.32-1,.46-1.44s.32-1.16.52-1.69C643.65,224.9,643.59,224.81,643.56,224.9Zm-1.45,3.25a.42.42,0,0,1-.05.17l0,0h0s0,0,0,0,0-.08,0-.12S642.11,228,642.11,228.15Z"/><path class="cls-20" d="M644.72,228.64a.23.23,0,0,1-.14,0s0,0,0,0a.47.47,0,0,0,.08-.19c0-.12,0-.19-.1-.16a.3.3,0,0,0-.1.22v.1s-.14.09-.18,0a.7.7,0,0,0,.18-.25.11.11,0,0,0,0-.08c0-.1-.07-.14-.13-.12a.43.43,0,0,0-.14.24.36.36,0,0,0,0,.1.17.17,0,0,1-.17,0h0l.06-.08a.1.1,0,0,0,0-.13c0-.05-.1,0-.12.12a1.11,1.11,0,0,1-.3.25s-.06.06-.08,0a.64.64,0,0,0,.13-.15.56.56,0,0,0,.09-.49s0,0,0,0l-.13.23a1.45,1.45,0,0,0-.09.22.29.29,0,0,0,0,.09l-.12,0h0l.07-.06a.53.53,0,0,0,.14-.3,1,1,0,0,0,0-.35s0,0,0,0a1.21,1.21,0,0,0-.29.53.62.62,0,0,0,0,.23l-.32.28s0,.05,0,0,0-.06,0-.08a1.1,1.1,0,0,1,0-.18,2.24,2.24,0,0,1,.08-.39,1.6,1.6,0,0,1,.1-.31s0,0,0,0a.67.67,0,0,0,.14-.41c0-.06,0-.08-.06,0a2.94,2.94,0,0,0-.4,1.36c0,.12,0,.23.07.21a.3.3,0,0,0,.1-.07l.12-.1.22-.2a.13.13,0,0,0,.12,0,.3.3,0,0,0,.15-.05c0,.06,0,.11.06.12s.09,0,.13-.05l.13-.09.12-.12a.1.1,0,0,0,0,.07l.1,0a.2.2,0,0,0,.11,0s0,0,0,0a.13.13,0,0,0,.15.08.37.37,0,0,0,.15-.08l0,.05c.07.06.15,0,.23,0S644.77,228.62,644.72,228.64Zm-1.47-.23a.87.87,0,0,1,.19-.33.48.48,0,0,1,0,.29l-.09.1-.1.1,0,0A.53.53,0,0,1,643.25,228.41Zm.44-.16a.51.51,0,0,1-.1.21v0A2.4,2.4,0,0,1,643.69,228.25Zm.66.12a.47.47,0,0,1-.11.13C644.27,228.42,644.32,228.34,644.35,228.37Zm.17.11s0,0,0,0l0,.07A.43.43,0,0,1,644.52,228.48Z"/><polygon class="cls-10" points="548.81 250.32 546.33 248.41 545.69 250.39 548.81 250.32"/><path class="cls-14" d="M474.69,174.59s-31.95,2.13-39.6,19.17-10.09,73.73-.35,90.42c0,0,13.41,3.82,37.12-.61l.87-.17s7.57-18.52.79-22.17c0,0-20,1-17.91-5.56S474.69,174.59,474.69,174.59Z"/><rect class="cls-21" x="690.78" y="211.12" width="241.43" height="339.04"/><rect class="cls-6" x="699.26" y="220.51" width="224.46" height="323.37"/><rect class="cls-22" x="722.38" y="260.19" width="183.25" height="10.48"/><rect class="cls-23" x="722.38" y="324.16" width="183.25" height="4.81"/><rect class="cls-24" x="722.38" y="335.47" width="183.25" height="4.81"/><rect class="cls-25" x="722.38" y="346.78" width="183.25" height="4.81"/><rect class="cls-26" x="722.38" y="358.09" width="183.25" height="4.81"/><rect class="cls-27" x="722.38" y="369.4" width="183.25" height="4.81"/><rect class="cls-28" x="722.38" y="380.72" width="183.25" height="4.81"/><rect class="cls-29" x="727.72" y="461.59" width="13.05" height="13.05" transform="translate(264.85 1201.54) rotate(-89.9)"/><rect class="cls-30" x="748.23" y="461.62" width="1.86" height="1.87" transform="translate(285.31 1210.91) rotate(-89.9)"/><rect class="cls-31" x="753.83" y="461.63" width="1.86" height="1.86" transform="translate(290.88 1216.51) rotate(-89.9)"/><rect class="cls-32" x="761.27" y="461.65" width="13.05" height="13.05" transform="translate(298.28 1235.15) rotate(-89.9)"/><rect class="cls-6" x="729.58" y="463.46" width="9.32" height="9.32" transform="translate(264.85 1201.54) rotate(-89.9)"/><polygon class="cls-33" points="742.64 463.47 746.37 463.48 746.36 467.2 744.5 467.2 744.49 469.07 746.36 469.07 746.35 472.8 744.49 472.79 744.48 474.66 742.62 474.65 742.64 463.47"/><rect class="cls-34" x="751.96" y="463.49" width="1.86" height="1.87" transform="translate(287.16 1216.5) rotate(-89.9)"/><rect class="cls-35" x="754.75" y="466.29" width="7.46" height="1.86" transform="translate(289.93 1224.89) rotate(-89.9)"/><rect class="cls-6" x="763.14" y="463.51" width="9.32" height="9.32" transform="translate(298.28 1235.15) rotate(-89.9)"/><rect class="cls-36" x="731.45" y="465.32" width="5.59" height="5.59" transform="translate(264.85 1201.54) rotate(-89.9)"/><rect class="cls-37" x="750.09" y="465.35" width="1.86" height="1.86" transform="translate(283.43 1216.49) rotate(-89.9)"/><rect class="cls-38" x="765" y="465.38" width="5.59" height="5.59" transform="translate(298.28 1235.15) rotate(-89.9)"/><rect class="cls-39" x="746.36" y="467.21" width="1.86" height="1.86" transform="translate(277.85 1214.61) rotate(-89.9)"/><polygon class="cls-40" points="751.95 467.21 753.82 467.22 753.81 469.08 755.68 469.09 755.67 474.68 753.8 474.67 753.81 472.81 751.94 472.81 751.95 470.94 750.08 470.94 750.09 469.08 751.95 469.08 751.95 467.21"/><rect class="cls-41" x="748.22" y="470.94" width="1.86" height="1.87" transform="translate(275.97 1220.19) rotate(-89.9)"/><polygon class="cls-42" points="746.35 472.8 748.21 472.8 748.21 474.66 750.08 474.67 750.08 472.8 751.94 472.81 751.94 474.67 753.8 474.67 753.79 480.27 757.52 480.27 757.52 482.14 753.79 482.13 753.79 483.99 751.92 483.99 751.93 480.26 750.07 480.26 750.06 485.85 746.33 485.85 746.33 483.98 748.2 483.99 748.2 482.12 744.47 482.11 744.47 480.25 746.34 480.25 746.34 478.39 751.93 478.4 751.94 476.54 746.34 476.52 746.35 472.8"/><rect class="cls-43" x="757.53" y="472.82" width="1.86" height="1.86" transform="translate(283.39 1231.39) rotate(-89.9)"/><rect class="cls-44" x="731.43" y="476.5" width="1.86" height="1.86" transform="translate(253.65 1208.96) rotate(-89.9)"/><polygon class="cls-45" points="737.02 476.51 746.34 476.52 746.34 478.39 744.48 478.39 744.47 480.25 742.61 480.25 742.61 478.38 737.02 478.37 737.02 476.51"/><polygon class="cls-46" points="757.53 476.55 761.26 476.55 761.25 478.42 763.12 478.42 763.12 476.56 772.44 476.57 772.44 478.44 770.57 478.43 770.57 482.16 768.7 482.16 768.7 485.88 770.56 485.89 770.55 489.62 768.69 489.61 768.68 493.34 770.55 493.35 770.54 495.21 766.82 495.2 766.81 498.93 768.67 498.93 768.67 500.8 770.53 500.8 770.53 502.67 774.26 502.67 774.26 504.54 764.94 504.52 764.94 502.65 766.8 502.66 766.81 500.79 764.94 500.79 764.94 502.65 763.08 502.65 763.08 500.79 761.21 500.78 761.2 506.38 768.66 506.39 768.66 508.25 753.75 508.23 753.75 506.36 757.48 506.37 757.48 504.51 755.62 504.5 755.63 498.91 757.49 498.91 757.49 497.05 753.76 497.04 753.77 493.31 751.91 493.31 751.91 491.45 753.77 491.45 753.78 489.59 757.51 489.59 757.52 484 759.38 484 759.37 491.46 763.1 491.47 763.1 489.6 764.96 489.61 764.96 491.47 766.82 491.47 766.84 484.02 764.97 484.01 764.97 487.74 761.24 487.74 761.25 482.14 759.38 482.14 759.39 478.41 757.53 478.41 757.53 476.55"/><polygon class="cls-47" points="727.7 478.36 731.43 478.36 731.42 480.23 735.15 480.23 735.16 478.37 737.02 478.37 737.01 482.1 731.42 482.09 731.42 483.95 727.69 483.95 727.69 482.08 729.56 482.09 729.56 480.22 727.7 480.22 727.7 478.36"/><rect class="cls-48" x="771.5" y="479.37" width="3.73" height="1.86" transform="translate(291.72 1252.83) rotate(-89.9)"/><rect class="cls-49" x="738.88" y="480.24" width="1.86" height="1.86" transform="translate(257.35 1220.14) rotate(-89.9)"/><rect class="cls-50" x="770.57" y="482.16" width="1.86" height="1.86" transform="translate(287.06 1253.75) rotate(-89.9)"/><rect class="cls-51" x="733.28" y="483.96" width="1.86" height="1.86" transform="translate(248.04 1218.26) rotate(-89.9)"/><rect class="cls-52" x="737.94" y="483.04" width="1.86" height="3.73" transform="translate(252.68 1222.93) rotate(-89.9)"/><polygon class="cls-53" points="753.79 483.99 755.65 484 755.64 487.73 751.92 487.72 751.92 485.86 753.78 485.86 753.79 483.99"/><rect class="cls-54" x="770.56" y="485.89" width="5.59" height="1.86" transform="translate(285.18 1259.33) rotate(-89.9)"/><polygon class="cls-55" points="729.55 485.82 731.42 485.82 731.41 487.68 733.28 487.69 733.27 489.55 727.68 489.54 727.68 487.68 729.55 487.68 729.55 485.82"/><rect class="cls-56" x="735.14" y="485.83" width="1.86" height="1.86" transform="translate(248.03 1221.98) rotate(-89.9)"/><polygon class="cls-57" points="740.74 485.84 742.6 485.84 742.6 487.7 744.46 487.71 744.46 489.57 737 489.56 737 487.69 740.73 487.7 740.74 485.84"/><rect class="cls-58" x="747.26" y="486.78" width="1.86" height="3.73" transform="translate(258.24 1235.98) rotate(-89.9)"/><rect class="cls-59" x="735.14" y="489.56" width="1.86" height="1.86" transform="translate(244.29 1225.7) rotate(-89.9)"/><polygon class="cls-60" points="744.46 489.57 746.32 489.57 746.32 493.3 744.45 493.3 744.45 495.16 746.31 495.17 746.31 497.03 744.44 497.03 744.44 498.89 742.58 498.89 742.59 493.3 737 493.29 737 491.42 744.45 491.44 744.46 489.57"/><rect class="cls-61" x="750.05" y="489.58" width="1.86" height="1.86" transform="translate(259.15 1240.64) rotate(-89.9)"/><rect class="cls-62" x="730.47" y="488.62" width="1.86" height="7.46" transform="matrix(0, -1, 1, 0, 237.78, 1222.89)"/><polygon class="cls-63" points="748.18 491.44 750.05 491.44 750.03 498.9 753.76 498.91 753.75 502.63 751.89 502.63 751.89 504.5 753.75 504.5 753.75 506.36 750.02 506.36 750.02 504.49 748.16 504.49 748.16 506.35 746.29 506.35 746.29 504.49 742.57 504.48 742.57 502.62 746.3 502.62 746.3 500.76 748.16 500.76 748.17 498.9 746.3 498.89 746.31 497.03 748.17 497.03 748.18 491.44"/><rect class="cls-64" x="770.55" y="491.48" width="1.86" height="1.86" transform="translate(277.72 1263.03) rotate(-89.9)"/><rect class="cls-6" x="759.36" y="493.33" width="5.59" height="5.59" transform="translate(264.7 1257.41) rotate(-89.9)"/><rect class="cls-65" x="727.66" y="495.14" width="13.05" height="13.05" transform="translate(231.23 1234.98) rotate(-89.9)"/><rect class="cls-66" x="761.22" y="495.19" width="1.86" height="1.86" transform="translate(264.7 1257.41) rotate(-89.9)"/><rect class="cls-67" x="772.41" y="495.21" width="1.86" height="1.86" transform="translate(275.84 1268.62) rotate(-89.9)"/><rect class="cls-6" x="729.52" y="497.01" width="9.32" height="9.32" transform="translate(231.23 1234.98) rotate(-89.9)"/><rect class="cls-68" x="770.54" y="497.07" width="1.86" height="1.86" transform="translate(272.12 1268.61) rotate(-89.9)"/><rect class="cls-69" x="731.39" y="498.87" width="5.59" height="5.59" transform="matrix(0, -1, 1, 0, 231.23, 1234.98)"/><rect class="cls-6" x="757.48" y="500.78" width="1.86" height="1.86" transform="translate(255.38 1259.25) rotate(-89.9)"/><rect class="cls-70" x="744.43" y="506.35" width="1.86" height="1.86" transform="translate(236.78 1251.75) rotate(-89.9)"/><rect class="cls-71" x="748.15" y="506.35" width="1.86" height="1.87" transform="translate(240.49 1255.49) rotate(-89.9)"/><rect class="cls-72" x="772.39" y="506.4" width="1.86" height="1.86" transform="translate(264.64 1279.76) rotate(-89.9)"/><rect class="cls-73" x="790.86" y="463.6" width="78.59" height="2.68"/><rect class="cls-74" x="790.86" y="473.96" width="54.45" height="2.68"/><rect class="cls-75" x="807.17" y="479.08" width="57.12" height="2.68"/><rect class="cls-76" x="790.98" y="485" width="42.68" height="3.24"/><rect class="cls-77" x="790.98" y="468.17" width="42.68" height="3.24"/><rect class="cls-78" x="837.18" y="468.07" width="16.28" height="3.45"/><rect class="cls-79" x="855.53" y="468.07" width="13.91" height="3.45"/><rect class="cls-80" x="790.98" y="479.23" width="13.91" height="2.54"/><rect class="cls-81" x="838.96" y="484.88" width="30.48" height="3.36"/><rect class="cls-82" x="850.38" y="474.03" width="13.91" height="2.54"/><rect class="cls-83" x="790.86" y="497.34" width="42.68" height="3.24"/><rect class="cls-84" x="839.29" y="497.24" width="14.03" height="3.45"/><rect class="cls-85" x="855.41" y="497.24" width="13.91" height="3.45"/><rect class="cls-86" x="790.86" y="490.81" width="78.59" height="3.2"/><rect class="cls-87" x="790.98" y="504.4" width="42.68" height="3.24"/><rect class="cls-88" x="835.01" y="504.28" width="34.43" height="3.36"/></g></g></svg>