<svg xmlns="http://www.w3.org/2000/svg" viewBox="0 0 280 211"><defs><style>.cls-1{fill:#226298;}.cls-2{fill:none;stroke:#226298;stroke-linecap:round;stroke-linejoin:round;stroke-width:7px;}</style></defs><g id="Capa_1" data-name="Capa 1"><g id="team"><path class="cls-1" d="M94.73,159.29c-10.89,0-21.18-13-21.18-26.79,0-12.89,8.91-22.25,21.18-22.25s21.19,9.36,21.19,22.25C115.92,146,105.42,159.29,94.73,159.29Zm0-42.95c-8.89,0-15.09,6.64-15.09,16.16,0,10.45,7.47,20.7,15.09,20.7,7.34,0,15.1-10.64,15.1-20.7C109.83,123,103.62,116.34,94.73,116.34Z"/></g><path class="cls-1" d="M97.2,191.79c-22.61,0-33.11-5.71-35.37-18.53-1.6-9.07,1.16-16.93,7.78-22.11a39.94,39.94,0,0,1,10.78-6.1,3,3,0,1,1,2.14,5.7,34.47,34.47,0,0,0-9.16,5.18c-4.84,3.8-6.75,9.42-5.54,16.27,1.47,8.33,7.7,15.64,43.08,12.91a3,3,0,1,1,.47,6.07Q103.61,191.78,97.2,191.79Z"/><path class="cls-1" d="M119.55,158a3,3,0,0,1-2.15-.9c-.8-.68-6.26-4.76-9.84-6a3,3,0,1,1,2-5.75c5,1.73,11.56,6.85,12.16,7.45a3.05,3.05,0,0,1-2.16,5.2Z"/><g id="team-2" data-name="team"><path class="cls-1" d="M198.59,159.29c-10.69,0-21.19-13.27-21.19-26.79,0-12.89,8.92-22.25,21.19-22.25s21.19,9.36,21.19,22.25C219.78,146.27,209.48,159.29,198.59,159.29Zm0-42.95c-8.89,0-15.1,6.64-15.1,16.16,0,10.06,7.76,20.7,15.1,20.7,7.62,0,15.1-10.25,15.1-20.7C213.69,123,207.48,116.34,198.59,116.34Z"/></g><path class="cls-1" d="M196.08,191.8c-4.21,0-8.83-.2-13.89-.58a3,3,0,0,1,.46-6.08c35.21,2.68,41.38-4.64,42.82-12.93.85-4.8.58-11.5-5.5-16.27a34.29,34.29,0,0,0-9.19-5.19,3,3,0,1,1,2.13-5.7,40.21,40.21,0,0,1,10.82,6.1c6.59,5.17,9.35,13,7.74,22.11C229.24,186.09,218.73,191.8,196.08,191.8Z"/><path class="cls-1" d="M173.61,158.1a3,3,0,0,1-2.17-5.15c.61-.61,7.35-5.88,12.5-7.67a3,3,0,1,1,2,5.75c-3.73,1.3-9.36,5.51-10.29,6.31A3.08,3.08,0,0,1,173.61,158.1Z"/><g id="team-3" data-name="team"><path class="cls-1" d="M146.66,163.17c-12.88,0-25.06-15.48-25.06-31.86C121.6,116,132.14,105,146.66,105s25.07,11.08,25.07,26.36C171.73,147.39,159.31,163.17,146.66,163.17Zm0-52.13c-11.17,0-19,8.33-19,20.27,0,13,9.4,25.77,19,25.77,9.22,0,19-13.25,19-25.77C165.64,119.37,157.83,111,146.66,111Z"/></g><path class="cls-1" d="M146.88,204.5a133.17,133.17,0,0,1-19-1.36,26.46,26.46,0,0,1-22-20l-.26-1.09a26.46,26.46,0,0,1,9.39-27,49.67,49.67,0,0,1,13.24-7.48,3,3,0,1,1,2.15,5.7,44,44,0,0,0-11.64,6.57,20.38,20.38,0,0,0-7.22,20.8l.26,1.09a20.35,20.35,0,0,0,16.9,15.37,126.94,126.94,0,0,0,34.45.25l1.27-.18a20.35,20.35,0,0,0,10-36.2L173,159.85a43.58,43.58,0,0,0-11-6.33,3,3,0,1,1,2.23-5.66,49.31,49.31,0,0,1,12.55,7.21l1.43,1.12a26.45,26.45,0,0,1-12.93,47l-1.26.18A135.94,135.94,0,0,1,146.88,204.5Z"/><line class="cls-2" x1="167.69" y1="89.74" x2="183.99" y2="107.93"/><line class="cls-2" x1="111.26" y1="107.92" x2="127.56" y2="89.74"/><path class="cls-2" d="M147.81,81.1c-10.78.83-16-11.68-7.76-18.73a8.54,8.54,0,0,1,4.9-2c10.78-.83,16,11.67,7.77,18.72A8.65,8.65,0,0,1,147.81,81.1Z"/><path class="cls-2" d="M133.22,49.07a19.1,19.1,0,0,1,26.2,0"/><path class="cls-2" d="M119.08,38.69a38.7,38.7,0,0,1,54.48,0"/><path class="cls-2" d="M105,28.36a58.11,58.11,0,0,1,82.66,0"/></g></svg>