<svg xmlns="http://www.w3.org/2000/svg" viewBox="0 0 280 211"><defs><style>.cls-1{fill:none;stroke:#226298;stroke-linecap:round;stroke-linejoin:round;stroke-width:7px;}.cls-2{fill:#226298;}</style></defs><g id="Capa_1" data-name="Capa 1"><polygon class="cls-1" points="149.3 194.42 114.46 204.53 125.86 171.48 223.14 74.57 247.29 98.2 149.3 194.42"/><line class="cls-1" x1="208.02" y1="91.1" x2="231.46" y2="114.04"/><line class="cls-1" x1="130.44" y1="167" x2="153.88" y2="189.94"/><line class="cls-1" x1="42" y1="45.04" x2="235.22" y2="45.04"/><path class="cls-1" d="M96.34,180.9H60.11A17.92,17.92,0,0,1,42,163.18v-130A17.92,17.92,0,0,1,60.11,15.5h157a17.92,17.92,0,0,1,18.12,17.72V68.66"/><rect class="cls-1" x="66.15" y="68.66" width="36.23" height="29.54"/><line class="cls-1" x1="126.53" y1="74.57" x2="186.91" y2="74.57"/><line class="cls-1" x1="66.15" y1="121.83" x2="144.65" y2="121.83"/><line class="cls-1" x1="126.53" y1="98.2" x2="162.76" y2="98.2"/><line class="cls-1" x1="66.15" y1="145.46" x2="120.49" y2="145.46"/><polygon class="cls-2" points="80.2 92.11 73.52 85.58 76.82 82.34 80.2 85.64 91.3 74.78 94.61 78.01 80.2 92.11"/></g></svg>