<svg xmlns="http://www.w3.org/2000/svg" viewBox="0 0 280 211"><defs><style>.cls-1{fill:#226298;}.cls-2,.cls-3,.cls-4{fill:none;stroke:#226298;}.cls-2,.cls-4{stroke-linecap:round;}.cls-2,.cls-3{stroke-miterlimit:10;}.cls-2{stroke-width:8.5px;}.cls-3,.cls-4{stroke-width:6px;}.cls-4{stroke-linejoin:round;}</style></defs><g id="Capa_1" data-name="Capa 1"><path class="cls-1" d="M205.17,42H91A16.06,16.06,0,0,1,91,9.87H205.17a16.06,16.06,0,0,1,0,32.12ZM91,18.34a7.6,7.6,0,0,0,0,15.19H205.17a7.6,7.6,0,1,0,0-15.19Z"/><path class="cls-1" d="M148.1,30.16a4.23,4.23,0,1,1,4.23-4.23A4.24,4.24,0,0,1,148.1,30.16Z"/><path class="cls-1" d="M113.5,30.16a4.23,4.23,0,1,1,4.23-4.23A4.24,4.24,0,0,1,113.5,30.16Z"/><path class="cls-1" d="M182.7,30.16a4.23,4.23,0,1,1,4.23-4.23A4.24,4.24,0,0,1,182.7,30.16Z"/><path class="cls-1" d="M187.21,63.92H97.68a4.26,4.26,0,0,1,0-8.46h89.53a4.26,4.26,0,0,1,0,8.46Z"/><path class="cls-1" d="M183.05,84.46H107.33a4.24,4.24,0,0,1,0-8.46h75.72a4.24,4.24,0,0,1,0,8.46Z"/><path class="cls-1" d="M183.05,105H107.33a4.24,4.24,0,0,1,0-8.46h75.72a4.24,4.24,0,0,1,0,8.46Z"/><path class="cls-1" d="M183.05,125.53H107.33a4.24,4.24,0,0,1,0-8.46h75.72a4.24,4.24,0,0,1,0,8.46Z"/><path class="cls-1" d="M183.05,146.07H107.33a4.24,4.24,0,0,1,0-8.47h75.72a4.25,4.25,0,0,1,0,8.47Z"/><path class="cls-1" d="M149.16,166.6H107.6a4.23,4.23,0,0,1,0-8.46h41.56a4.23,4.23,0,1,1,0,8.46Z"/><path class="cls-1" d="M149.16,187.14H107.6a4.24,4.24,0,0,1,0-8.47h41.56a4.24,4.24,0,1,1,0,8.47Z"/><path class="cls-1" d="M200.18,204.5H96.06c-11.72,0-21.26-6.6-21.26-14.71V81.42c0-1.61,1.89-2.92,4.23-2.92s4.23,1.31,4.23,2.92V189.79c0,4.88,5.74,8.86,12.8,8.86H200.18c7.06,0,12.79-4,12.79-8.86V98.29c0-1.62,1.9-2.92,4.23-2.92s4.24,1.3,4.24,2.92v91.5C221.44,197.9,211.9,204.5,200.18,204.5Z"/><path class="cls-1" d="M167.06,186.42a4.16,4.16,0,0,1-1.78-.4,4.22,4.22,0,0,1-2.39-4.54l3.93-23.23a4.23,4.23,0,1,1,8.34,1.4l-1.35,8,5.18-6.14a4.23,4.23,0,0,1,7.46,2.9l-.17,4.44L197.9,158a4.23,4.23,0,1,1,5.76,6.19L184.53,182a4.23,4.23,0,0,1-7.11-3.26l.09-2.41-7.22,8.56A4.23,4.23,0,0,1,167.06,186.42Z"/><line class="cls-2" x1="79" y1="100.5" x2="79" y2="21.5"/><circle class="cls-3" cx="221" cy="65.5" r="30"/><line class="cls-4" x1="221" y1="52.8" x2="221" y2="76.83"/><line class="cls-4" x1="210" y1="65.5" x2="232.45" y2="65.5"/></g></svg>