<svg xmlns="http://www.w3.org/2000/svg" viewBox="0 0 240.94 240.94"><defs><style>.cls-1{fill:none;stroke-width:8px;}.cls-1,.cls-2{stroke:#21649a;stroke-miterlimit:10;}.cls-2{fill:#21649a;}</style></defs><g id="Capa_2" data-name="Capa 2"><path class="cls-1" d="M172,74.64c0,39.71-28.41,71.9-52.37,71.9-20.41,0-52.37-32.19-52.37-71.9s23.45-59.46,52.37-59.46S172,34.94,172,74.64Z"/><path class="cls-1" d="M149.75,147.32a166.65,166.65,0,0,1-30.12,30.73,166.65,166.65,0,0,1-30.12-30.73C56,163.51,32.07,200.5,32.07,200.5s39.2,15.72,87.56,15.72,87.55-15.72,87.55-15.72S183.27,163.51,149.75,147.32Z"/><path class="cls-2" d="M24.77,42.33,16,42.25l.12-14C16.25,16.7,26.2,7.4,38.33,7.5l13.78.12L52,16l-13.79-.11C31,15.78,25,21.37,24.9,28.31Z"/><path class="cls-2" d="M219,43.94l8.76.07.13-14c.11-11.53-9.67-21-21.8-21.1l-13.78-.12-.07,8.34,13.78.11c7.29.06,13.18,5.76,13.11,12.7Z"/><path class="cls-2" d="M217.51,204.11l8.76.07-.13,14c-.1,11.53-10,20.84-22.18,20.74l-13.78-.12.07-8.33,13.79.12c7.29.06,13.28-5.54,13.34-12.48Z"/><path class="cls-2" d="M23.3,202.49l-8.76-.07-.13,14c-.1,11.53,9.68,21,21.81,21.1l13.78.12.07-8.33-13.78-.12c-7.3-.06-13.18-5.76-13.12-12.69Z"/></g></svg>