<svg xmlns="http://www.w3.org/2000/svg" viewBox="0 0 240.94 240.94"><defs><style>.cls-1{fill:#21649a;stroke-width:3px;}.cls-1,.cls-2{stroke:#21649a;stroke-miterlimit:10;}.cls-2{fill:none;stroke-width:6px;}</style></defs><g id="Capa_2" data-name="Capa 2"><path class="cls-1" d="M68.74,236.76c-4,0-8.09-1.91-12.36-5.83-15.7-14.43-19.75-36.59-20.85-57.67-7.25,8.1-14.66,16-22,23.81l-4-3.81c8.6-9.17,17.32-18.46,25.74-28.06a624.11,624.11,0,0,1,4-86.76c2-17.6,5-36.22,12.61-53.21,2.43-5.42,6.46-13.18,13.41-18C72.45,2.13,81.94,1.58,88.3,5.85c7.15,4.8,9.07,13.9,9.9,20.32,4.86,37.77-9.88,72.38-23.09,94.76-9.81,16.63-21.69,31.83-34.27,46.29.66,21.58,3.65,45.23,19.3,59.61,3.3,3,6.17,4.47,8.86,4.36,4.42-.16,8-4.44,10.9-8.61a236.53,236.53,0,0,0,30.73-61.31,64.59,64.59,0,0,1,5.46-19l5.23,1.83q-2.28,9.33-5.24,18.4a59.07,59.07,0,0,0,.71,18.57c.65,3.24,3.39,14,11.3,15.46,5.9,1.12,12-3.35,18.84-13.67l27.84-42.32-3.51,15.15c-1.24,5.35-3.33,18.12,4.14,21.19,4.25,1.75,8.74-.78,13.94-3.71s10.51-5.93,16.59-5.12l2.86.39-.49,2.84c-.28,1.63-2.53,16,4.9,17.6,3.41.76,6.25-1.6,10.54-5.56,3.37-3.12,6.86-6.34,11.44-7.45l1.31,5.4c-3.18.77-6,3.38-9,6.13-4.23,3.91-9,8.34-15.52,6.91-8.46-1.87-10.54-11.4-9.62-20.71-3.33.49-6.75,2.41-10.31,4.42-5.65,3.18-12,6.78-18.79,4-5.56-2.29-8.57-7.81-8.8-15.72l-12.9,19.61c-5.21,7.91-13.41,18.21-24.53,16.08-7.64-1.46-13.52-8.88-15.71-19.84-.31-1.53-.56-3.07-.75-4.61a242.86,242.86,0,0,1-26.13,48.22c-3.48,5-8.36,10.73-15.26,11ZM78.42,8.5a18.21,18.21,0,0,0-10,3.25C62.58,15.82,59,22.69,56.87,27.51,49.55,43.8,46.7,61.93,44.71,79.08a620.3,620.3,0,0,0-4,79.81c10.89-12.85,21.1-26.3,29.65-40.78,12.77-21.64,27-55,22.36-91.23-1.09-8.5-3.47-13.72-7.48-16.42A12,12,0,0,0,78.42,8.5Z"/><polyline class="cls-2" points="162.68 123.03 162.68 97.43 153.14 97.43 173.06 74.04 192.99 97.43 183.45 97.43 183.45 123.03"/><path class="cls-2" d="M126.82,89c0-.4,0-.82,0-1.24a17.14,17.14,0,0,1,24.41-15.5,22.84,22.84,0,1,1,43.95,9.65A22.83,22.83,0,1,1,208.78,123h-84.6a17.13,17.13,0,0,1,0-34.25A17.64,17.64,0,0,1,126.82,89Z"/></g></svg>