<svg xmlns="http://www.w3.org/2000/svg" viewBox="0 0 240.94 240.94"><defs><style>.cls-1,.cls-2,.cls-3{fill:none;stroke:#21649a;stroke-miterlimit:10;}.cls-1{stroke-width:6px;}.cls-2{stroke-width:4.5px;}.cls-3{stroke-width:3px;}.cls-4{fill:#21649a;}</style></defs><g id="Capa_2" data-name="Capa 2"><rect class="cls-1" x="53.68" y="3.98" width="132.85" height="233.78" rx="7.17"/><rect class="cls-2" x="70.95" y="22.33" width="98.31" height="181.31"/><circle class="cls-2" cx="120.11" cy="219.84" r="8.53"/><polyline class="cls-2" points="108.79 110.62 108.79 147.7 97.75 147.7 120.82 174.78 143.89 147.7 132.84 147.7 132.84 110.62"/><polyline class="cls-2" points="156.38 164.94 156.38 187.64 85.25 187.64 85.25 164.94"/><line class="cls-2" x1="156.38" y1="178.56" x2="85.25" y2="178.56"/><line class="cls-3" x1="106.98" y1="104.3" x2="135.22" y2="104.3"/><line class="cls-3" x1="106.78" y1="98.72" x2="135.03" y2="98.72"/><line class="cls-3" x1="106.78" y1="93.14" x2="135.03" y2="93.14"/><path class="cls-4" d="M137.87,40.18c-2.25,2.22-4.46,4.5-6.78,6.71a14,14,0,0,0-12-5.09,13.74,13.74,0,0,0-9.5,4.61,14.16,14.16,0,0,0,0,19.07,13.75,13.75,0,0,0,10.4,4.62,14,14,0,0,0,10.48-4.49l2.09,2a17.14,17.14,0,0,1-23.47,1.42l-2.61,2.61a20.81,20.81,0,0,0,31.78-5.57A20.31,20.31,0,0,0,141,55.33a20.86,20.86,0,0,0-3.29-10.64l.22-.23,6.66-6.66c.07-.06.13-.13.2-.18a.65.65,0,0,1,.92,0l1,1a.67.67,0,0,1,.14.82,1.89,1.89,0,0,1-.36.48c-1.64,1.65-3.29,3.29-4.94,4.94l-.22.22a23.61,23.61,0,0,1,1.08,19,23,23,0,0,1-10.84,12.62,23.69,23.69,0,0,1-29.13-5l4.7-4.7a17.1,17.1,0,0,1,7.68-27.41,17.15,17.15,0,0,1,16.23,3.1l2.61-2.61a20.73,20.73,0,0,0-25.53-1.24A20.42,20.42,0,0,0,99.68,52a20.87,20.87,0,0,0,2.94,15.27l-.14.18q-3.26,3.26-6.52,6.5a1,1,0,0,1-.36.25.55.55,0,0,1-.64-.12c-.39-.37-.77-.76-1.15-1.14a.58.58,0,0,1-.11-.69,2,2,0,0,1,.4-.56L98.74,67a1.71,1.71,0,0,1,.25-.18,23.62,23.62,0,0,1-.94-19.65,23,23,0,0,1,11.56-12.54A23.64,23.64,0,0,1,137.87,40.18Z"/></g></svg>