<svg xmlns="http://www.w3.org/2000/svg" viewBox="0 0 240.94 240.94"><defs><style>.cls-1{fill:#21649a;}.cls-2{fill:#fff;stroke:#fff;}.cls-2,.cls-3{stroke-miterlimit:10;stroke-width:4px;}.cls-3{fill:none;stroke:#21649a;}</style></defs><g id="Capa_2" data-name="Capa 2"><path class="cls-1" d="M56.2,92.09c.67-23.29,13.85-43.2,34.12-50.68,21.09-7.8,44.28,2.35,56.33,22.23,8.33,13.74,7.72,29.12,7.59,44.74q-.13,18.44-.29,36.86a6.47,6.47,0,1,0,12.91.13c.28-35.27,6.37-75-19.05-102.15-17.31-18.46-44.88-23.53-66.9-13C58.19,41.14,44.06,65,43.29,92c-.25,9.11,12.65,9.22,12.91.13Z"/><path class="cls-1" d="M46.62,125.72c10.48-.53,18.9-5.68,23.7-16.07,3.62-7.83,3.09-15.77,4.63-24C78.24,68,95.48,54.67,111.57,58c14.25,3,24,17.51,23.91,32.94q-.21,26.44-.47,52.91c-.19,19.09,9.44,31.86,27.74,32.74,8.33.41,8.41-13.71.12-14.11-19.84-1-14.9-22.94-14.75-38.24.17-16.79,3.35-37.89-3.53-53.46-13.36-30.28-47-35.24-69-13.27-9.17,9.18-13.66,22-14.29,35.31-.45,9.63-5.09,18.31-14.57,18.78-8.28.43-8.44,14.55-.11,14.12Z"/><path class="cls-1" d="M48.58,149.07C64,150.58,79.38,141,86.21,126c3.06-6.76,4.2-14.16,4.76-21.6.11-1.93.15-3.85.13-5.78,0,2.75-.12,1,0,.11A56.45,56.45,0,0,1,93,91.32c4.69-14.88,23.22-18.95,24.21,0,.76,14.69,0,29.48-4.45,43.46-9.22,29-35.44,39-61.53,39.08-8.31,0-8.43,14.14-.11,14.13,29.41-.05,58.19-11.29,71.3-42,7.25-17,7.75-34.73,7.73-53,0-17-9.13-29.7-25.47-28.92-14.18.68-22.43,15.29-25.58,28.81s-.33,28.23-12.59,37.29A26.5,26.5,0,0,1,48.7,135c-8.3-.82-8.35,13.31-.12,14.12Z"/><path class="cls-1" d="M99.41,97a71.51,71.51,0,0,1-3.91,28.29c-7.48,22.15-27.83,30-47.89,30.05-8.31,0-8.44,14.16-.11,14.12,24.09-.12,47.15-9.72,58.16-34.51a80.69,80.69,0,0,0,6.66-37.83c-.73-9-13.64-9.19-12.91-.12Z"/><path class="cls-1" d="M59.19,206.62c15,1.41,30.88-2.85,43.83-10.9a58.89,58.89,0,0,0,13-11.55c2.12-2.44,4.2-4.81,6.49-7.07,3.68-3.63,4.26-.11,6.22,3.2,6.25,10.56,15.21,19.63,27.33,19.18,8.3-.31,8.44-14.43.12-14.12-13.67.51-15.21-16.87-24.9-23.22-9.9-6.48-20.38,7.44-26.12,14C94,189,75.07,194,59.3,192.5c-8.3-.78-8.35,13.34-.11,14.12Z"/><path class="cls-1" d="M145.91,200.51c-10.4-2.48-14.77-16.78-27-10.39s-25.72,24.24-41.15,18.19c-7.86-3.08-11.33,10.53-3.54,13.58,13.21,5.19,29.06-3.09,39.51-11.24,4.66-3.61,9.62-10.55,14.82-5.66,4,3.74,8.58,7.85,13.86,9.11,8.1,1.93,11.67-11.64,3.54-13.59Z"/><path class="cls-1" d="M108,231.93c8.72-.77,17.86-3.06,25.34-8.16,7-4.81.66-17.1-6.43-12.26a37.32,37.32,0,0,1-12.66,5.2,40.9,40.9,0,0,1-6.14,1.1c-8.23.72-8.42,14.85-.11,14.12Z"/><path class="cls-1" d="M22.35,48.69l-7.5-.07L15,34.82c.09-11.36,8.61-20.52,19-20.42l11.8.11-.07,8.21-11.8-.12c-6.25-.05-11.38,5.45-11.43,12.29Z"/><path class="cls-1" d="M188.65,50.29l7.5.07.11-13.81c.09-11.36-8.28-20.68-18.66-20.78l-11.81-.11-.06,8.21,11.8.11c6.25.06,11.29,5.67,11.23,12.5Z"/><path class="cls-1" d="M187.39,208l7.5.07-.11,13.81c-.09,11.35-8.61,20.52-19,20.42l-11.8-.11.07-8.21,11.8.11c6.25.06,11.37-5.45,11.43-12.29Z"/><path class="cls-1" d="M21.09,206.45l-7.5-.07-.11,13.8c-.09,11.36,8.28,20.69,18.67,20.78l11.8.12.06-8.21-11.8-.11C26,232.7,20.92,227.09,21,220.26Z"/><polyline class="cls-2" points="172.93 150.96 172.93 130.77 166.15 130.77 180.3 112.33 194.46 130.77 187.68 130.77 187.68 150.96"/><path class="cls-2" d="M147.45,124.1c0-.32,0-.65,0-1,0-7.46,5.44-13.51,12.17-13.51a11.11,11.11,0,0,1,5.17,1.28c.36-9.59,7.48-17.24,16.21-17.24,9,0,16.23,8.06,16.23,18A19.63,19.63,0,0,1,196,118.5a15.19,15.19,0,0,1,9.7-3.56c9,0,16.22,8.06,16.22,18s-7.26,18-16.22,18H145.57c-6.72,0-12.16-6.05-12.16-13.51s5.44-13.51,12.16-13.51A11.63,11.63,0,0,1,147.45,124.1Z"/><polyline class="cls-3" points="172.23 146.38 172.23 130.85 166.44 130.85 178.53 116.66 190.62 130.85 184.84 130.85 184.84 146.38"/><path class="cls-3" d="M150.47,125.72q0-.37,0-.75a10.39,10.39,0,0,1,14.82-9.41,13.86,13.86,0,1,1,26.67,5.85,13.86,13.86,0,1,1,8.27,25H148.87a10.39,10.39,0,0,1,0-20.78A10.57,10.57,0,0,1,150.47,125.72Z"/></g></svg>