<svg xmlns="http://www.w3.org/2000/svg" viewBox="0 0 240.94 240.94"><defs><style>.cls-1{fill:none;stroke:#21649a;stroke-miterlimit:10;stroke-width:6px;}.cls-2{fill:#21649a;}.cls-3{fill:#fff;}</style></defs><g id="Capa_2" data-name="Capa 2"><polyline class="cls-1" points="199.73 199.39 199.74 222.16 15.99 222.16 15.99 94.7"/><polyline class="cls-1" points="15.99 94.7 107.87 174.36 199.74 94.7"/><polyline class="cls-1" points="15.99 94.7 107.87 15.03 199.74 94.7 199.73 122.33"/><line class="cls-1" x1="15.99" y1="222.16" x2="89.49" y2="158.43"/><line class="cls-1" x1="126.24" y1="158.43" x2="199.74" y2="222.16"/><polyline class="cls-1" points="45.79 120.54 45.79 82.49 169.94 82.49 169.94 120.54"/><path class="cls-2" d="M123.13,135.63a20.25,20.25,0,0,1-2.47,2.15,21.46,21.46,0,1,1,8.5-20.07c1.77,12.4-12.71,14-11.34,6.53l2.42-14.48-3.79-.69-1,6.12a9.86,9.86,0,0,0-8-6.75c-5.49-.56-10.48,4.2-11.14,10.65s3.26,12.12,8.76,12.68a9.88,9.88,0,0,0,9.27-5c.72,2.44,2.87,4.61,6.58,5.1,7.76,1,13.28-6.55,12.2-14.65A25.47,25.47,0,1,0,126,138.44a20.64,20.64,0,0,0,2-2.37A15.9,15.9,0,0,0,129.3,134"/><path class="cls-3" d="M106,128.37a4.71,4.71,0,0,1-.53,0,5.85,5.85,0,0,1-4.2-2.67,9.3,9.3,0,0,1-1.48-6.23c.44-4.26,3.44-7.6,6.83-7.6a4.58,4.58,0,0,1,.53,0,5.85,5.85,0,0,1,4.2,2.67,9.24,9.24,0,0,1,1.48,6.23C112.35,125,109.35,128.37,106,128.37Z"/><circle class="cls-1" cx="199.73" cy="160.86" r="38.53" transform="translate(8.96 332.24) rotate(-80.78)"/><polygon class="cls-1" points="227.86 149.87 218.87 139.6 195.99 165.73 183.01 150.91 174.02 161.18 195.99 186.26 204.98 175.99 204.98 175.99 227.86 149.87"/></g></svg>