<svg xmlns="http://www.w3.org/2000/svg" viewBox="0 0 240.94 240.94"><defs><style>.cls-1,.cls-2{fill:none;stroke:#21649a;stroke-miterlimit:10;}.cls-1{stroke-width:6px;}.cls-2{stroke-width:4.5px;}</style></defs><g id="Capa_2" data-name="Capa 2"><path class="cls-1" d="M171.74,146.45H106.45l-18.88,20V93.58a22.12,22.12,0,0,1,22.12-22.12h62.05a22.12,22.12,0,0,1,22.12,22.12v30.75A22.12,22.12,0,0,1,171.74,146.45Z"/><path class="cls-1" d="M113.42,109.49a2.1,2.1,0,1,1-2.1-2.1A2.1,2.1,0,0,1,113.42,109.49Z"/><path class="cls-1" d="M142.81,109.49a2.1,2.1,0,1,1-2.1-2.1A2.1,2.1,0,0,1,142.81,109.49Z"/><path class="cls-1" d="M172.21,109.49a2.1,2.1,0,1,1-2.1-2.1A2.1,2.1,0,0,1,172.21,109.49Z"/><path class="cls-1" d="M179.87,157.35V218a17.94,17.94,0,0,1-17.94,17.94h-94A17.94,17.94,0,0,1,50,218V25.27A17.94,17.94,0,0,1,67.91,7.34h94a17.94,17.94,0,0,1,17.94,17.93V62.88"/><polyline class="cls-2" points="162.99 157.35 162.99 202.56 66.86 202.56 66.86 25.27 162.99 25.27 162.99 62.88"/><path class="cls-1" d="M123.26,218.41a8.34,8.34,0,1,1-8.34-8.34A8.33,8.33,0,0,1,123.26,218.41Z"/></g></svg>