<svg id="Capa_1" data-name="Capa 1" xmlns="http://www.w3.org/2000/svg" xmlns:xlink="http://www.w3.org/1999/xlink" viewBox="0 0 280 280"><defs><style>.cls-1{fill:#d0f0f4;}.cls-2{fill:url(#linear-gradient);}.cls-3{fill:#16b6c6;}.cls-4,.cls-6{opacity:0.3;}.cls-5{fill:#fc611f;}.cls-6{fill:#fff;}.cls-7{fill:url(#linear-gradient-2);}</style><linearGradient id="linear-gradient" x1="22" y1="137.92" x2="263.81" y2="137.92" gradientUnits="userSpaceOnUse"><stop offset="0" stop-color="#09005d"/><stop offset="1" stop-color="#1a0f91"/></linearGradient><linearGradient id="linear-gradient-2" x1="205.37" y1="194.16" x2="232" y2="194.16" xlink:href="#linear-gradient"/></defs><rect class="cls-1" x="22" y="41.9" width="241.81" height="192.03"/><path class="cls-2" d="M251.25,54.46V221.37H34.56V54.46ZM263.81,41.9H22v192H263.81V41.9Z"/><rect class="cls-3" x="51.85" y="78.84" width="182.11" height="12.56"/><rect class="cls-3" x="67.45" y="112.56" width="150.91" height="4.19"/><rect class="cls-3" x="67.45" y="137.92" width="150.91" height="4.19"/><rect class="cls-3" x="67.45" y="163.27" width="150.91" height="4.19"/><rect class="cls-3" x="67.45" y="188.62" width="118.11" height="4.19"/><polygon class="cls-4" points="200.45 244.5 218.37 234.19 236.28 244.5 236.28 200.3 200.45 200.3 200.45 244.5"/><polygon class="cls-5" points="200.45 238.63 218.37 228.31 236.28 238.63 236.28 194.43 200.45 194.43 200.45 238.63"/><polygon class="cls-4" points="218.37 174.15 221.78 178.77 226.45 175.43 228.26 180.88 233.74 179.14 233.78 184.89 239.53 184.93 237.79 190.41 243.25 192.22 239.89 196.89 244.53 200.3 239.89 203.71 243.25 208.39 237.79 210.2 239.53 215.68 233.78 215.72 233.74 221.46 228.26 219.73 226.45 225.18 221.78 221.84 218.37 226.46 214.95 221.84 210.28 225.18 208.47 219.73 202.99 221.46 202.95 215.72 197.21 215.68 198.94 210.2 193.48 208.39 196.84 203.71 192.21 200.3 196.84 196.89 193.48 192.22 198.94 190.41 197.21 184.93 202.95 184.89 202.99 179.14 208.47 180.88 210.28 175.43 214.95 178.77 218.37 174.15"/><polygon class="cls-5" points="218.37 168.27 221.78 172.9 226.45 169.55 228.26 175.01 233.74 173.27 233.78 179.02 239.53 179.06 237.79 184.53 243.25 186.35 239.89 191.02 244.53 194.43 239.89 197.84 243.25 202.51 237.79 204.32 239.53 209.8 233.78 209.84 233.74 215.59 228.26 213.85 226.45 219.31 221.78 215.96 218.37 220.59 214.95 215.96 210.28 219.31 208.47 213.85 202.99 215.59 202.95 209.84 197.21 209.8 198.94 204.32 193.48 202.51 196.84 197.84 192.21 194.43 196.84 191.02 193.48 186.35 198.94 184.53 197.21 179.06 202.95 179.02 202.99 173.27 208.47 175.01 210.28 169.55 214.95 172.9 218.37 168.27"/><path class="cls-6" d="M263.81,41.9H22v192S67.45,72.91,263.81,41.9Z"/><path class="cls-7" d="M209.78,202.06l.12-.09,2.08-2.08.09-.08c.07-.09.08-.11,0-.19a7.84,7.84,0,0,1-1.91-4.19,8.54,8.54,0,0,1,6.84-9.66,8.16,8.16,0,0,1,2.15-.13A8.49,8.49,0,0,1,224,187.5l.11.09,1.34-1.34a8.38,8.38,0,0,0-1.68-1.2,10.46,10.46,0,0,0-13.93,14.77l-.11.12-3.18,3.17a.65.65,0,0,1-.16.13.26.26,0,0,1-.33,0c-.2-.19-.39-.38-.58-.58a.28.28,0,0,1-.06-.29.77.77,0,0,1,.19-.28l1.5-1.5.87-.87c.1-.1.1-.1,0-.24a11.86,11.86,0,0,1,8.52-17,11.38,11.38,0,0,1,2.47-.18,11.84,11.84,0,0,1,8.36,3.82l.11.12-.1.12-2.92,2.91-.34.31a7.07,7.07,0,0,0-5.81-2.54,7,7,0,0,0-5,2.35,7.12,7.12,0,0,0,.08,9.62,7.15,7.15,0,0,0,10.42,0l1,1a8.61,8.61,0,0,1-11.71.67L211.76,202a8.14,8.14,0,0,0,1.68,1.22,10.45,10.45,0,0,0,14.12-3.71,10.19,10.19,0,0,0,1.51-5.51,10.58,10.58,0,0,0-1.64-5.49l.11-.12,3.33-3.32A.64.64,0,0,1,231,185a.27.27,0,0,1,.33,0l.56.56a.26.26,0,0,1,.06.32,1,1,0,0,1-.18.27l-2.43,2.43a.43.43,0,0,1-.1.09c-.07.06-.06.12,0,.2.19.43.39.85.55,1.28a11.08,11.08,0,0,1,.62,2.78,11.85,11.85,0,0,1-9.26,12.8,9.66,9.66,0,0,1-1.51.23c-.41,0-.81.06-1.22.05a11.78,11.78,0,0,1-6.63-2.16,11.41,11.41,0,0,1-1.89-1.65l-.08-.09a0,0,0,0,1,0,0Z"/></svg>