<svg id="Capa_1" data-name="Capa 1" xmlns="http://www.w3.org/2000/svg" xmlns:xlink="http://www.w3.org/1999/xlink" viewBox="0 0 280 280"><defs><style>.cls-1{fill:url(#linear-gradient);}.cls-2{fill:url(#linear-gradient-2);}.cls-3{fill:#fcf3b4;}.cls-4{fill:#8f9193;}.cls-5{fill:url(#linear-gradient-3);}.cls-6{fill:url(#linear-gradient-4);}.cls-7{fill:#d18400;}.cls-8{fill:url(#linear-gradient-5);}</style><linearGradient id="linear-gradient" x1="198.56" y1="1169.12" x2="-29.46" y2="1301.13" gradientTransform="matrix(-0.99, 0.15, -0.15, -0.99, 404, 1354.91)" gradientUnits="userSpaceOnUse"><stop offset="0" stop-color="#ffe0b0"/><stop offset="0.39" stop-color="#fcce37"/><stop offset="0.73" stop-color="#fab41c"/><stop offset="1" stop-color="#d99b00"/></linearGradient><linearGradient id="linear-gradient-2" x1="2001.8" y1="592.43" x2="2001.8" y2="580.74" gradientTransform="matrix(0.76, -0.65, -0.65, -0.76, -1035.16, 1937.04)" gradientUnits="userSpaceOnUse"><stop offset="0" stop-color="#fcda4e"/><stop offset="1" stop-color="#e38400"/></linearGradient><linearGradient id="linear-gradient-3" x1="2134.43" y1="554.85" x2="2127.74" y2="659.88" gradientTransform="matrix(0.76, -0.65, -0.65, -0.76, -1035.25, 1937)" gradientUnits="userSpaceOnUse"><stop offset="0" stop-color="#f9e786"/><stop offset="0.25" stop-color="#f9e566"/><stop offset="0.41" stop-color="#f9e786"/><stop offset="0.75" stop-color="#f2c555"/><stop offset="1" stop-color="#f9d64c"/></linearGradient><linearGradient id="linear-gradient-4" x1="167.79" y1="1293.93" x2="193.8" y2="1313.93" gradientTransform="translate(387.95 1386.58) rotate(180)" gradientUnits="userSpaceOnUse"><stop offset="0" stop-color="#ffb012"/><stop offset="0.41" stop-color="#e3b602"/><stop offset="1" stop-color="#ffb012"/></linearGradient><linearGradient id="linear-gradient-5" x1="81.56" y1="1223.76" x2="75.22" y2="1212.8" gradientTransform="translate(391.15 1349.04) rotate(169.57)" gradientUnits="userSpaceOnUse"><stop offset="0" stop-color="#fce890"/><stop offset="0.13" stop-color="#fae287"/><stop offset="0.34" stop-color="#f6d16f"/><stop offset="0.6" stop-color="#f0b648"/><stop offset="0.9" stop-color="#e69113"/><stop offset="1" stop-color="#e38400"/></linearGradient></defs><path class="cls-1" d="M191.41,42.78A57.57,57.57,0,1,1,170.8,154.09a3.11,3.11,0,0,1-.33,0h-.12a17.26,17.26,0,0,0-1.84-.1,9.11,9.11,0,0,0-6.46,2.29c-2.4,2.17-98.44,84.39-102.76,88a8.85,8.85,0,0,1-5.9,2.05,14.46,14.46,0,0,1-3.07-.35,4,4,0,0,1-.6.05,7.32,7.32,0,0,1-2-.36l-.26-.08A10.15,10.15,0,0,1,42,243l0,0-1.22-1.38v0c-1.35-1.74-1.62-5.23-1.61-5.63a123,123,0,0,1,1-13c.21-1.51,1.19-7.76,1.69-9.18.13-.68.68-2.69,1.31-4.77l.1-.35.34-.15a2.85,2.85,0,0,0,.57-.34l2.08-1.78a3,3,0,0,0,.71-1.07l1.44-4.6a2.39,2.39,0,0,1,1.81-1.56l8.9-1.34.21.06a3.26,3.26,0,0,1,1-.21l.24,0,.11,0a1.23,1.23,0,0,0,.25-.08l.19-.15.1-.08.07,0a2.3,2.3,0,0,0,.36-.24l.88-.75c.26-.21.46-.39.64-.55l.56-.48a3,3,0,0,0,.71-1.07l.07-.22v0a3.44,3.44,0,0,0,.22-.71v0l2-6.26a2.38,2.38,0,0,1,1.81-1.55l7.56-1.15a3.07,3.07,0,0,0,1.18-.53l2.07-1.78a3,3,0,0,0,.71-1.07l3.35-10.68a12.11,12.11,0,0,1,.49-1.31c.33-.62,1.35-.82,1.65-.86l3.26-.5a2.83,2.83,0,0,0,1.18-.54l2.08-1.77a3,3,0,0,0,.71-1.08l1.63-5.21a2.4,2.4,0,0,1,1.81-1.55l2-.3h.38l.75,0a3.89,3.89,0,0,0,.51,0l5.28-.88a6.13,6.13,0,0,0,.59-.24l.1,0,.1,0a3.06,3.06,0,0,0,1.14-.53l2.08-1.78a2.87,2.87,0,0,0,.71-1.07L113.17,142l.16-.15c.15-.14.31-.28.48-.41,1.52-1.25,3-2.56,4.5-3.83l1.85-1.6c1.33-1.14,1.43-1.42.82-2.92a11.11,11.11,0,0,1-2-2.54l-.31-.5a5.82,5.82,0,0,1,.46-7.53,9.64,9.64,0,0,1,6.19-3.05c.86-.15,1.73-.22,2.57-.29a26.16,26.16,0,0,0,2.87-.36,5.69,5.69,0,0,0,4.72-4.72,57.59,57.59,0,0,1,55.88-71.34Zm27.28,51.57a13.18,13.18,0,1,0-8.23,2.89A13.12,13.12,0,0,0,218.69,94.35Z"/><path class="cls-2" d="M167.33,137.63l-.64-.3h0c-1.8-.62-3.45.06-5.11.61a15,15,0,0,0-1.58.74,24.61,24.61,0,0,0-6,3.41c-11.38,8-21.48,17.57-32.05,26.56q-40.25,34.2-80.31,68.61c-1.39,1.18-1.48,2.25-.32,3.75l1.18,1.34a9.32,9.32,0,0,0,5.13,2.38h0a5.49,5.49,0,0,0,2.66.36c.49-.45,1-.91,1.47-1.34l17.4-14.85,9.43-8.06,11.63-10q6.2-5.32,12.4-10.65,7-6,14-12l16.86-14.41,15.66-13.4c1.56-1.4,3.11-2.83,4.68-4.22,2.2-1.95,4.38-3.93,6.39-6.09a52.26,52.26,0,0,0,4.43-5.32c.53-.75,1.06-1.49,1.6-2.23.39-1,.82-2,1.16-3A1.89,1.89,0,0,0,167.33,137.63Z"/><path class="cls-3" d="M40.29,238.4c26.77-22.88,54.82-47,81.65-69.75,10.57-9,20.67-18.55,32.05-26.56a24.61,24.61,0,0,1,6-3.41,15,15,0,0,1,1.58-.74,10.13,10.13,0,0,1,4-.84,8,8,0,0,1,1.12.23h0l.64.3c.16-.79-.32-1.14-1-1.37a3.17,3.17,0,0,0-1.49-.27h-.27a9.05,9.05,0,0,0-2.44.54c-1.18.4-3.9,1.61-4.13,1.73a94.35,94.35,0,0,0-14.14,10.09c-1.85,1.52-3.65,3.11-5.48,4.66l-.17-.2.17.2-16.34,14-16,13.68h0l-8.93,7.64-12.3,10.51h0l-7.75,6.63q-4.38,3.75-8.77,7.49l-8.09,6.92L40,237.16"/><path class="cls-4" d="M94.48,172.56l16.68-14.26"/><path class="cls-5" d="M231.16,66.55a52.28,52.28,0,0,0-92,31.87l46.2,54a52.28,52.28,0,0,0,45.78-85.91Zm-10.67,9.09a13.56,13.56,0,1,1-19.39-1.82A14,14,0,0,1,220.49,75.64Z"/><path class="cls-6" d="M222.32,74.07a16.4,16.4,0,1,0-1.81,23.12A16.41,16.41,0,0,0,222.32,74.07Zm-1.83,1.57a13.56,13.56,0,1,1-19.39-1.82A14,14,0,0,1,220.49,75.64Z"/><path class="cls-7" d="M140.59,98.32l45.93,53.24a53.83,53.83,0,0,0,39.72-12l-.85.75a52.14,52.14,0,0,1-40,12.19l-46.2-54a52.14,52.14,0,0,1,18.26-37.63l.87-.73C147.32,69.85,141.15,84.63,140.59,98.32Z"/><path class="cls-7" d="M200.42,92.71a14,14,0,0,0,19.39,1.82c-.11.1-.21.2-.33.29A14,14,0,0,1,201.3,73.55l.34-.27A14,14,0,0,0,200.42,92.71Z"/><path class="cls-8" d="M113.91,142.36l-3.25,10.35a3.77,3.77,0,0,1-1,1.45l-2.08,1.77a3.73,3.73,0,0,1-1.58.72l-9.67,1.47a1.57,1.57,0,0,0-1.17,1l-1.63,5.22a3.69,3.69,0,0,1-1,1.44l-2.08,1.78a3.64,3.64,0,0,1-1.57.72l-3.27.49a1.77,1.77,0,0,0-1,.45,10.2,10.2,0,0,0-.44,1.17l-3.35,10.68a3.66,3.66,0,0,1-1,1.44l-2.08,1.78a3.73,3.73,0,0,1-1.58.72l-7.56,1.15a1.58,1.58,0,0,0-1.16,1l-2.28,7.26a3.89,3.89,0,0,1-1,1.45l-2.08,1.77a3.73,3.73,0,0,1-1.58.72L50.33,199.9a1.59,1.59,0,0,0-1.16,1l-1.44,4.6a3.72,3.72,0,0,1-1,1.45l-2.08,1.77a3.63,3.63,0,0,1-.74.46l-.09.25c-1,3-1.82,7.06-2,7.78,2.44-2.06,96.67-82.27,102.39-87.32a28.09,28.09,0,0,0,5.9-6.72,4.49,4.49,0,0,0,.73-1.83c.32-.88.23-1.6-.76-2a2.36,2.36,0,0,0-1.51,0,29.7,29.7,0,0,1-4.56,1.1c-1.14-.17-2.32,0-3.4-.64a2.68,2.68,0,0,1-1.33-1.26c-.25-.61-.62-.68-.94-.2-.52.78-1.48,1.06-1.94,1.89-.35.65-1.15.67-1.68,1.13-3,2.63-6.05,5.19-9.08,7.78l-4.1,3.51c.83,2,.68,2.61-1,4-2.12,1.82-4.21,3.67-6.38,5.43A2.25,2.25,0,0,1,113.91,142.36Z"/></svg>