<svg id="Capa_1" data-name="Capa 1" xmlns="http://www.w3.org/2000/svg" xmlns:xlink="http://www.w3.org/1999/xlink" viewBox="0 0 1575 900"><defs><style>.cls-1{fill:none;}.cls-2{clip-path:url(#clip-path);}.cls-3{fill:url(#Degradado_sin_nombre_9);}.cls-4{fill:#1e649d;opacity:0.14;}.cls-5{opacity:0.17;}.cls-6{fill:#226399;}.cls-7{opacity:0.29;}.cls-8,.cls-9{fill:#ea563b;}.cls-9{opacity:0.51;}.cls-10,.cls-12{fill:#f5d45c;}.cls-10{opacity:0.57;}.cls-11{opacity:0.25;}</style><clipPath id="clip-path"><rect class="cls-1" width="1573.49" height="901.05"/></clipPath><linearGradient id="Degradado_sin_nombre_9" x1="33.33" y1="16.93" x2="1575.57" y2="902.53" gradientUnits="userSpaceOnUse"><stop offset="0" stop-color="#fff"/><stop offset="0.43" stop-color="#fdfdfd"/><stop offset="0.58" stop-color="#f6f6f6"/><stop offset="0.69" stop-color="#ebebeb"/><stop offset="0.78" stop-color="#dadada"/><stop offset="0.85" stop-color="#c4c4c4"/><stop offset="0.92" stop-color="#a8a8a8"/><stop offset="0.98" stop-color="#898989"/><stop offset="1" stop-color="#7c7c7c"/></linearGradient></defs><g class="cls-2"><rect class="cls-3" width="1575" height="900"/><path class="cls-4" d="M1104,704.08a26.82,26.82,0,0,0,3.32-2.41q28.37-28.27,56.67-56.61c.77-.77,1.56-1.52,2.31-2.32,2.13-2.29,2.18-2.9.17-5.13-29.28-32.51-45.73-71-52-113.87-9.11-62.23,4.26-119.6,41.19-170.65,36-49.73,84.61-80.38,144.92-92.39a221,221,0,0,1,58.56-3.67c48.81,3.37,92.53,20.21,130.84,50.8,1.14.91,2.32,1.77,3,2.32,12.31-12.3,24.31-24.3,36.41-36.41-2.9-4.75-26.35-21.92-45.68-32.77a279.56,279.56,0,0,0-128.56-36.16c-51.08-1.83-99.59,8.43-144.48,33C1138.24,277.4,1089.87,337,1069,417.09s-7.78,155.44,35.62,226c-1,1.09-2,2.2-3,3.24q-43.2,43.2-86.44,86.38a22.62,22.62,0,0,1-4.43,3.56c-3.23,1.9-6.35,1.65-9-.91-5.3-5.1-10.48-10.33-15.62-15.59-2.17-2.23-2.59-4.94-1.65-8a18.76,18.76,0,0,1,5.13-7.74q20.4-20.34,40.77-40.73,11.85-11.83,23.7-23.69c2.86-2.87,2.84-2.89,1-6.59-25-50.5-36.31-103.93-33.37-160.15,3.85-73.79,29.74-139.09,78.16-195,49.79-57.45,112.47-92.92,187.27-106.78a305.75,305.75,0,0,1,67.12-4.94c69.64,2.61,132.31,24.78,187.67,67.25a310.32,310.32,0,0,1,40,36.69c.91,1,1.76,2,2.91,3.37-.94,1.09-1.73,2.15-2.65,3.07q-39.77,39.72-79.58,79.37c-2.88,2.87-6,5.46-9.25,8.36-42.08-47.49-94.52-71.64-158-69-53.76,2.26-99,24.15-135.22,63.86-67.49,73.94-66.6,188.29,2.17,261.74,38.17,40.78,85.71,61.65,141.5,61.86s102.84-20.89,142.07-61l27.5,26.92c-43.08,44-94.81,68.69-156.2,72.06S1241.48,705.39,1194.44,667l-36.33,36.39c3,4.89,26.47,22.13,45.58,33a279.49,279.49,0,0,0,129.21,36.76c49.86,1.91,97.24-8.23,141.63-31.23a282.45,282.45,0,0,0,113.7-106.43q41.8-69.12,40.86-150.07c-.65-53.93-16.12-103.42-44.52-149.29,1.11-1.22,2.07-2.34,3.11-3.38q45.24-45.24,90.5-90.44a21,21,0,0,1,4.08-3.34,7.12,7.12,0,0,1,9,.95c5.2,5,10.27,10.15,15.35,15.28a7.4,7.4,0,0,1,1.56,8.7,25.6,25.6,0,0,1-5,7.31q-33,33.19-66.15,66.2a31.87,31.87,0,0,1-2.61,2.59c-2,1.58-1.75,3.17-.8,5.35,5.08,11.59,10.43,23.09,14.82,35a299.59,299.59,0,0,1,17.06,75.49,329.5,329.5,0,0,1-.53,69.71c-9.35,81.13-44.75,149-105,203.74-42,38.2-91.23,62.93-146.69,75.16a266,266,0,0,1-41.15,6.12c-11,.67-22.05,1.64-33,1.36-66-1.66-126.44-20.76-180.67-58.73a319.06,319.06,0,0,1-51.27-44.85c-.74-.8-1.47-1.6-2.18-2.43a2.59,2.59,0,0,1-.32-.74Z"/><g class="cls-5"><path class="cls-6" d="M98.25,40.58a64.05,64.05,0,0,0,4.33,128c1.51,0,3-.05,4.54-.15a64.05,64.05,0,0,0-8.87-127.8Zm41.08,95.79A48.58,48.58,0,1,1,99.32,56q1.71-.12,3.39-.12a48.58,48.58,0,0,1,36.62,80.47Z"/></g><g class="cls-7"><path class="cls-8" d="M1110.65,837.84a22.51,22.51,0,0,0-25.5-5c-9.18,4.09-14,14.26-12.48,24,1.08,6.72,5.58,11.2,10,15.91l10.41,11.09c2.57,2.74-1.68,6.73-4.25,4-10-10.62-23.1-20.82-22.24-36.83a28,28,0,0,1,18.57-24.4,28.42,28.42,0,0,1,29.75,7.22c2.63,2.68-1.62,6.66-4.25,4Z"/><path class="cls-8" d="M1123.24,845.11c-3.63,3-7.87,4.06-12.36,2.37-3.4-1.27-5.44-3.84-8.26-5.88-6-4.34-15.47-3.1-19.88,2.83a13.68,13.68,0,0,0,1.27,17.31q7.47,8,15,15.91c5.4,5.74,5.78,12.56,0,18.43-2.65,2.67-6.63-1.59-4-4.25,6.32-6.36-1.47-11.52-5.8-16.12-4.75-5-11.71-10.47-13.78-17.3-4-13.28,5.76-25.09,19.19-25.14a20.85,20.85,0,0,1,14.62,6.35c2.85,2.78,6.81,4,10.09,1.24,2.87-2.41,6.87,1.83,4,4.25Z"/><path class="cls-8" d="M1129.12,852.79a17.54,17.54,0,0,1-18.95,4.5,24.35,24.35,0,0,1-7.63-5.09c-.57-.55-1.13-1.13-1.66-1.72.78.83.31.26,0,0a21,21,0,0,0-2.68-1.66c-5.72-3.08-13,1.35-8,7.4a46.41,46.41,0,0,0,13.63,11.83c11.18,6,22.68,1,31.35-7,2.77-2.54,6.76,1.71,4,4.25-9.77,9-22.47,14.38-35.41,9.07-7.15-2.93-12.29-8.17-17.4-13.73-4.75-5.16-5.27-11.8.37-16.56,4.89-4.14,11.72-2.23,16.55.91s8,8.47,14.61,7.46a12.76,12.76,0,0,0,7.26-4c2.53-2.78,6.49,1.49,4,4.25Z"/><path class="cls-8" d="M1097.68,852.54a27.23,27.23,0,0,0,9.21,7.39c8.68,4.43,17.61.57,24.3-5.53,2.77-2.54,6.76,1.71,4,4.25-8,7.33-18.37,11.47-29,7.32a30.74,30.74,0,0,1-12.79-9.45c-2.28-2.94,2-7,4.25-4Z"/><path class="cls-8" d="M1141.69,873.51a35,35,0,0,1-17.6,10.1,25.79,25.79,0,0,1-7.54.47c-1.39-.09-2.74-.17-4.13-.16-2.24,0-1.45,1.27-1.17,2.87.87,5.12.44,10.62-3.71,14.19-2.84,2.44-6.84-1.8-4-4.25,4.68-4,.33-9.77,1.77-14.67s8.84-4,12.6-3.72c7.28.48,15-3.81,19.79-9.09,2.53-2.77,6.5,1.5,4,4.26Z"/><path class="cls-8" d="M1111.2,898.18c2.76-3.93.21-9.61,6.07-11.42s15.32-.52,18.75-7.07c1.74-3.34,6.7-.27,5,3-2.94,5.61-10.51,7.95-16.26,8.67-2.56.33-6.14-.26-6.5,2.82-.28,2.35-.65,5-2,7-2.15,3.07-7.13,0-5-3Z"/><path class="cls-8" d="M1132.58,896.11a25.56,25.56,0,0,1-10.7,5.28c-3.68.69-5-5-1.29-5.69a17.74,17.74,0,0,0,5.66-2.29,19.17,19.17,0,0,0,2.34-1.55c2.94-2.3,7,1.93,4,4.25Z"/></g><path class="cls-9" d="M102.66-10.5A168.76,168.76,0,0,1-6.81,150.35l-5.25-157Z"/><g class="cls-7"><path class="cls-6" d="M263.25,806.26,181.2,758.89a63.66,63.66,0,0,0-87,23.3l-47.36,82a63.73,63.73,0,0,0,23.3,87l82,47.37a63.32,63.32,0,0,0,31.73,8.56,64.09,64.09,0,0,0,16.58-2.2,63.26,63.26,0,0,0,38.65-29.66l47.37-82a63.66,63.66,0,0,0-23.3-87Zm7.66,77.93-47.37,82a45.65,45.65,0,0,1-62.29,16.7l-82-47.37a45.66,45.66,0,0,1-16.7-62.3l47.37-82a45.63,45.63,0,0,1,62.3-16.7l82,47.37a45.6,45.6,0,0,1,16.69,62.3Z"/></g><circle class="cls-10" cx="993.29" cy="72.97" r="17.19" transform="translate(-0.92 132.15) rotate(-7.61)"/><g class="cls-5"><path class="cls-6" d="M1027.38,69.82a36.62,36.62,0,0,0,2.48,73.15c.86,0,1.72,0,2.59-.08a36.62,36.62,0,1,0-5.07-73.07Zm23.49,54.77A27.78,27.78,0,1,1,1028,78.64c.65,0,1.3-.06,1.94-.06a27.78,27.78,0,0,1,20.94,46Z"/></g><g class="cls-11"><path class="cls-12" d="M618.08,618.22a36.18,36.18,0,0,0,8.43-40.87c-6.38-14.83-22.64-22.83-38.28-20.52-10.82,1.61-18.1,8.75-25.74,15.75l-18,16.51c-4.45,4.07-10.77-2.83-6.32-6.9,17.25-15.8,33.88-36.71,59.59-35,17.5,1.14,33.37,13.76,38.85,30.32,5.65,17.08.74,35.28-12.18,47.65-4.36,4.17-10.68-2.74-6.32-6.91Z"/><path class="cls-12" d="M606.15,638.3c-4.82-5.88-6.37-12.71-3.58-19.9,2.11-5.43,6.28-8.66,9.61-13.16,7.1-9.59,5.29-24.79-4.16-32-8.36-6.38-20.29-5.19-27.83,1.71q-12.95,11.85-25.85,23.72c-9.32,8.58-20.29,9.05-29.61-.43-4.23-4.31,2.69-10.62,6.91-6.33,10.09,10.28,18.53-2.13,26-9,8.18-7.54,17-18.61,28.06-21.81,21.4-6.22,40.19,9.75,40,31.32-.08,9-4.22,17.12-10.48,23.36-4.52,4.52-6.55,10.87-2.19,16.19,3.81,4.66-3.07,11-6.9,6.32Z"/><path class="cls-12" d="M593.69,647.6a28.17,28.17,0,0,1-6.86-30.53c1.84-4.66,4.94-8.55,8.33-12.16.9-.91,1.83-1.78,2.79-2.63-1.35,1.23-.42.49-.07,0A34.13,34.13,0,0,0,600.6,598c5.06-9.12-1.92-20.92-11.73-13.06-7.61,6.11-14.53,13.08-19.26,21.67-9.85,17.85-2.06,36.43,10.57,50.51,4,4.49-2.87,10.82-6.9,6.33C559,647.6,550.61,627.1,559.39,606.41c4.85-11.43,13.36-19.58,22.39-27.68,8.38-7.53,19.07-8.25,26.61.9,6.54,8,3.35,18.88-1.79,26.57s-13.76,12.7-12.28,23.33a20.58,20.58,0,0,0,6.27,11.75c4.43,4.11-2.51,10.4-6.9,6.32Z"/><path class="cls-12" d="M594.71,597.09a43.63,43.63,0,0,0-12.05,14.66c-7.29,13.86-1.27,28.29,8.41,39.14,4,4.51-2.88,10.84-6.9,6.33-11.63-13.05-18.08-29.74-11.2-46.67a49.46,49.46,0,0,1,15.42-20.36c4.78-3.6,11.14,3.27,6.32,6.9Z"/><path class="cls-12" d="M560.17,667.4a56.29,56.29,0,0,1-15.89-28.47,41.51,41.51,0,0,1-.61-12.13c.17-2.23.33-4.4.33-6.63,0-3.6-2-2.35-4.59-1.94-8.24,1.31-17.06.5-22.71-6.23-3.88-4.61,3-11,6.9-6.33,6.38,7.6,15.69.72,23.52,3.13,8,2.46,6.22,14.29,5.75,20.31-.92,11.69,5.83,24.13,14.21,32,4.41,4.13-2.53,10.42-6.91,6.32Z"/><path class="cls-12" d="M521.12,617.94c6.26,4.5,15.43.52,18.23,10s.53,24.63,11,30.26c5.33,2.87.3,10.78-5,7.93-9-4.82-12.57-17-13.63-26.29-.47-4.11.54-9.86-4.39-10.5-3.78-.49-8-1.14-11.21-3.43-4.89-3.51.07-11.45,5-7.93Z"/><path class="cls-12" d="M524,652.32c-3.85-5-7.16-11-8.27-17.28-1-5.93,8.1-7.94,9.16-2a28.37,28.37,0,0,0,3.58,9.13,31.77,31.77,0,0,0,2.44,3.8c3.63,4.76-3.24,11.12-6.91,6.32Z"/></g></g></svg>